<?xml version="1.0" standalone="no"?>
<!DOCTYPE svg PUBLIC "-//W3C//DTD SVG 1.1//EN" "http://www.w3.org/Graphics/SVG/1.1/DTD/svg11.dtd" >
<svg xmlns="http://www.w3.org/2000/svg">
<metadata></metadata>
<defs>
<font id="pancetta_proitalic" horiz-adv-x="1060" >
<font-face units-per-em="2048" ascent="1536" descent="-512" />
<missing-glyph horiz-adv-x="413" />
<glyph horiz-adv-x="2048" />
<glyph horiz-adv-x="2048" />
<glyph unicode="&#xd;" horiz-adv-x="2048" />
<glyph unicode=" "  horiz-adv-x="413" />
<glyph unicode="&#x09;" horiz-adv-x="413" />
<glyph unicode="&#xa0;" horiz-adv-x="413" />
<glyph unicode="!" horiz-adv-x="423" d="M125 6l35 209q43 8 86 8q20 0 41.5 -2t32.5 -4l12 -2l-33 -209q-45 -10 -88 -10q-20 0 -41.5 2.5t-33.5 5.5zM195 432l157 995q43 11 88 11q19 0 39.5 -3t31.5 -5l11 -3l-160 -995q-42 -10 -83 -10q-19 0 -40 2.5t-33 5.5z" />
<glyph unicode="&#x22;" horiz-adv-x="620" d="M291 1014l55 413q31 11 66 11q15 0 30 -3t23 -5l8 -3l-78 -413q-26 -10 -53 -10q-12 0 -25 2.5t-19 5.5zM545 1014l53 413q33 11 66 11q16 0 31.5 -3t23.5 -5l8 -3l-78 -413q-26 -10 -53 -10q-13 0 -25.5 2.5t-18.5 5.5z" />
<glyph unicode="#" horiz-adv-x="1105" d="M143 373q-6 22 0 57q2 16 6 30t7 20l4 7h131l112 459h-120q-1 3 -1.5 7.5t-1.5 20t1 30.5q3 16 8 30t9 20l3 7h129l92 366q35 11 70 11q16 0 33 -3t25 -5l9 -3l-90 -366h353l92 366q34 11 69 11q16 0 33 -3t26 -5l9 -3l-90 -366h127q6 -22 0 -57q-2 -16 -6.5 -30.5 t-8.5 -21.5l-4 -6h-137l-112 -459h129q6 -22 0 -57q-2 -16 -6.5 -30t-8.5 -20l-4 -7h-137l-90 -367q-37 -10 -72 -10q-16 0 -32 2.5t-25 5.5l-8 2l90 367h-355l-90 -367q-36 -10 -71 -10q-16 0 -32.5 2.5t-25.5 5.5l-8 2l90 367h-121zM428 487h354l113 459h-354z" />
<glyph unicode="$" horiz-adv-x="1146" d="M152 334l4 28q45 11 88 11q20 0 41 -2.5t32 -5.5l11 -3l-4 -28q-19 -118 38.5 -170.5t219.5 -52.5q164 0 238 52.5t93 170.5l15 96q8 49 -12 87t-59.5 62.5t-92.5 44.5t-112.5 36.5t-119 35t-112 44.5t-90.5 60t-55.5 86t-6.5 118l15 96q24 158 128.5 243t315.5 97 l31 192q32 10 67 10q16 0 33 -2.5t26 -5.5l9 -2l-31 -192q107 -5 179 -30.5t108.5 -68.5t47.5 -104t-3 -137l-4 -29q-45 -10 -88 -10q-20 0 -41 2.5t-32 4.5l-11 3l4 29q19 117 -35 170t-209 53q-156 0 -229 -53.5t-92 -169.5l-15 -96q-7 -46 13 -81t60 -58t93.5 -41.5 t113.5 -35.5t119.5 -36t112 -46.5t90.5 -62.5t55.5 -89.5t6.5 -123.5l-14 -96q-26 -159 -135 -244.5t-324 -95.5l-31 -193q-34 -10 -67 -10q-16 0 -33 2.5t-26 4.5l-9 3l31 193q-218 10 -295 94.5t-51 245.5z" />
<glyph unicode="%" horiz-adv-x="1312" d="M123 6l1145 1421q36 11 75 11q18 0 36.5 -3t28.5 -5l9 -3l-1145 -1421q-40 -10 -75 -10q-18 0 -36.5 2.5t-28.5 5.5zM264 1159l8 58q18 106 90.5 164.5t202.5 58.5q131 0 184 -59t35 -164l-8 -58q-16 -104 -88.5 -163.5t-202.5 -59.5t-183.5 59t-37.5 164zM375 1159 q-11 -63 18 -94t109 -31q77 0 116 31t50 94l8 58q9 65 -19 94.5t-108 29.5q-78 0 -117.5 -30t-48.5 -94zM752 217l10 57q16 105 87.5 164.5t201.5 59.5q132 0 185.5 -60t35.5 -164l-10 -57q-14 -105 -86 -164t-203 -59q-254 0 -221 223zM860 217q-9 -65 20 -95t109 -30 q78 0 117 30.5t47 94.5l10 57q11 63 -19 93t-108 30t-116.5 -30t-49.5 -93z" />
<glyph unicode="&#x26;" horiz-adv-x="1433" d="M150 344l14 98q37 234 293 295q-213 63 -174 285l10 76q29 170 150.5 258t357.5 88q125 0 208.5 -22t126 -65t56.5 -105t0 -142l-14 -86h288q6 -22 0 -57q-3 -15 -7.5 -29t-7.5 -20l-3 -7h-287l-100 -628q-15 -95 16.5 -138t128.5 -43q19 0 39 2.5t31.5 5.5t27.5 7.5 t21 5.5q4 -22 -2 -51q-2 -13 -6 -26t-7 -20l-3 -6q-4 -1 -25 -7t-38.5 -10.5t-46 -8.5t-54.5 -4q-139 0 -193 69q-4 -1 -38 -13t-72.5 -24t-107.5 -22t-142 -10q-261 0 -365 90.5t-75 263.5zM317 344q-21 -126 45 -184t246 -58q149 0 299 60q-9 56 2 121l129 827 q19 117 -37 169t-219 52q-153 0 -226.5 -56.5t-92.5 -176.5l-12 -76q-19 -120 37.5 -175.5t213.5 -55.5h101q4 -23 0 -58q-3 -15 -7.5 -29t-7.5 -21l-4 -7h-98q-173 0 -254 -56t-100 -178z" />
<glyph unicode="'" horiz-adv-x="368" d="M291 1014l55 413q31 11 66 11q15 0 30 -3t23 -5l8 -3l-78 -413q-26 -10 -53 -10q-12 0 -25 2.5t-19 5.5z" />
<glyph unicode="(" horiz-adv-x="581" d="M129 18l190 1196q26 161 127.5 243.5t296.5 82.5q1 -3 1.5 -7.5t1.5 -20t-1 -29.5q-3 -16 -8 -30t-9 -20l-3 -6q-117 0 -175 -51.5t-73 -161.5l-190 -1196q-18 -111 23 -162t159 -51q6 -20 0 -55q-3 -16 -7 -30t-6 -20l-3 -7q-197 0 -273.5 82.5t-50.5 242.5z" />
<glyph unicode=")" horiz-adv-x="581" d="M31 -250q2 16 6 29.5t7 19.5l3 6q119 0 177 51.5t73 161.5l190 1196q18 110 -23.5 161.5t-160.5 51.5q-4 21 2 56q2 16 6 30t7 21l4 6q196 0 271.5 -82.5t51.5 -243.5l-190 -1196q-26 -161 -127.5 -243t-296.5 -82q-6 24 0 57z" />
<glyph unicode="*" horiz-adv-x="974" d="M250 1083q4 33 20 66q6 14 16 28t16 21l7 8l293 -110l45 331q33 11 68 11q15 0 30 -3t23 -5l8 -3l-59 -329l330 108q14 -24 20 -57q2 -16 1.5 -30.5t-2.5 -24.5l-1 -9l-330 -96l158 -262q-24 -27 -51 -45q-14 -9 -30.5 -16.5t-25.5 -11.5l-10 -3l-143 273l-232 -273 q-28 11 -53 29q-11 9 -21 20.5t-14 19.5l-4 7l242 262z" />
<glyph unicode="+" horiz-adv-x="843" d="M174 557q-4 22 0 57q3 16 8 30.5t9 21.5l4 6h274l43 276q24 10 59 10q16 0 30.5 -2.5t20.5 -5.5l7 -2l-43 -276h274q6 -23 0 -58q-2 -16 -6.5 -30t-7.5 -20l-4 -7h-277l-43 -276q-22 -9 -59 -9q-16 0 -30 2t-21 4l-6 3l43 276h-275z" />
<glyph unicode="," horiz-adv-x="415" d="M2 -211q5 6 13 16.5t30 50t41.5 84.5t41 119.5t34.5 155.5q39 8 80 8q18 0 38 -2t31 -4l11 -2q-14 -85 -41 -160t-56.5 -121.5t-56.5 -81t-44 -48.5l-18 -15q-30 -10 -55 -10q-12 0 -24 2.5t-19 4.5z" />
<glyph unicode="-" horiz-adv-x="598" d="M170 526q-6 21 0 56q2 16 6.5 30t7.5 20l4 7h422q4 -22 -2 -57q-2 -15 -6 -29t-7 -21l-3 -6h-422z" />
<glyph unicode="." horiz-adv-x="415" d="M125 6l35 209q39 8 82 8q19 0 39.5 -2t31.5 -4l11 -2l-33 -209q-43 -10 -84 -10q-19 0 -39.5 2.5t-31.5 5.5z" />
<glyph unicode="/" horiz-adv-x="798" d="M43 -199l762 1729q39 10 82 10q19 0 39.5 -2.5t31.5 -5.5l11 -2l-764 -1729q-43 -10 -82 -10q-19 0 -39 2.5t-30 4.5z" />
<glyph unicode="0" horiz-adv-x="1165" d="M172 315l129 803q24 161 146 243.5t364 82.5q240 0 335 -82.5t71 -243.5l-127 -803q-26 -161 -148 -243t-362 -82q-241 0 -337.5 82.5t-70.5 242.5zM342 315q-18 -112 39.5 -162.5t216.5 -50.5q158 0 231 50.5t91 162.5l127 803q18 112 -39 162.5t-215 50.5 q-159 0 -232.5 -50.5t-91.5 -162.5q0 1 -31.5 -200t-63.5 -402z" />
<glyph unicode="1" horiz-adv-x="704" d="M272 1313q-2 24 2 57q2 15 6 28.5t8 19.5l3 7q171 13 428 13l-227 -1432q-45 -10 -86 -10q-20 0 -41 2.5t-32 5.5l-11 2l206 1297q-69 0 -133 2.5t-93 4.5z" />
<glyph unicode="2" horiz-adv-x="1126" d="M121 14l33 197q13 83 48 149.5t84 111.5t109.5 81.5t125.5 64t129.5 54t124 57t107.5 67t81.5 89.5t44.5 119l14 96q19 120 -38 175.5t-216 55.5q-158 0 -231.5 -55t-92.5 -176l-4 -29q-41 -10 -84 -10q-18 0 -38 2.5t-31 4.5l-11 3l5 29q14 85 45.5 146.5t90 107t150 68 t219.5 22.5q244 0 337 -86t67 -258l-14 -96q-13 -82 -48.5 -147t-85 -109t-110 -79.5t-125.5 -63t-130 -53.5t-124.5 -57t-108 -68t-82.5 -92t-45 -124l-14 -98h719q4 -23 -2 -56q-2 -16 -6 -30t-7 -21l-3 -6h-474q-110 0 -212.5 3.5t-149.5 6.5z" />
<glyph unicode="3" horiz-adv-x="1116" d="M123 104q-1 16 2 31q2 16 6.5 30.5t8.5 20.5l3 7q0 -1 16 -10t50.5 -23t79 -26.5t111.5 -22t139 -9.5q177 0 259 57.5t103 184.5l21 129q21 126 -47.5 183t-249.5 57h-131q-4 22 0 59q3 16 8 30t8 20l4 7l477 488h-653q-4 22 0 57q3 16 7.5 31t7.5 22l3 7h840 q6 -23 0 -58q-3 -15 -7.5 -28.5t-7.5 -19.5l-3 -7l-496 -498q95 0 167 -12.5t117.5 -35t76 -54.5t41.5 -70.5t13.5 -83.5t-7.5 -94l-21 -129q-29 -174 -159 -264t-386 -90q-76 0 -145 9t-113 21.5t-77 25t-47 21.5l-15 9q-1 3 -2 7.5t-2 20.5z" />
<glyph unicode="4" horiz-adv-x="1101" d="M152 342q-6 22 0 55l546 1030q35 11 84 11q22 0 43 -3t31 -5l10 -3l-518 -968h459l88 559q41 10 82 10q18 0 37.5 -2.5t29.5 -5.5l11 -2l-88 -559h139q6 -25 0 -60q-2 -15 -6.5 -29t-8.5 -21l-4 -7h-135l-53 -336q-43 -10 -84 -10q-19 0 -39.5 2.5t-31.5 5.5l-11 2 l53 336h-634z" />
<glyph unicode="5" horiz-adv-x="1099" d="M116 104q-1 16 1 31q3 16 8 30.5t9 20.5l3 7q0 -1 16 -10t50 -23t78.5 -26.5t111.5 -22t139 -9.5q168 0 247 58t100 184l22 143q19 124 -40 182t-222 58h-358q-6 22 0 57l147 635q164 15 412 15h286q1 -3 2 -7.5t2 -20t-2 -30.5t-7.5 -28.5t-7.5 -19.5l-3 -7h-555 l-106 -477h208q110 0 190 -16.5t127 -47.5t73 -75t28.5 -99t-6.5 -119l-22 -143q-29 -174 -156 -264t-375 -90q-76 0 -144.5 9t-112.5 21.5t-77.5 25t-47.5 21.5l-15 9q-1 3 -1.5 7.5t-1.5 20.5z" />
<glyph unicode="6" horiz-adv-x="1150" d="M172 315l121 760q29 178 156.5 272.5t379.5 94.5q99 0 185.5 -13t123.5 -25l36 -13q6 -23 0 -56q-2 -16 -6.5 -30t-8.5 -21l-4 -6q-15 6 -42.5 14.5t-119.5 22.5t-190 14q-165 0 -243 -62.5t-99 -191.5l-43 -268q6 4 18 10.5t52 23.5t84 30t113 23.5t140 10.5 q183 0 251 -82t42 -243l-41 -265q-27 -161 -147 -243t-357 -82q-239 0 -333 82t-68 243zM342 315q-18 -111 38.5 -162t211.5 -51q153 0 225 51t90 162l43 265q18 111 -24.5 162t-169.5 51q-69 0 -131 -10.5t-101 -25.5t-68.5 -29.5t-41.5 -25.5l-13 -10z" />
<glyph unicode="7" horiz-adv-x="1073" d="M283 4l716 1313h-690q-4 22 0 57q3 16 7.5 31t7.5 22l4 7h868q1 -3 1.5 -7.5t1.5 -20t-1 -30.5l-739 -1372q-35 -8 -86 -8q-24 0 -46.5 2t-32.5 4z" />
<glyph unicode="8" horiz-adv-x="1163" d="M168 315l25 152q31 208 256 272q-172 61 -140 265l19 114q24 160 140 243t343 83q225 0 314 -82.5t65 -243.5l-19 -114q-32 -204 -225 -265q201 -63 170 -272l-22 -152q-26 -161 -148.5 -243t-365.5 -82q-245 0 -341.5 82t-70.5 243zM338 315q-18 -111 40.5 -162 t219.5 -51q159 0 233.5 51t92.5 162l24 152q18 110 -40.5 160.5t-219.5 50.5t-235.5 -50.5t-92.5 -160.5zM477 1004q-18 -110 34 -161.5t196 -51.5q143 0 211 51.5t86 161.5l16 114q18 112 -33 162.5t-194 50.5q-144 0 -211.5 -50.5t-85.5 -162.5z" />
<glyph unicode="9" horiz-adv-x="1150" d="M195 41q-4 22 0 57q3 15 7.5 29t7.5 21l3 8q0 -3 41 -15t130.5 -25.5t188.5 -13.5q165 0 242.5 62.5t97.5 191.5l48 297q-6 -4 -18 -10.5t-52 -23.5t-83.5 -30t-112.5 -23.5t-140 -10.5q-183 0 -251 81.5t-42 242.5l39 239q24 160 144 242t358 82q239 0 332 -81.5 t69 -242.5l-121 -760q-29 -179 -156.5 -273.5t-381.5 -94.5q-98 0 -185.5 12.5t-125.5 25.5zM430 879q-18 -111 25 -161t170 -50q69 0 130.5 10.5t100.5 25t68.5 29t41.5 25.5l13 10l55 350q18 110 -38.5 160.5t-209.5 50.5q-155 0 -227 -50.5t-90 -160.5z" />
<glyph unicode=":" horiz-adv-x="415" d="M125 6l35 209q39 8 82 8q19 0 39.5 -2t31.5 -4l11 -2l-33 -209q-43 -10 -84 -10q-19 0 -39.5 2.5t-31.5 5.5zM252 809l33 209q43 10 86 10q18 0 38 -2.5t31 -5.5l11 -2l-33 -209q-43 -8 -84 -8q-19 0 -39.5 2t-31.5 4z" />
<glyph unicode=";" horiz-adv-x="415" d="M2 -211q5 6 13 16.5t30 50t41.5 84.5t41 119.5t34.5 155.5q39 8 80 8q18 0 38 -2t31 -4l11 -2q-14 -85 -41 -160t-56.5 -121.5t-56.5 -81t-44 -48.5l-18 -15q-30 -10 -55 -10q-12 0 -24 2.5t-19 4.5zM252 809l33 209q43 10 86 10q18 0 38 -2.5t31 -5.5l11 -2l-33 -209 q-43 -8 -84 -8q-19 0 -39.5 2t-31.5 4z" />
<glyph unicode="&#x3c;" horiz-adv-x="937" d="M178 641l817 408q4 -37 0 -70q-3 -15 -8 -32.5t-9 -27.5l-3 -10l-559 -268l473 -268q4 -37 -2 -70q-2 -15 -7 -31.5t-10 -25.5l-4 -10z" />
<glyph unicode="=" horiz-adv-x="884" d="M147 389q-6 22 0 57q2 15 6 29t7 21l4 6h708q1 -3 1.5 -7.5t1.5 -19.5t-1 -29q-3 -16 -8 -30t-8 -20l-4 -7h-707zM211 782q-6 21 0 56q2 16 6.5 30t8.5 20l3 7h709q4 -22 -2 -57q-2 -15 -6 -29t-7 -21l-3 -6h-709z" />
<glyph unicode="&#x3e;" horiz-adv-x="937" d="M141 236q-4 36 2 69q2 14 7 31t10 27l4 10l557 268l-473 270q-4 37 2 68q2 15 7 32.5t9 27.5l4 10l686 -408z" />
<glyph unicode="?" horiz-adv-x="1075" d="M276 1071l5 29q14 85 44.5 146.5t85.5 107t142 68t207 22.5q232 0 319 -86t60 -258l-15 -96q-10 -62 -37 -110t-62.5 -77.5t-76.5 -53t-81.5 -45t-75.5 -46t-60 -62t-33 -86.5l-14 -92q-43 -10 -86 -10q-19 0 -40 2.5t-32 5.5l-12 2l16 92q10 63 37 112t62.5 79t77 54 t82.5 45t75.5 45t60 60.5t33.5 84.5l15 96q19 121 -32 176t-198 55q-145 0 -212.5 -55t-86.5 -176l-4 -29q-41 -10 -84 -10q-18 0 -38 2.5t-31 4.5zM444 6l35 209q43 8 86 8q20 0 41.5 -2t33.5 -4l11 -2l-33 -209q-45 -10 -88 -10q-20 0 -41.5 2.5t-32.5 5.5z" />
<glyph unicode="@" horiz-adv-x="1400" d="M127 2l100 639q16 96 61.5 167t127.5 122.5t208.5 77.5t297.5 26q273 0 379 -89t77 -265l-106 -674q-43 -10 -86 -10q-20 0 -40.5 2.5t-31.5 5.5l-10 2l12 82q-6 -4 -16.5 -10.5t-47 -23.5t-76 -30t-102 -23.5t-126.5 -10.5q-149 0 -205 69.5t-33 206.5l6 39 q21 124 117 191t295 88l272 28l10 68q21 127 -47 184.5t-258 57.5q-258 0 -371 -66.5t-137 -214.5l-100 -639q-28 -174 55.5 -241.5t331.5 -67.5q143 0 275.5 23t193.5 43t61 24q1 -2 2 -6.5t3.5 -19.5t-0.5 -31t-8.5 -31t-10.5 -22l-4 -7q-8 -3 -23 -9t-66 -21t-108 -26 t-147 -20.5t-184 -9.5q-326 0 -451 102.5t-90 319.5zM678 266q-12 -86 20 -125t127 -39q60 0 113.5 10.5t88 25t60 29.5t37.5 25l11 11l49 301l-244 -29q-126 -13 -185.5 -55t-70.5 -115z" />
<glyph unicode="A" horiz-adv-x="1230" d="M47 6l674 1421q57 11 123 11q28 0 57.5 -3t44.5 -5l15 -3l223 -1421q-45 -10 -86 -10q-19 0 -41 2.5t-35 5.5l-12 2l-60 377h-551l-178 -377q-49 -10 -90 -10q-19 0 -40 2.5t-33 5.5zM451 504h489l-121 782z" />
<glyph unicode="B" horiz-adv-x="1173" d="M129 10l223 1413q194 19 463 19q241 0 336 -87q73 -67 73 -182q0 -35 -7 -75l-11 -76q-39 -225 -264 -285q204 -53 204 -235q0 -29 -5 -60l-15 -98q-29 -173 -158 -262.5t-382 -89.5q-120 0 -234 4.5t-168 9.5zM322 111h282q167 0 246 56t98 177l15 98q5 30 5 57 q0 78 -46 120q-62 57 -228 57h-282zM428 795h285q152 0 224.5 54.5t90.5 172.5l12 76q5 30 5 55q0 74 -41 114q-55 54 -207 54h-283z" />
<glyph unicode="C" horiz-adv-x="1191" d="M176 334l121 766q27 170 155.5 257t385.5 87q258 0 352 -86q72 -66 72 -183q0 -35 -7 -75l-4 -29q-41 -10 -82 -10q-19 0 -39 2.5t-30 4.5l-10 3l4 29q5 28 5 53q0 77 -46 117q-60 52 -234 53q-172 0 -249.5 -52.5t-96.5 -170.5l-121 -766q-4 -27 -5 -50q1 -79 51 -120 q64 -53 247 -53q118 0 227.5 23t160 43t50.5 24q1 -3 2 -7.5t2 -21t-2 -33.5q-3 -16 -8.5 -32t-9.5 -23l-4 -8q-6 -3 -18.5 -9t-54.5 -21t-89 -26t-121.5 -20.5t-152.5 -9.5q-269 0 -373 86q-83 69 -84 191q0 32 6 67z" />
<glyph unicode="D" horiz-adv-x="1214" d="M129 10l223 1413q187 19 467 19q262 0 367 -86q84 -69 83 -190q0 -31 -5 -66l-121 -766q-27 -169 -159.5 -255.5t-393.5 -86.5q-125 0 -240 4.5t-168 9.5zM322 111h286q175 0 257.5 53t101.5 170l120 766q4 26 4 49q0 79 -50 121q-65 54 -240 53h-287z" />
<glyph unicode="E" horiz-adv-x="1067" d="M129 14l223 1405q164 15 412 15h432q1 -3 2 -8q1 -6 2 -22v-8q0 -12 -2 -24q-3 -16 -8 -30.5t-8 -21.5l-4 -7h-666l-82 -516h598q1 -3 1.5 -7.5t1.5 -20.5t-1 -32q-3 -16 -8 -31.5t-8 -22.5l-4 -7h-598l-88 -555h677q4 -25 -2 -62q-3 -16 -7.5 -30.5t-7.5 -21.5l-3 -7 h-442q-110 0 -212.5 3.5t-150.5 6.5z" />
<glyph unicode="F" horiz-adv-x="1040" d="M127 6l225 1413q164 15 412 15h416q1 -3 2 -8q1 -6 2 -22v-8q0 -12 -2 -24q-3 -16 -8 -30.5t-9 -21.5l-4 -7h-649l-82 -516h582q1 -3 1.5 -7.5t1.5 -20.5t-1 -32q-3 -16 -8 -31.5t-9 -22.5l-4 -7h-581l-107 -670q-47 -10 -90 -10q-21 0 -43 2.5t-34 5.5z" />
<glyph unicode="G" horiz-adv-x="1218" d="M176 334l121 766q27 171 156 257.5t389 86.5q261 0 356 -86q72 -65 72 -183q0 -35 -6 -75l-4 -29q-41 -10 -82 -10q-18 0 -37.5 2.5t-30.5 4.5l-10 3l4 29q4 28 4 52q0 78 -46 118q-62 53 -239 53q-174 0 -252.5 -52.5t-97.5 -170.5l-121 -766q-4 -27 -4 -50 q0 -78 49 -120q64 -53 234 -53q84 0 163.5 13.5t116.5 27.5l37 14l74 469h-283q-1 3 -2 7.5t-2 21t2 32.5t8 31t9 22l4 7h92q96 0 185.5 -4t130.5 -8l42 -3l-106 -659q-8 -4 -23.5 -10t-66 -21.5t-104.5 -27.5t-135 -21.5t-161 -9.5q-257 0 -360 86q-82 69 -82 189 q0 32 6 67z" />
<glyph unicode="H" horiz-adv-x="1259" d="M127 6l225 1421q45 11 92 11q20 0 41.5 -3t32.5 -5l12 -3l-102 -632h651l103 632q43 11 90 11q20 0 41.5 -3t32.5 -5l12 -3l-225 -1421q-46 -10 -91 -10q-21 0 -42.5 2.5t-32.5 5.5l-11 2l105 668h-651l-105 -668q-47 -10 -90 -10q-21 0 -43 2.5t-34 5.5z" />
<glyph unicode="I" horiz-adv-x="641" d="M80 0q-3 12 -3 27t3 32q3 16 7.5 31.5t7.5 23.5l3 7h154l186 1192h-151q-6 22 0 59q3 16 7.5 31.5t7.5 22.5l3 8h481q1 -3 2 -8q1 -6 2 -22v-8q0 -12 -2 -24q-3 -16 -8 -30.5t-8 -21.5l-4 -7h-152l-188 -1192h154q4 -23 -2 -62q-3 -16 -7.5 -30.5t-8.5 -21.5l-3 -7h-481z " />
<glyph unicode="J" horiz-adv-x="962" d="M104 76q-3 13 -3 28.5t3 34.5q3 17 8 32.5t9 22.5l4 7l3 -3q4 -4 11.5 -9.5t18.5 -12t27 -14t34 -14.5t41.5 -14t48.5 -12t56 -8t63 -3q137 0 200.5 52.5t82.5 170.5l172 1093q45 11 90 11q21 0 43 -3t34 -5l11 -3l-174 -1093q-27 -171 -139.5 -257.5t-335.5 -86.5 q-59 0 -112.5 9t-87.5 21.5t-59.5 25t-36.5 21.5z" />
<glyph unicode="K" horiz-adv-x="1103" d="M127 6l225 1421q45 11 92 11q20 0 41.5 -3t32.5 -5l12 -3l-106 -663l156 43l497 620q50 11 97 11q21 0 43.5 -3t34.5 -5l12 -3l-539 -684l334 -737q-47 -10 -96 -10q-19 0 -42.5 2.5t-36.5 5.5l-14 2l-309 674l-158 -43l-98 -631q-47 -10 -90 -10q-21 0 -43 2.5t-34 5.5z " />
<glyph unicode="L" horiz-adv-x="993" d="M129 14l223 1413q45 11 92 11q19 0 40.5 -3t33.5 -5l12 -3l-206 -1306h616q2 -10 2 -22q0 -18 -4 -40q-3 -16 -7.5 -30.5t-7.5 -21.5l-3 -7h-381q-110 0 -212.5 3.5t-150.5 6.5z" />
<glyph unicode="M" horiz-adv-x="1568" d="M127 4l225 1423q56 11 115 11q27 0 56 -3t44 -5l15 -3l270 -970l586 973q55 10 114 10q27 0 55.5 -2.5t42.5 -5.5l15 -2l-225 -1424q-43 -10 -86 -10q-19 0 -39.5 2.5t-31.5 5.5l-11 2l184 1163l-559 -929q-35 -11 -78 -11q-19 0 -39 2.5t-30 5.5l-11 3l-260 927 l-182 -1163q-45 -10 -86 -10q-20 0 -41 2.5t-32 5.5z" />
<glyph unicode="N" horiz-adv-x="1263" d="M127 6l225 1421q39 11 80 11q17 0 35.5 -3t28.5 -5l10 -3l512 -1099l174 1099q43 11 86 11q19 0 39.5 -3t31.5 -5l11 -3l-225 -1421q-39 -10 -78 -10q-17 0 -35.5 2.5t-28.5 5.5l-10 2l-512 1100l-174 -1100q-43 -10 -86 -10q-19 0 -40 2.5t-33 5.5z" />
<glyph unicode="O" horiz-adv-x="1245" d="M176 334l121 766q27 170 160 257t395 87q261 0 365 -87q83 -69 82 -190q0 -32 -5 -67l-120 -766q-27 -170 -159.5 -257t-393.5 -87t-367 87q-84 69 -84 191q0 31 6 66zM352 334q-4 -26 -5 -50q0 -79 51 -120q65 -53 241 -53t257.5 53t100.5 170l121 766q4 26 4 50 q0 79 -50 120q-65 53 -241 53q-175 0 -257 -53t-101 -170q0 1 -30.5 -190.5t-60.5 -383.5z" />
<glyph unicode="P" horiz-adv-x="1163" d="M127 6l225 1417q180 19 447 19q247 0 347 -86q78 -68 79 -188q0 -32 -6 -68l-23 -135q-27 -171 -152.5 -257.5t-373.5 -86.5q-72 0 -139 2t-99 4l-31 2l-96 -623q-47 -10 -90 -10q-21 0 -43 2.5t-34 5.5zM422 741h266q161 0 237 53t95 171l22 135q4 27 4 51q0 78 -46 119 q-60 53 -220 53h-266z" />
<glyph unicode="Q" horiz-adv-x="1245" d="M176 334l121 766q27 170 160 257t395 87q261 0 365 -87q83 -69 83 -190q0 -32 -6 -67l-120 -766q-43 -268 -343 -326l150 -360q-43 -10 -90 -10q-19 0 -41.5 2.5t-35.5 5.5l-13 2l-125 344q-18 -2 -55 -2q-261 0 -367 87q-84 69 -84 191q0 31 6 66zM352 334 q-4 -26 -4 -50q0 -79 50 -120q65 -53 241 -53t257.5 53t100.5 170l121 766q4 26 4 50q0 79 -50 120q-65 53 -241 53q-175 0 -257 -53t-101 -170q0 1 -30.5 -190.5t-60.5 -383.5z" />
<glyph unicode="R" horiz-adv-x="1175" d="M127 6l225 1417q180 19 447 19q247 0 347 -86q78 -68 79 -188q0 -32 -6 -68l-23 -135q-22 -137 -105 -219t-239 -111l246 -629q-47 -10 -94 -10q-20 0 -43 2.5t-35 5.5l-13 2l-235 615h-8q-72 0 -139 2t-99 4l-31 2l-96 -623q-47 -10 -90 -10q-21 0 -43 2.5t-34 5.5z M422 741h266q161 0 237 53t95 171l22 135q4 27 4 51q0 78 -46 119q-60 53 -220 53h-266z" />
<glyph unicode="S" horiz-adv-x="1146" d="M152 189q-7 31 -8 67q0 37 8 78l4 28q45 11 88 11q20 0 41 -2.5t32 -5.5l11 -3l-4 -28q-5 -29 -5 -55q-1 -75 43 -115q58 -52 220 -53q164 0 238 52.5t93 170.5l15 96q2 14 2 27q0 33 -14 60q-20 38 -59.5 62.5t-92.5 44.5t-112.5 36.5t-119 35t-112 44.5t-90.5 60 t-56 86q-11 32 -10 69q0 23 4 49l15 96q26 172 147.5 258t368.5 86q128 0 212.5 -23t127.5 -67t57 -108q6 -30 6 -65q0 -38 -8 -81l-4 -29q-45 -10 -88 -10q-20 0 -41 2.5t-32 4.5l-11 3l4 29q5 30 5 57q0 74 -40 113q-54 53 -209 53q-156 0 -229 -53.5t-92 -169.5l-15 -96 q-2 -12 -2 -23q0 -32 15 -58q20 -35 60 -58t93.5 -41.5t113.5 -35.5t119.5 -36t112 -46.5t90.5 -62.5t56 -89q11 -33 10 -73q0 -24 -4 -51l-14 -96q-29 -172 -153 -258t-374 -86q-132 0 -220.5 23t-133.5 67.5t-59 108.5z" />
<glyph unicode="T" horiz-adv-x="1134" d="M279 1313q-2 9 -2 20q0 17 4 39q3 16 7.5 31.5t7.5 22.5l3 8h979q1 -3 2 -8q1 -6 2 -22v-8q0 -12 -2 -24q-3 -16 -8 -30.5t-8 -21.5l-4 -7h-400l-205 -1307q-47 -10 -90 -10q-21 0 -43 2.5t-34 5.5l-11 2l207 1307h-405z" />
<glyph unicode="U" horiz-adv-x="1239" d="M180 334l172 1093q45 11 92 11q19 0 40.5 -3t33.5 -5l12 -3l-174 -1093q-4 -27 -5 -50q0 -78 50 -120q64 -54 234 -53.5t250.5 54t99.5 169.5l174 1093q45 11 90 11q20 0 41.5 -3t33.5 -5l11 -3l-172 -1093q-29 -170 -159.5 -257t-387.5 -87t-360 87q-82 69 -82 190 q0 32 6 67z" />
<glyph unicode="V" horiz-adv-x="1230" d="M272 1427q45 11 86 11q19 0 41 -3t35 -5l12 -3l193 -1275l596 1275q49 11 90 11q19 0 40 -3t33 -5l11 -3l-674 -1421q-58 -10 -121 -10q-28 0 -57.5 2.5t-44.5 5.5l-16 2z" />
<glyph unicode="W" horiz-adv-x="1927" d="M276 1427q48 11 89 11q19 0 41 -3t34 -5l13 -3l118 -1259l510 1259q48 11 109 11q27 0 53.5 -3t39.5 -5l13 -3l111 -1259l518 1259q47 11 90 11q19 0 40 -3t33 -5l11 -3l-592 -1421q-60 -10 -123 -10q-28 0 -57.5 2.5t-44.5 5.5l-16 2l-105 1245l-499 -1245 q-60 -10 -123 -10q-28 0 -57.5 2.5t-44.5 5.5l-15 2z" />
<glyph unicode="X" horiz-adv-x="1181" d="M45 6l541 721l-303 700q53 11 98 11q20 0 43.5 -3t37.5 -5l13 -3l248 -593l434 593q53 11 100 11q20 0 43.5 -3t36.5 -5l13 -3l-525 -700l314 -721q-56 -10 -101 -10q-19 0 -42 2.5t-36 5.5l-14 2l-258 612l-452 -612q-54 -10 -99 -10q-20 0 -43 2.5t-36 5.5z" />
<glyph unicode="Y" horiz-adv-x="1181" d="M283 1427q53 11 98 11q20 0 43.5 -3t37.5 -5l13 -3l236 -663l446 663q53 11 100 11q20 0 43.5 -3t36.5 -5l13 -3l-578 -831l-92 -590q-47 -10 -90 -10q-21 0 -42.5 2.5t-32.5 5.5l-11 2l92 588z" />
<glyph unicode="Z" horiz-adv-x="1128" d="M98 28v7q0 12 2 24q3 16 8 31.5t9 23.5l4 7l913 1188h-725q-4 24 2 61q2 16 6.5 32t8.5 24l4 8h919q1 -3 2 -8q1 -6 2 -22v-8q0 -12 -2 -24q-3 -16 -8 -30.5t-9 -21.5l-3 -7l-916 -1188h729q6 -27 0 -62q-3 -16 -7.5 -32t-7.5 -23l-3 -8h-924q-1 2 -2 7t-2 21z" />
<glyph unicode="[" horiz-adv-x="651" d="M78 -309l293 1849q118 0 226.5 -3t158.5 -6l49 -3q1 -2 1.5 -6t1.5 -18t-1 -27q-3 -14 -7.5 -27.5t-7.5 -19.5l-4 -7q-110 -10 -280 -10l-254 -1595q76 0 146 -3t102 -5l33 -3q1 -22 -3 -53q-2 -14 -6 -26.5t-7 -18.5l-3 -6q-173 -12 -438 -12z" />
<glyph unicode="\" horiz-adv-x="798" d="M315 1530q41 10 84 10q18 0 38 -2.5t31 -5.5l11 -2l215 -1729q-41 -10 -84 -10q-17 0 -37 2.5t-31 4.5l-12 3z" />
<glyph unicode="]" horiz-adv-x="651" d="M36 -273q-1 14 1 27q3 14 7.5 27t7.5 19l3 7q111 11 281 11l254 1595q-76 0 -145.5 2.5t-101.5 4.5l-32 3q-4 23 0 54q2 14 6 26.5t7 18.5l4 6q173 12 438 12l-291 -1849q-118 0 -227 3t-159 6l-50 3q-1 2 -1.5 6t-1.5 18z" />
<glyph unicode="^" horiz-adv-x="903" d="M242 1065l436 377l317 -377q-14 -22 -41 -45q-13 -11 -26 -20t-20 -12l-7 -3l-250 297l-342 -297q-21 10 -41 33q-9 11 -15.5 23t-8.5 18z" />
<glyph unicode="_" horiz-adv-x="1024" d="M-33 -215l19 113h1022l-19 -113h-1022z" />
<glyph unicode="`" horiz-adv-x="423" d="M250 1427q41 11 82 11q19 0 39 -3t31 -5l10 -3l174 -258q-29 -10 -60 -10q-12 0 -25.5 2.5t-20.5 4.5l-7 3z" />
<glyph unicode="a" horiz-adv-x="1056" d="M172 315l64 394q26 161 119.5 243t275.5 82q65 0 117.5 -10t79.5 -22t47 -29t24.5 -24.5t7.5 -14.5l13 84q43 10 86 10q19 0 39.5 -2.5t30.5 -5.5l11 -2l-159 -1012q-43 -10 -86 -10q-20 0 -40.5 2.5t-31.5 5.5l-10 2l12 82q-5 -4 -15.5 -10.5t-45 -23.5t-73 -30 t-98 -23.5t-120.5 -10.5q-158 0 -216 82q-40 57 -40 151q0 42 8 92zM342 315q-6 -40 -6 -71q0 -58 21 -92q33 -50 135 -50q57 0 109 10t84.5 25t57 29.5t35.5 24.5l10 10l82 508q5 30 5 55q0 70 -37 108q-50 50 -191 50q-117 0 -171.5 -50.5t-69.5 -162.5z" />
<glyph unicode="b" d="M127 6l225 1421q43 11 88 11q19 0 39.5 -3t31.5 -5l11 -3l-78 -489q3 4 9.5 10.5t31.5 23t56 29t86.5 23t120.5 10.5q186 0 256 -82q52 -60 52 -162q0 -38 -7 -81l-64 -394q-26 -162 -109 -243.5t-243 -81.5q-61 0 -117 10t-92 24.5t-63.5 29t-39.5 24.5l-12 10l-12 -82 q-43 -10 -86 -10q-20 0 -41 2.5t-32 5.5zM328 203q3 -4 8.5 -11t27 -24.5t49.5 -30.5t77 -24t106 -11q104 0 153.5 50.5t67.5 162.5l64 394q6 35 6 64q0 65 -28 99q-40 50 -157 50q-143 0 -210 -51t-82 -162z" />
<glyph unicode="c" horiz-adv-x="1017" d="M172 315l64 394q26 161 132.5 243t319.5 82q212 0 286 -81q55 -60 55 -165q0 -37 -7 -79l-4 -27q-39 -10 -78 -10q-17 0 -36 2.5t-30 5.5l-10 2l6 27q5 33 5 60q0 67 -31 103q-44 50 -174 50q-129 0 -189 -50.5t-75 -162.5l-64 -394q-5 -30 -5 -55q0 -70 37 -108 q50 -50 195 -50q91 0 175.5 18t123.5 36l39 18q1 -2 2 -7t2 -20t-2 -30q-2 -15 -7 -29t-9 -20l-4 -7q-5 -3 -14.5 -7.5t-42.5 -17t-69.5 -22t-94.5 -17t-119 -7.5q-227 0 -315 82q-68 63 -68 174q0 32 6 69z" />
<glyph unicode="d" d="M172 315l64 394q26 161 121.5 243t281.5 82q65 0 116.5 -10t79.5 -24t46.5 -28t24.5 -24l5 -10l78 489q43 11 86 11q20 0 41 -3t32 -5l11 -3l-225 -1421q-43 -10 -88 -10q-20 0 -40.5 2.5t-31.5 5.5l-10 2l14 82q-6 -4 -16 -10.5t-45.5 -23.5t-74 -30t-98.5 -23.5 t-122 -10.5q-160 0 -218 82q-40 57 -40 151q0 42 8 92zM342 315q-6 -39 -6 -70q0 -59 22 -93q34 -50 138 -50q57 0 109 10.5t85 25t58 29.5t36 25l11 11l82 506q5 29 5 53q0 71 -38 109q-52 51 -195 51q-118 0 -173 -50.5t-70 -162.5z" />
<glyph unicode="e" d="M172 315l64 394q26 161 134.5 243t325.5 82q113 0 189 -21.5t115 -63t51 -101.5q6 -28 6 -60q0 -37 -8 -79l-37 -234q-123 -16 -326 -16h-321l-23 -144q-5 -29 -5 -54q0 -71 39 -109q52 -50 202 -50q96 0 185 18t130 36l41 18q1 -2 2 -7t2 -20t-2 -30q-2 -15 -7 -29 t-9 -20l-5 -7q-5 -3 -15 -7.5t-44.5 -17t-72.5 -22t-99 -17t-125 -7.5q-233 0 -323 82q-70 64 -70 175q0 32 6 68zM381 571h485l23 138q5 31 5 58q0 69 -34 105q-46 50 -180 50q-135 0 -197 -50.5t-77 -162.5z" />
<glyph unicode="f" horiz-adv-x="741" d="M143 -403l207 1318h-106q-4 21 0 56q3 16 7.5 30t7.5 21l3 6h107l18 123q24 145 103.5 219t232.5 74q78 0 174 -23q2 -12 2 -25.5t-2 -27.5q-3 -13 -7.5 -26t-7.5 -20l-3 -7q-53 16 -119 16q-97 0 -142.5 -42.5t-60.5 -137.5l-18 -123h295q1 -2 1.5 -7t1.5 -20t-1 -30 q-3 -15 -8 -29t-9 -20l-4 -7h-295l-209 -1318q-43 -11 -86 -11q-19 0 -39.5 3t-31.5 5z" />
<glyph unicode="g" d="M102 -344v7q0 11 2 22q3 16 8 30t9 21l4 6q14 -5 40 -13.5t109 -22t170 -13.5q151 0 219 50t87 163l26 176q-4 -5 -13.5 -13.5t-35 -23t-57 -26t-84.5 -20.5t-113 -9q-186 0 -257 82q-51 60 -51 162q0 38 7 81l64 394q26 162 109 243.5t243 81.5q61 0 117 -10t92 -24.5 t63 -29t39 -24.5l12 -10l13 82q41 10 86 10q20 0 41 -2.5t32 -5.5l11 -2l-176 -1112q-26 -161 -142 -243.5t-350 -82.5q-90 0 -170 12t-115 24l-35 11q-1 3 -2 8t-2 21zM342 315q-6 -35 -6 -65q0 -63 27 -98q39 -50 157 -50q142 0 208.5 51t84.5 162l80 506q-2 4 -7.5 11 t-27.5 24.5t-49.5 30.5t-76.5 24t-107 11q-105 0 -154.5 -50.5t-64.5 -162.5z" />
<glyph unicode="h" horiz-adv-x="1067" d="M127 6l225 1421q43 11 88 11q19 0 39.5 -3t31.5 -5l11 -3l-80 -491q6 4 16.5 10.5t46.5 23.5t75 30t100 23.5t123 10.5q161 0 219 -82q40 -57 41 -151q0 -42 -8 -92l-111 -703q-43 -10 -88 -10q-19 0 -39.5 2.5t-31.5 5.5l-11 2l113 703q6 38 6 70q-1 61 -23 93 q-34 50 -139 50q-59 0 -111.5 -10.5t-86.5 -25t-59.5 -29.5t-36.5 -25l-11 -11l-129 -815q-45 -10 -86 -10q-20 0 -41 2.5t-32 5.5z" />
<glyph unicode="i" horiz-adv-x="489" d="M162 219l125 799q43 10 88 10q19 0 39.5 -2.5t31.5 -5.5l11 -2l-127 -799q-3 -20 -3 -36q0 -35 12 -53q17 -28 71 -28q11 0 30 3.5t21 3.5q6 -23 0 -52q-2 -13 -6 -25t-7 -18l-4 -6q-52 -18 -108 -18q-112 0 -152 58q-28 40 -28 106q0 30 6 65zM319 1212l33 215 q43 11 88 11q19 0 39.5 -3t31.5 -5l11 -3l-33 -215q-45 -10 -88 -10q-19 0 -39.5 2.5t-31.5 5.5z" />
<glyph unicode="j" horiz-adv-x="450" d="M-169 -370v10q0 9 1 18q3 13 7.5 25.5t7.5 18.5l3 7q53 -16 109 -16q82 0 121 40t51 126l182 1159q43 10 88 10q19 0 39.5 -2.5t31.5 -5.5l11 -2l-184 -1159q-21 -138 -93.5 -208.5t-209.5 -70.5q-66 0 -162 25q-1 2 -1.5 6.5t-1.5 18.5zM346 1212l33 215q43 11 88 11 q19 0 39.5 -3t31.5 -5l11 -3l-33 -215q-45 -10 -88 -10q-19 0 -39.5 2.5t-31.5 5.5z" />
<glyph unicode="k" horiz-adv-x="940" d="M127 6l225 1421q43 11 88 11q19 0 39.5 -3t31.5 -5l11 -3l-139 -870l119 39l354 422q47 10 92 10q20 0 41.5 -2.5t32.5 -5.5l12 -2l-399 -479l260 -533q-45 -10 -92 -10q-19 0 -41 2.5t-34 5.5l-13 2l-232 471l-118 -39l-68 -432q-45 -10 -86 -10q-20 0 -41 2.5t-32 5.5z " />
<glyph unicode="l" horiz-adv-x="505" d="M162 219l190 1208q43 11 88 11q19 0 39.5 -3t31.5 -5l11 -3l-192 -1208q-3 -20 -3 -36q0 -35 12 -53q17 -28 71 -28q11 0 30 3.5t21 3.5q6 -23 0 -52q-2 -13 -6 -25t-7 -18l-4 -6q-52 -18 -108 -18q-112 0 -152 58q-28 40 -28 106q0 30 6 65z" />
<glyph unicode="m" horiz-adv-x="1613" d="M127 6l160 1012q43 10 88 10q19 0 39.5 -2.5t31.5 -5.5l11 -2l-15 -82q5 4 15 10.5t42.5 23.5t68.5 30t91.5 23.5t112.5 10.5q187 0 225 -112q6 5 17 12.5t48.5 26.5t78 34t103 27t126.5 12q152 0 206 -77q37 -52 36 -139q0 -41 -8 -91l-113 -721q-43 -10 -88 -10 q-19 0 -39.5 2.5t-31.5 5.5l-11 2l115 721q5 34 5 62q-1 56 -21 87q-30 46 -124 46q-77 0 -143 -23.5t-91 -42.5t-40 -35l-129 -815q-43 -10 -86 -10q-19 0 -39.5 2.5t-31.5 5.5l-11 2l115 721q5 34 5 62q-1 56 -21 87q-30 46 -126 46q-52 0 -98.5 -10.5t-77 -25 t-53.5 -29.5t-33 -25l-10 -11l-129 -815q-45 -10 -86 -10q-20 0 -41 2.5t-32 5.5z" />
<glyph unicode="n" horiz-adv-x="1073" d="M127 6l160 1012q43 10 88 10q19 0 39.5 -2.5t31.5 -5.5l11 -2l-15 -82q6 4 16.5 10.5t47 23.5t76 30t101 23.5t124.5 10.5q162 0 221 -82q41 -57 41 -152q0 -42 -8 -91l-111 -703q-43 -10 -88 -10q-19 0 -39.5 2.5t-31.5 5.5l-11 2l113 703q6 38 6 68q1 61 -23 95 q-36 50 -143 50q-59 0 -112.5 -10.5t-87.5 -25t-59.5 -29.5t-36.5 -25l-11 -11l-129 -815q-45 -10 -86 -10q-20 0 -41 2.5t-32 5.5z" />
<glyph unicode="o" horiz-adv-x="1081" d="M172 315l64 394q26 161 138 243t331 82q218 0 304 -82q66 -63 66 -173q0 -33 -6 -70l-61 -394q-26 -160 -138.5 -242.5t-330.5 -82.5q-219 0 -306 82q-67 64 -67 173q0 33 6 70zM342 315q-5 -30 -5 -55q0 -69 36 -107q49 -51 184 -51t199 51t82 162l63 394q5 30 5 55 q0 69 -36 107q-49 51 -184 51t-200 -51t-80 -162q0 1 -16 -97.5t-32 -197.5z" />
<glyph unicode="p" d="M61 -403l226 1421q43 10 88 10q19 0 39.5 -2.5t31.5 -5.5l11 -2l-15 -82q6 4 16.5 10.5t45.5 23.5t74 30t99 23.5t122 10.5q159 0 217 -82q41 -57 41 -151q0 -42 -8 -92l-64 -394q-26 -161 -121.5 -243t-281.5 -82q-65 0 -117 10t-79.5 24t-46.5 28t-25 24l-5 10 l-78 -489q-43 -11 -86 -11q-19 0 -40 3t-33 5zM346 315q-5 -29 -5 -55q0 -70 37 -108q51 -50 193 -50q118 0 173 50.5t73 162.5l64 394q6 38 6 70q0 59 -23 93q-34 50 -137 50q-58 0 -110.5 -10.5t-85.5 -25t-58 -29.5t-36 -25l-11 -11z" />
<glyph unicode="q" d="M172 315l64 394q26 162 109 243.5t243 81.5q61 0 117 -10t92 -24.5t63 -29t39 -24.5l12 -10l13 82q41 10 86 10q20 0 41 -2.5t32 -5.5l11 -2l-226 -1421q-43 -11 -86 -11q-19 0 -40 3t-32 5l-12 3l80 489q-3 -4 -9.5 -10.5t-31.5 -23t-56.5 -29t-87 -23t-120.5 -10.5 q-186 0 -257 82q-51 60 -51 162q0 38 7 81zM342 315q-6 -35 -6 -65q0 -63 27 -98q39 -50 157 -50q142 0 208.5 51t84.5 162l80 506q-2 4 -7.5 11t-27.5 24.5t-49.5 30.5t-76.5 24t-107 11q-105 0 -154.5 -50.5t-64.5 -162.5z" />
<glyph unicode="r" horiz-adv-x="743" d="M127 6l160 1012q43 10 88 10q19 0 39.5 -2.5t31.5 -5.5l11 -2l-19 -123q6 6 17 15t48.5 33t79.5 42.5t107 33.5t133 15q1 -3 1.5 -7.5t1.5 -20.5v-11q0 -10 -1 -20q-3 -15 -8 -29t-9 -21l-3 -7q-52 0 -102 -10.5t-88 -27t-72 -36.5t-57.5 -39.5t-40.5 -36t-25 -26.5 l-8 -11l-115 -725q-45 -10 -86 -10q-20 0 -41 2.5t-32 5.5z" />
<glyph unicode="s" horiz-adv-x="1017" d="M152 166q-5 26 -6 55q0 36 8 76v12q43 10 86 10q19 0 39 -2.5t30 -4.5l10 -3l-2 -12q-4 -25 -4 -47q-1 -65 33 -101q44 -47 171.5 -47t186 40.5t72.5 129.5l6 41q1 8 1 15q0 32 -24 56q-30 30 -72.5 44t-113.5 29q-44 9 -71 14.5t-70.5 18t-70.5 24.5t-58 31.5t-47.5 42 t-25.5 53.5q-5 19 -5 39q0 14 2 29l9 41q23 142 124 213t308 71q211 0 284 -76q54 -56 54 -157q0 -35 -7 -76l-2 -12q-41 -11 -84 -11q-19 0 -39 3t-30 5l-10 3l2 12q4 28 4 51q0 64 -30 99q-41 47 -159 47q-121 0 -178.5 -41.5t-71.5 -130.5l-6 -41q-3 -20 2 -36.5t20 -29 t30.5 -21.5t43.5 -17.5t48 -13.5t55 -13q46 -9 74 -15.5t73 -19.5t73 -25.5t60 -33t49 -44t26 -56.5q5 -20 5 -41q0 -14 -2 -30l-6 -41q-23 -141 -128 -212.5t-318 -71.5q-112 0 -186.5 20.5t-112 60t-49.5 97.5z" />
<glyph unicode="t" horiz-adv-x="780" d="M231 911q-3 12 -3 25.5t3 30.5q2 16 6.5 30t8.5 21l4 6h115l47 199q36 10 73 10q16 0 33.5 -2.5t27.5 -4.5l9 -3l-31 -199h289q3 -11 3 -25.5t-3 -31.5q-3 -15 -7.5 -29t-7.5 -20l-3 -7h-287l-100 -628q-5 -31 -5 -56q-1 -53 21 -82q32 -43 129 -43q19 0 39 2.5t31.5 5.5 t27.5 7.5t21 5.5q4 -22 -2 -51q-2 -13 -6 -26t-8 -20l-3 -6q-3 -1 -25.5 -7t-40.5 -10.5t-48 -8.5t-58 -4q-153 0 -209 74q-39 52 -39 138q0 37 7 81l98 628h-107z" />
<glyph unicode="u" horiz-adv-x="1067" d="M176 315l111 703q43 10 88 10q19 0 39.5 -2.5t31.5 -5.5l11 -2l-111 -703q-6 -38 -6 -70q0 -61 22 -93q34 -50 140 -50q59 0 111.5 10.5t86 25t58.5 29.5t36 25l11 11l129 815q45 10 86 10q20 0 41 -2.5t32 -5.5l11 -2l-160 -1012q-43 -10 -88 -10q-19 0 -39.5 2.5 t-31.5 5.5l-11 2l14 82q-6 -4 -16.5 -10.5t-46 -23.5t-74.5 -30t-100 -23.5t-123 -10.5q-162 0 -220 82q-40 57 -40 151q0 42 8 92z" />
<glyph unicode="v" horiz-adv-x="1026" d="M207 1018q43 10 82 10q18 0 39 -2.5t33 -5.5l12 -2l162 -879l438 879q45 10 86 10q18 0 38 -2.5t31 -5.5l11 -2l-514 -1012q-54 -10 -113 -10q-26 0 -54 2.5t-42 5.5l-15 2z" />
<glyph unicode="w" horiz-adv-x="1605" d="M211 1018q45 10 84 10q18 0 39 -2.5t33 -5.5l12 -2l108 -873l375 873q46 10 103 10q25 0 49.5 -2.5t36.5 -5.5l12 -2l102 -873l383 873q45 10 86 10q18 0 38 -2.5t31 -5.5l11 -2l-452 -1012q-56 -10 -115 -10q-26 0 -54 2.5t-43 5.5l-14 2l-100 844l-365 -844 q-53 -10 -114 -10q-26 0 -53.5 2.5t-41.5 5.5l-14 2z" />
<glyph unicode="x" horiz-adv-x="997" d="M45 6l432 516l-260 496q47 10 90 10q19 0 41 -2.5t34 -5.5l13 -2l201 -397l326 397q49 10 92 10q19 0 40.5 -2.5t33.5 -5.5l12 -2l-414 -496l268 -516q-49 -10 -92 -10q-17 0 -38.5 2.5t-34.5 5.5l-13 2l-211 416l-344 -416q-51 -10 -92 -10q-18 0 -39 2.5t-33 5.5z" />
<glyph unicode="y" horiz-adv-x="1044" d="M74 -378v8q0 10 2 20q3 15 7.5 28.5t7.5 19.5l3 7q37 -12 103 -12q67 0 115.5 39t90.5 123l76 143q-12 0 -24.5 2t-19.5 4l-7 2l-205 1012q45 10 84 10q18 0 39 -2.5t33 -5.5l12 -2l162 -868l436 868q47 10 88 10q18 0 38 -2.5t31 -5.5l11 -2l-602 -1159 q-72 -144 -158 -211.5t-215 -67.5q-29 0 -55 4t-37 8l-12 5q-1 2 -2 6.5t-2 18.5z" />
<glyph unicode="z" horiz-adv-x="964" d="M98 27v7q0 11 2 23q3 15 7.5 29t8.5 20l3 7l702 794h-575q-6 23 0 58q2 16 6.5 30.5t7.5 21.5l4 7h760q2 -11 2 -25.5t-2 -31.5q-3 -15 -7.5 -29t-7.5 -20l-3 -7l-701 -794h576q4 -25 0 -58q-3 -16 -7.5 -30.5t-7.5 -21.5l-4 -7h-760q-1 2 -2 7t-2 20z" />
<glyph unicode="{" horiz-adv-x="749" d="M165 586.5q-1 14.5 1 29.5q3 15 8 29.5t8 21.5l4 7q117 0 174.5 51t75.5 160l51 329q26 161 127.5 243.5t296.5 82.5q1 -2 1.5 -7t1.5 -20t-1 -30q-3 -16 -8 -30t-9 -20l-3 -6q-117 0 -175 -51.5t-73 -161.5l-53 -329q-32 -202 -180 -269q127 -71 96 -268l-53 -330 q-18 -110 23.5 -161.5t158.5 -51.5q1 -2 1.5 -6.5t1.5 -19t-1 -29.5q-3 -15 -7.5 -29t-7.5 -21l-3 -7q-196 0 -273 82.5t-51 242.5l53 330q18 109 -23 161t-159 52q-1 2 -1.5 6.5t-1.5 19z" />
<glyph unicode="|" horiz-adv-x="393" d="M94 -199l275 1729q34 10 69 10q16 0 33 -2.5t26 -5.5l9 -2l-275 -1729q-34 -10 -69 -10q-16 0 -33 2.5t-26 4.5z" />
<glyph unicode="}" horiz-adv-x="749" d="M31 -250q2 16 6 29.5t7 19.5l3 6q119 0 177 51.5t73 161.5l53 330q31 198 180 268q-130 68 -94 269l51 329q18 110 -23.5 161.5t-160.5 51.5q-4 21 2 56q2 16 6 30t7 21l4 6q196 0 271.5 -82.5t51.5 -243.5l-53 -329q-18 -109 24 -160t160 -51q4 -25 0 -58 q-3 -16 -7.5 -29.5t-7.5 -19.5l-3 -6q-117 0 -176 -52t-74 -161l-53 -330q-26 -161 -127.5 -243t-296.5 -82q-6 24 0 57z" />
<glyph unicode="~" horiz-adv-x="890" d="M172 518l2 10q16 109 65 162t150 53q50 0 88 -13.5t60.5 -32.5t41.5 -38.5t43 -33t54 -13.5q57 0 84.5 26t38.5 85l2 10q28 10 59 10q13 0 27.5 -2.5t22.5 -4.5l8 -3l-3 -10q-20 -113 -66 -164t-147 -51q-50 0 -89 13.5t-62 32t-42.5 37.5t-43 32.5t-51.5 13.5 q-58 0 -86.5 -26t-36.5 -83l-2 -10q-31 -10 -60 -10q-13 0 -27 2.5t-22 5.5z" />
<glyph unicode="&#xa2;" horiz-adv-x="1017" d="M172 315l64 394q23 148 114 228.5t268 92.5l31 193q35 10 70 10q16 0 33 -2.5t26 -4.5l8 -3l-30 -193q168 -12 229 -92.5t37 -228.5l-4 -27q-39 -10 -78 -10q-17 0 -36 2.5t-30 5.5l-10 2l6 27q18 112 -26 162.5t-174 50.5q-129 0 -189 -50.5t-75 -162.5l-64 -394 q-18 -112 32 -162.5t195 -50.5q91 0 175.5 18t123.5 36l39 18q1 -2 2 -7t2 -20t-2 -30q-2 -15 -7 -29t-9 -20l-4 -7q-12 -7 -34.5 -17.5t-99.5 -29t-163 -22.5l-31 -191q-34 -10 -69 -10q-16 0 -33 2.5t-26 4.5l-9 3l31 195q-173 17 -239.5 96.5t-43.5 222.5z" />
<glyph unicode="&#xa3;" horiz-adv-x="1191" d="M81 28q-1 16 1 31q3 16 8 31.5t8 23.5l4 7h115l78 502h-115q-4 20 2 55q2 16 6 30t8 20l3 7h114l58 365q27 171 144.5 257.5t352.5 86.5q236 0 319.5 -85.5t55.5 -258.5l-4 -29q-41 -10 -82 -10q-19 0 -39 2.5t-30 4.5l-11 3l4 29q19 118 -31.5 170.5t-199.5 52.5 q-148 0 -215.5 -52.5t-85.5 -170.5l-60 -365h369q1 -2 1.5 -7t1.5 -20t-1 -30q-3 -15 -8 -28.5t-8 -19.5l-4 -7h-367l-80 -502h684q6 -23 0 -62q-3 -16 -7.5 -30.5t-7.5 -21.5l-3 -7h-975q-1 3 -1.5 7.5t-1.5 20.5z" />
<glyph unicode="&#xa5;" horiz-adv-x="1181" d="M264 236q-6 22 0 57q3 15 7.5 28.5t8.5 20.5l3 6h274l27 168h-273q-6 22 0 57q2 16 6 30.5t7 20.5l4 7h254l-299 796q53 11 98 11q20 0 43.5 -3t37.5 -5l13 -3l236 -663l446 663q53 11 100 11q20 0 43.5 -3t36.5 -5l13 -3l-553 -796h256q1 -3 1.5 -7.5t1.5 -20t-1 -30.5 q-3 -16 -7.5 -30t-7.5 -21l-4 -6h-276l-27 -168h275q6 -22 0 -55q-3 -16 -7.5 -30t-8.5 -21l-3 -6h-274l-35 -230q-47 -10 -90 -10q-21 0 -42.5 2.5t-32.5 5.5l-11 2l35 230h-275z" />
<glyph unicode="&#xa8;" horiz-adv-x="835" d="M328 1225l30 202q33 11 72 11q17 0 33.5 -3t24.5 -5l8 -3l-31 -202q-33 -11 -72 -11q-17 0 -33.5 3t-23.5 5zM758 1225l30 202q33 11 72 11q17 0 33.5 -3t24.5 -5l8 -3l-31 -202q-33 -11 -72 -11q-17 0 -33.5 3t-23.5 5z" />
<glyph unicode="&#xa9;" horiz-adv-x="1660" d="M201 492l69 450q20 122 74.5 213.5t148.5 157t235.5 98.5t328.5 33q188 0 319 -33t204 -98.5t97 -157t4 -213.5l-69 -450q-20 -122 -73.5 -213.5t-147.5 -157t-235.5 -98.5t-328.5 -33q-370 0 -518 127.5t-108 374.5zM362 492q-22 -136 15.5 -219.5t151.5 -127t315 -43.5 q299 0 437 93t171 297l70 450q17 101 0 172.5t-72.5 120.5t-156.5 72.5t-253 23.5q-202 0 -329.5 -43t-192 -126.5t-86.5 -219.5q1 1 -16.5 -111.5t-35.5 -225.5zM672 539l57 364q16 91 81.5 136.5t197.5 45.5q131 0 177 -45t32 -137l-3 -12q-24 -6 -49 -6l-51 6l2 12 q9 58 -17.5 83.5t-101.5 25.5q-78 0 -113 -25.5t-44 -83.5l-58 -364q-9 -59 20 -84t113 -25q58 0 112 11.5t78.5 21t27.5 12.5q4 -14 0 -37q-2 -10 -5 -20t-6 -14l-2 -5q-9 -5 -26.5 -12t-74 -19t-116.5 -12q-138 0 -191.5 46t-39.5 137z" />
<glyph unicode="&#xab;" horiz-adv-x="966" d="M164 553l434 377q21 -10 41 -33q9 -11 15.5 -23t9.5 -18l2 -6l-344 -297l251 -295q-14 -24 -41 -47q-12 -11 -25.5 -19.5t-20.5 -11.5l-7 -2zM518 553l436 377q21 -10 41 -33q9 -11 15.5 -23t9.5 -18l2 -6l-344 -297l250 -295q-12 -24 -41 -47q-12 -11 -24.5 -19.5 t-19.5 -11.5l-7 -2z" />
<glyph unicode="&#xad;" horiz-adv-x="598" d="M170 526q-6 21 0 56q2 16 6.5 30t7.5 20l4 7h422q4 -22 -2 -57q-2 -15 -6 -29t-7 -21l-3 -6h-422z" />
<glyph unicode="&#xae;" horiz-adv-x="1660" d="M201 492l69 450q20 122 74.5 213.5t148.5 157t235.5 98.5t328.5 33q188 0 319 -33t204 -98.5t97 -157t4 -213.5l-69 -450q-20 -122 -73.5 -213.5t-147.5 -157t-235.5 -98.5t-328.5 -33q-370 0 -518 127.5t-108 374.5zM362 492q-22 -136 15.5 -219.5t151.5 -127t315 -43.5 q299 0 437 93t171 297l70 450q17 101 0 172.5t-72.5 120.5t-156.5 72.5t-253 23.5q-202 0 -329.5 -43t-192 -126.5t-86.5 -219.5q1 1 -16.5 -111.5t-35.5 -225.5zM659 360l113 709q92 10 229 10q129 0 180 -45t36 -135l-9 -59q-22 -140 -166 -168l119 -312q-28 -4 -57 -4 l-57 4l-111 302l-117 2l-49 -304q-28 -4 -55 -4zM829 733h119q73 0 108 25.5t44 81.5l8 59q9 58 -17.5 83.5t-99.5 25.5h-119z" />
<glyph unicode="&#xb4;" horiz-adv-x="423" d="M209 1169l256 258q39 11 82 11q18 0 38 -3t31 -5l11 -3l-308 -258q-30 -10 -57 -10q-14 0 -27 2.5t-19 4.5z" />
<glyph unicode="&#xb8;" horiz-adv-x="1017" d="M307 -207l2 10q26 4 49 4l48 -4l-3 -10q-6 -42 10.5 -58t69.5 -16q51 0 73 15t28 55l4 18q3 19 -13.5 30.5t-40.5 18.5t-47.5 17.5t-37 35t-7.5 62.5l4 29h101l-6 -29q-3 -25 12.5 -40t39.5 -23t47.5 -17.5t38 -30t9.5 -53.5l-4 -18q-9 -70 -60 -104.5t-153 -34.5 q-107 0 -141 34.5t-23 108.5z" />
<glyph unicode="&#xbb;" horiz-adv-x="966" d="M119 258l340 295l-248 297q14 22 41 47q12 10 25 18.5t19 11.5l7 3l315 -377l-434 -375q-21 8 -41 33q-8 10 -14 22t-8 19zM473 258l342 295l-250 297q14 22 41 47q12 10 25 18.5t19 11.5l7 3l318 -377l-436 -375q-18 8 -41 33q-8 10 -14.5 22t-8.5 19z" />
<glyph unicode="&#x2c6;" horiz-adv-x="423" d="M113 1182l247 245q39 11 78 11q18 0 37 -3t29 -5l10 -3l170 -245q-26 -11 -57 -11q-12 0 -26 2.5t-22 5.5l-8 3l-145 174l-201 -174q-30 -11 -57 -11q-14 0 -27.5 2.5t-20.5 5.5z" />
<glyph unicode="&#x2da;" horiz-adv-x="634" d="M348 1266l4 32q23 142 193 142q86 0 121 -37.5t26 -104.5l-6 -32q-9 -66 -56.5 -104t-133.5 -38q-87 0 -123 38t-25 104zM424 1266q-6 -38 13 -56t69 -18t74 18t30 56l4 32q6 38 -11.5 56t-67.5 18q-96 0 -105 -74z" />
<glyph unicode="&#x2dc;" horiz-adv-x="817" d="M295 1245l2 8q14 93 57 138t131 45q54 0 93 -18t57 -39.5t43.5 -39.5t56.5 -18q51 0 74 21.5t31 72.5l2 10q28 11 55 11q11 0 23 -3t18 -5l6 -3l-2 -10q-14 -93 -56 -136.5t-132 -43.5q-53 0 -92.5 18t-58.5 39.5t-45 39.5t-56 18q-51 0 -74 -22t-31 -73l-2 -10 q-24 -10 -51 -10q-12 0 -24 2.5t-18 4.5z" />
<glyph unicode="&#x400;" horiz-adv-x="1067" d="M129 14l223 1405q164 15 412 15h432q1 -3 2 -8t2 -21.5t-2 -32.5t-8 -30.5t-8 -21.5l-4 -7h-666l-82 -516h598q1 -3 1.5 -7.5t1.5 -20.5t-1 -32q-3 -16 -8 -31.5t-8 -22.5l-4 -7h-598l-88 -555h677q4 -25 -2 -62q-3 -16 -7.5 -30.5t-7.5 -21.5l-3 -7h-442 q-110 0 -212.5 3.5t-150.5 6.5zM614 1800q41 10 82 10q19 0 39 -2.5t31 -5.5l10 -2l174 -258q-26 -10 -57 -10q-12 0 -25.5 2.5t-21.5 5.5l-8 2z" />
<glyph unicode="&#x401;" horiz-adv-x="1067" d="M129 14l223 1405q164 15 412 15h432q1 -3 2 -8t2 -21.5t-2 -32.5t-8 -30.5t-8 -21.5l-4 -7h-666l-82 -516h598q1 -3 1.5 -7.5t1.5 -20.5t-1 -32q-3 -16 -8 -31.5t-8 -22.5l-4 -7h-598l-88 -555h677q4 -25 -2 -62q-3 -16 -7.5 -30.5t-7.5 -21.5l-3 -7h-442 q-110 0 -212.5 3.5t-150.5 6.5zM528 1542l33 203q29 10 68 10q17 0 34 -2.5t25 -4.5l8 -3l-30 -203q-33 -10 -72 -10q-16 0 -32.5 2.5t-25.5 5.5zM958 1542l33 203q29 10 68 10q17 0 34 -2.5t25 -4.5l8 -3l-30 -203q-33 -10 -72 -10q-16 0 -32.5 2.5t-25.5 5.5z" />
<glyph unicode="&#x402;" horiz-adv-x="1472" d="M279 1313q-4 22 2 59q3 16 7.5 31.5t7.5 22.5l3 8h979q1 -3 2 -8t2 -21.5t-2 -32.5t-8 -30.5t-8 -21.5l-4 -7h-400l-78 -504q6 4 17 10.5t49 23.5t79 30t105 23.5t129 10.5q176 0 240.5 -84t38.5 -250l-49 -305q-21 -138 -95.5 -208t-216.5 -70q-66 0 -166 24q-4 23 2 54 q2 13 6 25.5t7 18.5l4 7q57 -17 108 -17q82 0 121 39.5t53 126.5l48 305q19 112 -20 162.5t-157 50.5q-61 0 -116.5 -10t-91 -24t-63 -29t-39.5 -25t-13 -12l-107 -680q-47 -10 -90 -10q-21 0 -43 2.5t-34 5.5l-11 2l207 1307h-405z" />
<glyph unicode="&#x403;" horiz-adv-x="972" d="M127 6l225 1413q164 15 412 15h360q1 -3 2 -8t2 -21.5t-2 -32.5t-8 -30.5t-8 -21.5l-4 -7h-594l-207 -1307q-47 -10 -90 -10q-21 0 -43 2.5t-34 5.5zM623 1542l256 258q39 10 82 10q18 0 38 -2.5t31 -5.5l10 -2l-305 -258q-30 -10 -57 -10q-14 0 -27.5 2.5t-20.5 5.5z " />
<glyph unicode="&#x404;" horiz-adv-x="1191" d="M176 334l121 766q27 170 155.5 257t385.5 87q258 0 351.5 -85.5t65.5 -258.5l-4 -29q-41 -10 -82 -10q-19 0 -39 2.5t-30 4.5l-10 3l4 29q19 118 -41 170.5t-234 52.5q-172 0 -249.5 -52.5t-96.5 -170.5l-49 -309h612q6 -25 0 -62q-3 -16 -7.5 -31t-7.5 -22l-3 -6h-612 l-54 -336q-19 -117 45.5 -170t247.5 -53q118 0 227.5 23t160 43t50.5 24q1 -3 2 -7.5t2 -21t-2 -33.5q-3 -16 -8.5 -32t-9.5 -23l-4 -8q-6 -3 -18.5 -9t-54.5 -21t-89 -26t-121.5 -20.5t-152.5 -9.5q-269 0 -373.5 86.5t-77.5 257.5z" />
<glyph unicode="&#x405;" horiz-adv-x="1159" d="M151.5 189q-14.5 64 0.5 145l4 28q45 11 88 11q20 0 41 -2.5t32 -5.5l11 -3l-4 -28q-19 -118 38.5 -170.5t219.5 -52.5q164 0 238 52.5t93 170.5l15 96q8 49 -12 87t-59.5 62.5t-92.5 44.5t-112.5 36.5t-119 35t-112 44.5t-90.5 60t-55.5 86t-6.5 118l15 96 q26 172 147.5 258t368.5 86q128 0 212.5 -23t127.5 -67t56.5 -108t-1.5 -146l-4 -29q-45 -10 -88 -10q-20 0 -41 2.5t-32 4.5l-11 3l4 29q19 117 -35 170t-209 53q-156 0 -229 -53.5t-92 -169.5l-15 -96q-7 -46 13 -81t60 -58t93.5 -41.5t113.5 -35.5t119.5 -36t112 -46.5 t90.5 -62.5t55.5 -89.5t6.5 -123.5l-14 -96q-29 -172 -153 -258t-374 -86q-132 0 -220.5 23t-133.5 67.5t-59.5 108.5z" />
<glyph unicode="&#x406;" horiz-adv-x="641" d="M80 0q-6 24 0 59q3 16 7.5 31.5t7.5 23.5l3 7h154l186 1192h-151q-6 22 0 59q3 16 7.5 31.5t7.5 22.5l3 8h481q1 -3 2 -8t2 -21.5t-2 -32.5t-8 -30.5t-8 -21.5l-4 -7h-152l-188 -1192h154q4 -23 -2 -62q-3 -16 -7.5 -30.5t-8.5 -21.5l-3 -7h-481z" />
<glyph unicode="&#x407;" horiz-adv-x="641" d="M80 0q-6 24 0 59q3 16 7.5 31.5t7.5 23.5l3 7h154l186 1192h-151q-6 22 0 59q3 16 7.5 31.5t7.5 22.5l3 8h481q1 -3 2 -8t2 -21.5t-2 -32.5t-8 -30.5t-8 -21.5l-4 -7h-152l-188 -1192h154q4 -23 -2 -62q-3 -16 -7.5 -30.5t-8.5 -21.5l-3 -7h-481zM313 1542l33 203 q31 10 70 10q17 0 34 -2.5t25 -4.5l8 -3l-32 -203q-33 -10 -70 -10q-17 0 -34 2.5t-25 5.5zM678 1542l33 203q30 10 69 10q16 0 33 -2.5t26 -4.5l9 -3l-33 -203q-33 -10 -70 -10q-17 0 -34 2.5t-25 5.5z" />
<glyph unicode="&#x408;" horiz-adv-x="987" d="M129 76q-6 26 0 63q3 17 8 32.5t9 22.5l4 7q0 -1 12 -10t38 -22.5t60.5 -26.5t86.5 -22t108 -9q136 0 198.5 52.5t81.5 170.5l172 1093q45 11 92 11q20 0 41.5 -3t33.5 -5l11 -3l-174 -1093q-27 -171 -139.5 -257.5t-335.5 -86.5q-59 0 -112.5 9t-87.5 21.5t-59.5 25 t-36.5 21.5z" />
<glyph unicode="&#x409;" horiz-adv-x="2002" d="M68 -10q-6 24 0 61q3 16 7.5 31t7.5 22l3 7q97 0 141.5 48.5t79.5 166.5l320 1093q154 19 383 19q102 0 197 -5t139 -9l45 -5l-97 -592q115 9 271 9q246 0 342 -90t69 -267l-20 -133q-29 -175 -154 -264.5t-370 -89.5q-116 0 -226.5 4.5t-163.5 9.5l-53 4l205 1303h-432 l-287 -987q-25 -86 -54.5 -143.5t-75.5 -103.5t-114 -67.5t-163 -21.5zM1182 111h268q158 0 233.5 56t94.5 179l22 133q21 124 -37 180t-217 56h-268z" />
<glyph unicode="&#x40a;" horiz-adv-x="1970" d="M127 6l225 1421q45 11 92 11q20 0 41.5 -3t32.5 -5l12 -3l-102 -632h651l103 632q43 11 90 11q19 0 40.5 -3t33.5 -5l12 -3l-94 -600q112 9 268 9q246 0 342.5 -90.5t69.5 -266.5l-21 -133q-29 -175 -154 -264.5t-370 -89.5q-116 0 -226.5 4.5t-163.5 9.5l-53 4l105 664 h-651l-105 -668q-47 -10 -90 -10q-21 0 -43 2.5t-34 5.5zM1149 111h268q158 0 233.5 56t94.5 179l22 133q21 124 -37 180t-217 56h-268z" />
<glyph unicode="&#x40b;" horiz-adv-x="1472" d="M279 1313q-4 22 2 59q3 16 7.5 31.5t7.5 22.5l3 8h979q1 -3 2 -8t2 -21.5t-2 -32.5t-8 -30.5t-8 -21.5l-4 -7h-400l-78 -504q6 4 17 10.5t49 23.5t79 30t105 23.5t129 10.5q176 0 240.5 -84t38.5 -250l-90 -567q-45 -10 -90 -10q-21 0 -42.5 2.5t-32.5 5.5l-11 2l88 567 q19 112 -20 162.5t-157 50.5q-61 0 -116.5 -10t-91 -24t-63 -29t-39.5 -25t-13 -12l-107 -680q-47 -10 -90 -10q-21 0 -43 2.5t-34 5.5l-11 2l207 1307h-405z" />
<glyph unicode="&#x40c;" horiz-adv-x="1103" d="M127 6l225 1421q45 11 92 11q20 0 41.5 -3t32.5 -5l12 -3l-106 -663l156 43l497 620q50 11 97 11q21 0 43.5 -3t34.5 -5l12 -3l-539 -684l334 -737q-47 -10 -96 -10q-19 0 -42.5 2.5t-36.5 5.5l-14 2l-309 674l-158 -43l-98 -631q-47 -10 -90 -10q-21 0 -43 2.5t-34 5.5z M655 1542l254 258q39 10 82 10q18 0 38 -2.5t31 -5.5l11 -2l-303 -258q-32 -10 -59 -10q-14 0 -27.5 2.5t-19.5 5.5z" />
<glyph unicode="&#x40d;" horiz-adv-x="1273" d="M127 6l225 1421q45 11 92 11q20 0 41.5 -3t32.5 -5l12 -3l-176 -1108l860 1108q39 11 80 11q17 0 35.5 -3t28.5 -5l10 -3l-225 -1421q-45 -10 -90 -10q-21 0 -42.5 2.5t-32.5 5.5l-11 2l174 1108l-860 -1108q-41 -10 -78 -10q-18 0 -37 2.5t-29 5.5zM684 1800 q41 10 84 10q18 0 37.5 -2.5t30.5 -5.5l10 -2l174 -258q-26 -10 -57 -10q-12 0 -25.5 2.5t-21.5 5.5l-7 2z" />
<glyph unicode="&#x40e;" horiz-adv-x="1173" d="M165 33q-2 15 1 30q3 16 8.5 31t9.5 22l4 7q41 -12 119 -12q145 0 228 157l77 144q-15 0 -30 2t-23 4l-8 2l-262 1007q47 11 88 11q19 0 41 -3t34 -5l13 -3l221 -864l492 864q49 11 92 11q19 0 40 -3t32 -5l12 -3l-660 -1159q-80 -145 -172 -211.5t-235 -66.5 q-33 0 -62 4t-42 8l-13 4q-1 2 -2 7t-3 20zM604 1745l4 20q29 11 60 11q14 0 28 -3t22 -5l7 -3l-4 -22q-9 -68 19.5 -97.5t113.5 -29.5q84 0 122.5 29.5t49.5 97.5l4 22q29 11 60 11q14 0 28 -3t22 -5l7 -3l-4 -20q-16 -108 -84.5 -160.5t-218.5 -52.5q-149 0 -200.5 52.5 t-35.5 160.5z" />
<glyph unicode="&#x40f;" horiz-adv-x="1253" d="M129 14l223 1413q45 11 92 11q20 0 41.5 -3t32.5 -5l12 -3l-206 -1306h645l207 1306q45 11 90 11q20 0 41.5 -3t32.5 -5l12 -3l-226 -1413q-169 -14 -426 -18l-45 -281q-36 -10 -73 -10q-16 0 -33.5 2.5t-26.5 4.5l-10 3l43 281q-115 1 -221.5 5.5t-155.5 8.5z" />
<glyph unicode="&#x410;" horiz-adv-x="1230" d="M47 6l674 1421q57 11 123 11q28 0 57.5 -3t44.5 -5l15 -3l223 -1421q-45 -10 -86 -10q-19 0 -41 2.5t-35 5.5l-12 2l-60 377h-551l-178 -377q-49 -10 -90 -10q-19 0 -40 2.5t-33 5.5zM451 504h489l-121 782z" />
<glyph unicode="&#x411;" horiz-adv-x="1163" d="M129 10l223 1409q164 15 412 15h446q6 -25 0 -62q-2 -16 -6.5 -30.5t-7.5 -21.5l-4 -7h-680l-76 -479q119 8 283 8q249 0 348 -90.5t70 -266.5l-21 -139q-29 -174 -155.5 -263t-374.5 -89q-120 0 -234 4t-168 8zM322 111h282q161 0 238 56t96 179l23 139 q21 124 -38.5 180t-222.5 56h-282z" />
<glyph unicode="&#x412;" horiz-adv-x="1173" d="M129 10l223 1413q194 19 463 19q241 0 336 -87t66 -257l-11 -76q-39 -225 -264 -285q236 -61 199 -295l-15 -98q-29 -173 -158 -262.5t-382 -89.5q-120 0 -234 4.5t-168 9.5zM322 111h282q167 0 246 56t98 177l15 98q21 120 -41 177t-228 57h-282zM428 795h285 q152 0 224.5 54.5t90.5 172.5l12 76q19 115 -36 169t-207 54h-283z" />
<glyph unicode="&#x413;" horiz-adv-x="972" d="M127 6l225 1413q164 15 412 15h360q1 -3 2 -8t2 -21.5t-2 -32.5t-8 -30.5t-8 -21.5l-4 -7h-594l-207 -1307q-47 -10 -90 -10q-21 0 -43 2.5t-34 5.5z" />
<glyph unicode="&#x414;" horiz-adv-x="1409" d="M20 -285l62 396q105 0 153 48.5t84 166.5l318 1093q156 19 385 19q101 0 195.5 -5t138.5 -9l45 -5l-205 -1298q45 0 86 -2t60 -4l18 -2l-64 -398q-36 -10 -73 -10q-16 0 -33.5 2.5t-27.5 4.5l-9 3l45 285h-987l-47 -285q-37 -10 -74 -10q-16 0 -33.5 2.5t-26.5 4.5z M371 121h649l186 1192h-436l-287 -987q-46 -149 -112 -205z" />
<glyph unicode="&#x415;" horiz-adv-x="1067" d="M129 14l223 1405q164 15 412 15h432q1 -3 2 -8t2 -21.5t-2 -32.5t-8 -30.5t-8 -21.5l-4 -7h-666l-82 -516h598q1 -3 1.5 -7.5t1.5 -20.5t-1 -32q-3 -16 -8 -31.5t-8 -22.5l-4 -7h-598l-88 -555h677q4 -25 -2 -62q-3 -16 -7.5 -30.5t-7.5 -21.5l-3 -7h-442 q-110 0 -212.5 3.5t-150.5 6.5z" />
<glyph unicode="&#x416;" horiz-adv-x="1636" d="M45 6l506 739l-252 682q47 11 92 11q22 0 45.5 -3t35.5 -5l13 -3l230 -616l137 -43l104 659q46 11 91 11q20 0 41.5 -3t33.5 -5l11 -3l-105 -659l148 43l428 616q47 11 96 11q21 0 43 -3t33 -5l12 -3l-467 -682l270 -739q-47 -10 -96 -10q-20 0 -43 2.5t-36 5.5l-13 2 l-248 676l-147 -41l-101 -635q-45 -10 -90 -10q-20 0 -41.5 2.5t-33.5 5.5l-11 2l98 635l-133 41l-463 -676q-51 -10 -96 -10q-21 0 -44 2.5t-35 5.5z" />
<glyph unicode="&#x417;" horiz-adv-x="1128" d="M137 76q-6 26 0 63q3 17 8 32.5t9 22.5l4 7q0 -4 41.5 -24t139.5 -43t212 -23q173 0 253 55.5t101 177.5l15 98q19 119 -43 175.5t-228 56.5h-178q-6 22 0 59q2 16 6.5 31.5t8.5 23.5l3 7h179q153 0 225.5 54t91.5 173l10 76q19 116 -33.5 170.5t-199.5 54.5 q-165 0 -239.5 -50.5t-92.5 -162.5l-4 -27q-41 -10 -84 -10q-17 0 -36 2.5t-30 4.5l-10 3l4 27q26 168 143.5 251t368.5 83q233 0 326 -88t66 -258l-13 -76q-36 -223 -262 -285q237 -61 197 -295l-15 -98q-29 -174 -159 -264t-387 -90q-76 0 -144.5 9t-113 21.5t-77.5 25 t-48 21.5z" />
<glyph unicode="&#x418;" horiz-adv-x="1269" d="M127 6l225 1421q45 11 92 11q20 0 41.5 -3t32.5 -5l12 -3l-176 -1108l860 1108q39 11 80 11q17 0 35.5 -3t28.5 -5l10 -3l-225 -1421q-45 -10 -90 -10q-21 0 -42.5 2.5t-32.5 5.5l-11 2l174 1108l-860 -1108q-41 -10 -78 -10q-18 0 -37 2.5t-29 5.5z" />
<glyph unicode="&#x419;" horiz-adv-x="1269" d="M127 6l225 1421q45 11 92 11q20 0 41.5 -3t32.5 -5l12 -3l-176 -1108l860 1108q39 11 80 11q17 0 35.5 -3t28.5 -5l10 -3l-225 -1421q-45 -10 -90 -10q-21 0 -42.5 2.5t-32.5 5.5l-11 2l174 1108l-860 -1108q-41 -10 -78 -10q-18 0 -37 2.5t-29 5.5zM641 1745l4 20 q29 11 60 11q14 0 28 -3t21 -5l8 -3l-4 -22q-11 -68 18 -97.5t115 -29.5q84 0 122.5 29.5t49.5 97.5l4 22q28 11 59 11q14 0 28.5 -3t21.5 -5l8 -3l-4 -20q-18 -108 -86 -160.5t-217 -52.5t-201.5 52.5t-34.5 160.5z" />
<glyph unicode="&#x41a;" horiz-adv-x="1103" d="M127 6l225 1421q45 11 92 11q20 0 41.5 -3t32.5 -5l12 -3l-106 -663l156 43l497 620q50 11 97 11q21 0 43.5 -3t34.5 -5l12 -3l-539 -684l334 -737q-47 -10 -96 -10q-19 0 -42.5 2.5t-36.5 5.5l-14 2l-309 674l-158 -43l-98 -631q-47 -10 -90 -10q-21 0 -43 2.5t-34 5.5z " />
<glyph unicode="&#x41b;" horiz-adv-x="1292" d="M68 -10q-6 24 0 61q3 16 7.5 31t7.5 22l3 7q97 0 141.5 48.5t79.5 166.5l320 1093q154 19 383 19q102 0 197 -5t139 -9l45 -5l-226 -1413q-45 -10 -90 -10q-21 0 -42.5 2.5t-32.5 5.5l-11 2l205 1307h-432l-287 -987q-25 -86 -54.5 -143.5t-75.5 -103.5t-114 -67.5 t-163 -21.5z" />
<glyph unicode="&#x41c;" horiz-adv-x="1581" d="M127 4l225 1423q56 11 115 11q27 0 56 -3t44 -5l15 -3l270 -970l586 973q55 10 114 10q27 0 55.5 -2.5t42.5 -5.5l15 -2l-225 -1424q-43 -10 -86 -10q-19 0 -39.5 2.5t-31.5 5.5l-11 2l184 1163l-559 -929q-35 -11 -78 -11q-19 0 -39 2.5t-30 5.5l-11 3l-260 927 l-182 -1163q-45 -10 -86 -10q-20 0 -41 2.5t-32 5.5z" />
<glyph unicode="&#x41d;" horiz-adv-x="1259" d="M127 6l225 1421q45 11 92 11q20 0 41.5 -3t32.5 -5l12 -3l-102 -632h651l103 632q43 11 90 11q20 0 41.5 -3t32.5 -5l12 -3l-225 -1421q-46 -10 -91 -10q-21 0 -42.5 2.5t-32.5 5.5l-11 2l105 668h-651l-105 -668q-47 -10 -90 -10q-21 0 -43 2.5t-34 5.5z" />
<glyph unicode="&#x41e;" horiz-adv-x="1245" d="M176 334l121 766q27 170 160 257t395 87q261 0 365 -87t77 -257l-120 -766q-27 -170 -159.5 -257t-393.5 -87t-366.5 87t-78.5 257zM352 334q-19 -117 46 -170t241 -53t257.5 53t100.5 170l121 766q19 117 -46 170t-241 53q-175 0 -257 -53t-101 -170q0 1 -30.5 -190.5 t-60.5 -383.5z" />
<glyph unicode="&#x41f;" horiz-adv-x="1253" d="M127 6l225 1413q202 19 502 19q133 0 257 -5t181 -9l58 -5l-224 -1413q-45 -10 -90 -10q-21 0 -42.5 2.5t-32.5 5.5l-11 2l205 1307h-643l-207 -1307q-47 -10 -90 -10q-21 0 -43 2.5t-34 5.5z" />
<glyph unicode="&#x420;" horiz-adv-x="1163" d="M127 6l225 1417q180 19 447 19q248 0 347.5 -86.5t72.5 -255.5l-23 -135q-27 -171 -152.5 -257.5t-373.5 -86.5q-72 0 -139 2t-99 4l-31 2l-96 -623q-47 -10 -90 -10q-21 0 -43 2.5t-34 5.5zM422 741h266q161 0 237 53t95 171l22 135q18 117 -41.5 170t-220.5 53h-266z " />
<glyph unicode="&#x421;" horiz-adv-x="1191" d="M176 334l121 766q27 170 155.5 257t385.5 87q258 0 351.5 -85.5t65.5 -258.5l-4 -29q-41 -10 -82 -10q-19 0 -39 2.5t-30 4.5l-10 3l4 29q19 118 -41 170.5t-234 52.5q-172 0 -249.5 -52.5t-96.5 -170.5l-121 -766q-19 -117 45.5 -170t247.5 -53q118 0 227.5 23t160 43 t50.5 24q1 -3 2 -7.5t2 -21t-2 -33.5q-3 -16 -8.5 -32t-9.5 -23l-4 -8q-6 -3 -18.5 -9t-54.5 -21t-89 -26t-121.5 -20.5t-152.5 -9.5q-269 0 -373.5 86.5t-77.5 257.5z" />
<glyph unicode="&#x422;" horiz-adv-x="1134" d="M279 1313q-4 22 2 59q3 16 7.5 31.5t7.5 22.5l3 8h979q1 -3 2 -8t2 -21.5t-2 -32.5t-8 -30.5t-8 -21.5l-4 -7h-400l-205 -1307q-47 -10 -90 -10q-21 0 -43 2.5t-34 5.5l-11 2l207 1307h-405z" />
<glyph unicode="&#x423;" horiz-adv-x="1173" d="M165 33q-2 15 1 30q3 16 8.5 31t9.5 22l4 7q41 -12 119 -12q145 0 228 157l77 144q-15 0 -30 2t-23 4l-8 2l-262 1007q47 11 88 11q19 0 41 -3t34 -5l13 -3l221 -864l492 864q49 11 92 11q19 0 40 -3t32 -5l12 -3l-660 -1159q-80 -145 -172 -211.5t-235 -66.5 q-33 0 -62 4t-42 8l-13 4q-1 2 -2 7t-3 20z" />
<glyph unicode="&#x424;" horiz-adv-x="1466" d="M174 489l74 453q27 171 169.5 258.5t424.5 87.5l22 139q45 11 90 11q20 0 41.5 -3t32.5 -5l12 -3l-22 -139q284 0 398 -87.5t87 -258.5l-71 -453q-27 -170 -169.5 -257t-424.5 -87l-23 -139q-45 -10 -90 -10q-20 0 -41.5 2.5t-33.5 5.5l-11 2l23 139q-283 0 -398.5 87 t-89.5 257zM352 489q-19 -116 56 -169.5t272 -53.5l143 901q-197 0 -288.5 -53.5t-110.5 -171.5zM856 266q197 0 288.5 53t110.5 170l72 453q19 118 -56 171.5t-272 53.5z" />
<glyph unicode="&#x425;" horiz-adv-x="1181" d="M45 6l541 721l-303 700q53 11 98 11q20 0 43.5 -3t37.5 -5l13 -3l248 -593l434 593q53 11 100 11q20 0 43.5 -3t36.5 -5l13 -3l-525 -700l314 -721q-56 -10 -101 -10q-19 0 -42 2.5t-36 5.5l-14 2l-258 612l-452 -612q-54 -10 -99 -10q-20 0 -43 2.5t-36 5.5z" />
<glyph unicode="&#x426;" horiz-adv-x="1357" d="M129 14l223 1413q45 11 90 11q21 0 42.5 -3t32.5 -5l11 -3l-204 -1306h645l207 1306q45 11 90 11q20 0 41.5 -3t32.5 -5l12 -3l-207 -1306q48 0 89 -2t58 -4l17 -2l-62 -398q-37 -10 -76 -10q-16 0 -33 2.5t-26 4.5l-10 3l45 285h-604q-110 0 -213.5 3.5t-151.5 6.5z" />
<glyph unicode="&#x427;" horiz-adv-x="1206" d="M262 887l86 538q45 11 90 11q20 0 41.5 -3t32.5 -5l12 -3l-84 -538q-19 -110 27 -160.5t180 -50.5q72 0 137 10t106.5 24t72.5 28.5t45 24.5t14 11l102 651q48 11 93 11q20 0 41.5 -3t33.5 -5l11 -3l-226 -1419q-45 -10 -90 -10q-20 0 -41.5 2.5t-33.5 5.5l-11 2l103 649 q-7 -4 -19.5 -11t-54.5 -24t-88 -30t-118 -24t-146 -11q-195 0 -268.5 84t-47.5 248z" />
<glyph unicode="&#x428;" horiz-adv-x="1794" d="M129 14l223 1413q45 11 92 11q20 0 41.5 -3t32.5 -5l12 -3l-206 -1306h503l207 1306q45 11 90 11q21 0 42.5 -3t32.5 -5l11 -3l-204 -1306h503l207 1306q45 11 90 11q20 0 41.5 -3t32.5 -5l12 -3l-225 -1413q-164 -14 -412 -14h-712q-110 0 -213.5 3.5t-151.5 6.5z" />
<glyph unicode="&#x429;" horiz-adv-x="1898" d="M129 16l223 1411q45 11 92 11q20 0 41.5 -3t32.5 -5l12 -3l-206 -1306h503l207 1306q45 11 90 11q21 0 42.5 -3t32.5 -5l11 -3l-204 -1306h503l207 1306q45 11 90 11q20 0 41.5 -3t32.5 -5l12 -3l-206 -1306q46 0 87 -2t59 -4l17 -2l-61 -398q-37 -10 -76 -10 q-16 0 -33.5 2.5t-26.5 4.5l-10 3l46 285h-1145q-110 0 -213.5 4t-151.5 8z" />
<glyph unicode="&#x42a;" horiz-adv-x="1458" d="M268 1313q-4 24 2 59q3 16 7.5 31.5t8.5 22.5l3 8h125q110 0 212.5 -4t149.5 -8l47 -3l-94 -592q119 9 285 9q248 0 346.5 -90.5t71.5 -266.5l-23 -133q-27 -175 -153.5 -264.5t-374.5 -89.5q-120 0 -234.5 4.5t-168.5 9.5l-54 4l205 1303h-361zM614 111h285 q161 0 238 56t96 179l20 133q21 124 -38 180t-220 56h-284z" />
<glyph unicode="&#x42b;" horiz-adv-x="1552" d="M129 10l223 1417q45 11 92 11q19 0 40.5 -3t33.5 -5l12 -3l-96 -600q119 9 285 9q248 0 346.5 -90.5t71.5 -266.5l-21 -133q-29 -175 -155.5 -264.5t-374.5 -89.5q-120 0 -234 4.5t-168 9.5zM322 111h282q161 0 238 56t96 179l20 133q21 124 -38 180t-220 56h-284z M1247 6l226 1421q45 11 90 11q21 0 42.5 -3t32.5 -5l11 -3l-226 -1421q-45 -10 -90 -10q-20 0 -41.5 2.5t-33.5 5.5z" />
<glyph unicode="&#x42c;" horiz-adv-x="1163" d="M129 10l223 1417q45 11 92 11q19 0 40.5 -3t33.5 -5l12 -3l-96 -600q119 9 285 9q248 0 346.5 -90.5t71.5 -266.5l-21 -133q-29 -175 -155.5 -264.5t-374.5 -89.5q-120 0 -234 4.5t-168 9.5zM322 111h282q161 0 238 56t96 179l20 133q21 124 -38 180t-220 56h-284z" />
<glyph unicode="&#x42d;" horiz-adv-x="1191" d="M145 106q-2 17 2 33q3 17 8.5 32.5t10.5 22.5l4 7q-1 -1 15.5 -10t52 -22.5t81.5 -26.5t115.5 -22t143.5 -9q184 0 265.5 52.5t100.5 170.5l51 336h-489q-6 22 0 59q3 16 7.5 31.5t7.5 23.5l3 7h492l49 309q19 118 -41.5 170.5t-232.5 52.5q-174 0 -252 -52.5t-97 -170.5 l-4 -29q-41 -10 -82 -10q-18 0 -37.5 2.5t-29.5 4.5l-10 3l4 29q14 85 47 146.5t94 107t157 68t228 22.5q259 0 359 -86.5t73 -257.5l-121 -766q-27 -171 -159 -257.5t-400 -86.5q-79 0 -150 9t-116.5 21.5t-80 25t-49.5 21.5l-15 9q-1 3 -2 8t-3 22z" />
<glyph unicode="&#x42e;" horiz-adv-x="1648" d="M127 6l225 1421q45 11 92 11q20 0 41.5 -3t32.5 -5l12 -3l-102 -632h287l47 305q27 170 152 257t370 87t341.5 -87t70.5 -257l-121 -766q-29 -170 -153 -257t-369 -87t-342 87t-70 257l53 340h-284l-105 -668q-47 -10 -90 -10q-21 0 -43 2.5t-34 5.5zM819 334 q-19 -116 38 -169.5t214 -53.5q158 0 232.5 53t93.5 170l121 766q19 116 -38 169.5t-214 53.5q-158 0 -232.5 -53t-93.5 -170z" />
<glyph unicode="&#x42f;" horiz-adv-x="1171" d="M74 6l444 623q-310 49 -264 346l18 110q29 176 155.5 266.5t375.5 90.5q122 0 238 -5t171 -9l56 -5l-226 -1417q-45 -10 -90 -10q-19 0 -40.5 2.5t-33.5 5.5l-12 2l99 621q-117 -9 -281 -9l-426 -612q-51 -10 -96 -10q-21 0 -43 2.5t-33 5.5zM430 975q-19 -124 40 -180 t220 -56h291l94 584h-291q-162 0 -238.5 -57t-94.5 -181z" />
<glyph unicode="&#x430;" horiz-adv-x="1056" d="M172 315l64 394q26 161 119.5 243t275.5 82q65 0 117.5 -10t79.5 -22t47 -29t24.5 -24.5t7.5 -14.5l13 84q43 10 86 10q19 0 39.5 -2.5t30.5 -5.5l11 -2l-159 -1012q-43 -10 -86 -10q-20 0 -40.5 2.5t-31.5 5.5l-10 2l12 82q-5 -4 -15.5 -10.5t-45 -23.5t-73 -30 t-98 -23.5t-120.5 -10.5q-158 0 -216 82t-32 243zM342 315q-18 -112 15 -162.5t135 -50.5q57 0 109 10t84.5 25t57 29.5t35.5 24.5l10 10l82 508q18 112 -32 162.5t-191 50.5q-117 0 -171.5 -50.5t-69.5 -162.5z" />
<glyph unicode="&#x431;" horiz-adv-x="1075" d="M172 315l123 777q26 160 138.5 241.5t338.5 81.5q90 0 173 10.5t121 21.5l38 11q4 -22 0 -57q-3 -15 -7.5 -29t-8.5 -22l-3 -7l-39 -9q-38 -10 -120 -20.5t-168 -10.5q-144 0 -209.5 -50t-83.5 -161l-27 -156q6 4 16.5 10.5t47 23.5t76.5 30t101.5 23.5t125.5 10.5 q164 0 224 -82t34 -243l-64 -394q-26 -161 -137.5 -243t-329.5 -82q-216 0 -301 82t-59 243zM342 315q-18 -111 29.5 -162t181.5 -51t197 51t81 162l64 394q18 112 -17.5 162.5t-144.5 50.5q-60 0 -114 -10.5t-88 -25t-60 -29.5t-37 -25l-12 -11z" />
<glyph unicode="&#x432;" horiz-adv-x="1019" d="M129 10l158 1004q162 18 391 18q194 0 271.5 -68t56.5 -200l-5 -29q-25 -153 -174 -209q169 -50 144 -227l-6 -29q-23 -137 -131 -207.5t-322 -70.5q-96 0 -192 4.5t-144 9.5zM311 104h219q129 0 191 41.5t76 124.5l4 29q12 85 -36 125.5t-177 40.5h-219zM387 580h219 q109 0 161.5 38t66.5 117l4 29q11 79 -29.5 117.5t-149.5 38.5h-219z" />
<glyph unicode="&#x433;" horiz-adv-x="823" d="M127 6l160 1004q165 14 413 14h211q6 -22 0 -57q-2 -15 -6.5 -29t-8.5 -20l-3 -7h-453l-143 -905q-45 -10 -86 -10q-20 0 -41 2.5t-32 5.5z" />
<glyph unicode="&#x434;" horiz-adv-x="1206" d="M29 -244l55 346q99 7 144.5 58t80.5 172l197 678q130 18 325 18q88 0 169 -4.5t118 -9.5l37 -4l-141 -897q39 0 74.5 -2.5t51.5 -4.5l15 -2l-55 -348q-37 -10 -74 -10q-16 0 -34 2.5t-28 5.5l-10 2l41 244h-782l-39 -244q-37 -10 -74 -10q-16 0 -34 2.5t-28 5.5zM354 113 h492l125 798h-340l-166 -581q-44 -155 -111 -217z" />
<glyph unicode="&#x435;" d="M172 315l64 394q26 161 134.5 243t325.5 82q113 0 189 -21.5t115 -63t51 -102t-2 -138.5l-37 -234q-123 -16 -326 -16h-321l-23 -144q-18 -112 34 -162.5t202 -50.5q96 0 185 18t130 36l41 18q1 -2 2 -7t2 -20t-2 -30q-2 -15 -7 -29t-9 -20l-5 -7q-5 -3 -15 -7.5 t-44.5 -17t-72.5 -22t-99 -17t-125 -7.5q-232 0 -322.5 82t-64.5 243zM381 571h485l23 138q18 112 -28.5 162.5t-180.5 50.5q-135 0 -197 -50.5t-77 -162.5z" />
<glyph unicode="&#x436;" horiz-adv-x="1388" d="M45 6l393 533l-207 479q41 10 84 10q21 0 43.5 -2.5t35.5 -5.5l12 -2l184 -422l106 -47l74 469q43 10 86 10q19 0 39.5 -2.5t31.5 -5.5l11 -2l-72 -469l121 47l316 422q47 10 94 10q19 0 39 -2.5t30 -5.5l11 -2l-359 -479l225 -533q-43 -10 -88 -10q-19 0 -41.5 2.5 t-35.5 5.5l-13 2l-198 471l-121 -47l-68 -424q-43 -10 -86 -10q-19 0 -39.5 2.5t-31.5 5.5l-11 2l66 424l-105 47l-348 -471q-51 -10 -94 -10q-20 0 -41 2.5t-32 5.5z" />
<glyph unicode="&#x437;" horiz-adv-x="999" d="M155 88q-1 15 1 29q3 16 8.5 30t9.5 21l4 6q12 -8 36.5 -20t106 -32t171.5 -20q138 0 202 41.5t78 126.5l4 31q13 81 -35.5 121.5t-175.5 40.5h-131q-1 2 -1.5 6.5t-1.5 18.5t1 28q3 16 7.5 29.5t8.5 19.5l3 6h131q112 0 166.5 41t66.5 125l4 27q12 80 -28.5 119 t-147.5 39q-120 0 -175 -38t-67 -120l-4 -19q-36 -10 -75 -10q-16 0 -34 2.5t-28 4.5l-10 3l4 19q21 136 114 203t294 67q194 0 271 -68.5t56 -201.5l-4 -27q-29 -162 -176 -219q162 -46 137 -217l-6 -31q-23 -138 -133.5 -209t-331.5 -71q-60 0 -115 7.5t-90 17.5 t-61.5 20.5t-38.5 18.5l-12 7q-1 3 -1.5 7.5t-1.5 19.5z" />
<glyph unicode="&#x438;" horiz-adv-x="1089" d="M127 6l160 1012q43 10 88 10q19 0 39.5 -2.5t31.5 -5.5l11 -2l-121 -756l633 756q39 10 78 10q17 0 35.5 -2.5t27.5 -5.5l10 -2l-159 -1012q-44 -10 -87 -10q-19 0 -39.5 2.5t-30.5 5.5l-11 2l118 756l-630 -756q-41 -10 -78 -10q-18 0 -37 2.5t-29 5.5z" />
<glyph unicode="&#x439;" horiz-adv-x="1089" d="M127 6l160 1012q43 10 88 10q19 0 39.5 -2.5t31.5 -5.5l11 -2l-121 -756l633 756q39 10 78 10q17 0 35.5 -2.5t27.5 -5.5l10 -2l-159 -1012q-44 -10 -87 -10q-19 0 -39.5 2.5t-30.5 5.5l-11 2l118 756l-630 -756q-41 -10 -78 -10q-18 0 -37 2.5t-29 5.5zM496 1407l4 20 q30 11 61 11q14 0 27.5 -3t20.5 -5l7 -3l-4 -22q-11 -68 18 -97.5t115 -29.5q85 0 123.5 29.5t49.5 97.5l4 22q30 11 61 11q13 0 26.5 -3t20.5 -5l8 -3l-4 -20q-16 -108 -84 -160.5t-217 -52.5t-201 52.5t-36 160.5z" />
<glyph unicode="&#x43a;" horiz-adv-x="968" d="M127 6l160 1012q43 10 88 10q19 0 39.5 -2.5t31.5 -5.5l11 -2l-72 -451l133 35l365 416q47 10 92 10q20 0 41 -2.5t32 -5.5l11 -2l-408 -473l273 -539q-43 -10 -90 -10q-19 0 -41.5 2.5t-34.5 5.5l-13 2l-245 477l-133 -34l-70 -443q-45 -10 -86 -10q-20 0 -41 2.5 t-32 5.5z" />
<glyph unicode="&#x43b;" horiz-adv-x="1097" d="M68 -10q-6 22 0 57q2 15 6 28.5t7 20.5l3 6q86 0 126 49.5t77 174.5l188 684q133 18 330 18q87 0 167.5 -4.5t117.5 -9.5l38 -4l-157 -1004q-43 -10 -86 -10q-20 0 -41 2.5t-32 5.5l-11 2l145 905h-344l-160 -585q-24 -86 -51.5 -143.5t-70 -103.5t-104.5 -67.5 t-148 -21.5z" />
<glyph unicode="&#x43c;" horiz-adv-x="1335" d="M127 6l160 1012q0 1 15 3.5t41.5 4.5t51.5 2t51.5 -2.5t39.5 -5.5l14 -2l213 -713l442 713q52 10 107 10q25 0 51.5 -2.5t40.5 -5.5l14 -2l-160 -1012q-41 -10 -80 -10q-17 0 -35.5 2.5t-28.5 5.5l-9 2l127 797l-416 -660q-35 -8 -80 -8q-19 0 -39 2t-31 4l-10 2 l-198 660l-127 -797q-41 -10 -78 -10q-18 0 -37 2.5t-29 5.5z" />
<glyph unicode="&#x43d;" horiz-adv-x="1081" d="M127 6l160 1012q43 10 88 10q19 0 39.5 -2.5t31.5 -5.5l11 -2l-68 -432h488l67 432q43 10 86 10q19 0 39.5 -2.5t31.5 -5.5l11 -2l-160 -1012q-43 -10 -86 -10q-19 0 -39.5 2.5t-31.5 5.5l-11 2l74 465h-487l-74 -465q-45 -10 -86 -10q-20 0 -41 2.5t-32 5.5z" />
<glyph unicode="&#x43e;" horiz-adv-x="1081" d="M172 315l64 394q26 161 138 243t331 82q218 0 304 -82.5t60 -242.5l-61 -394q-26 -160 -138.5 -242.5t-330.5 -82.5q-219 0 -306 82.5t-61 242.5zM342 315q-18 -111 31 -162t184 -51t199 51t82 162l63 394q18 111 -31 162t-184 51t-200 -51t-80 -162q0 1 -16 -97.5 t-32 -197.5z" />
<glyph unicode="&#x43f;" horiz-adv-x="1081" d="M127 6l160 1004q167 18 415 18q110 0 213 -4.5t151 -9.5l48 -4l-160 -1004q-43 -10 -86 -10q-19 0 -39.5 2.5t-31.5 5.5l-11 2l144 905h-490l-143 -905q-45 -10 -86 -10q-20 0 -41 2.5t-32 5.5z" />
<glyph unicode="&#x440;" d="M61 -403l226 1421q43 10 88 10q19 0 39.5 -2.5t31.5 -5.5l11 -2l-15 -82q6 4 16.5 10.5t45.5 23.5t74 30t99 23.5t122 10.5q159 0 217.5 -82t32.5 -243l-64 -394q-26 -161 -121.5 -243t-281.5 -82q-65 0 -117 10t-79.5 24t-46.5 28t-25 24l-5 10l-78 -489 q-43 -11 -86 -11q-19 0 -40 3t-33 5zM346 315q-18 -112 32.5 -162.5t192.5 -50.5q118 0 173 50.5t73 162.5l64 394q18 112 -16.5 162.5t-137.5 50.5q-58 0 -110.5 -10.5t-85.5 -25t-58 -29.5t-36 -25l-11 -11z" />
<glyph unicode="&#x441;" horiz-adv-x="1017" d="M172 315l64 394q26 161 132.5 243t319.5 82q211 0 285.5 -81t48.5 -244l-4 -27q-39 -10 -78 -10q-17 0 -36 2.5t-30 5.5l-10 2l6 27q18 112 -26 162.5t-174 50.5q-129 0 -189 -50.5t-75 -162.5l-64 -394q-18 -112 32 -162.5t195 -50.5q91 0 175.5 18t123.5 36l39 18 q1 -2 2 -7t2 -20t-2 -30q-2 -15 -7 -29t-9 -20l-4 -7q-5 -3 -14.5 -7.5t-42.5 -17t-69.5 -22t-94.5 -17t-119 -7.5q-227 0 -315 82t-62 243z" />
<glyph unicode="&#x442;" horiz-adv-x="968" d="M214 938q-1 15 1 29q3 16 8 30t9 21l4 6h815q6 -22 0 -57q-2 -15 -6 -29t-7 -20l-4 -7h-321l-144 -905q-45 -10 -86 -10q-20 0 -41 2.5t-32 5.5l-11 2l146 905h-328q-1 3 -1.5 7.5t-1.5 19.5z" />
<glyph unicode="&#x443;" horiz-adv-x="1044" d="M74 -377.5q-1 14.5 2 27.5q3 15 7.5 28.5t7.5 19.5l3 7q37 -12 103 -12q67 0 115.5 39t90.5 123l76 143q-12 0 -24.5 2t-19.5 4l-7 2l-205 1012q45 10 84 10q18 0 39 -2.5t33 -5.5l12 -2l162 -868l436 868q47 10 88 10q18 0 38 -2.5t31 -5.5l11 -2l-602 -1159 q-72 -144 -158 -211.5t-215 -67.5q-29 0 -55 4t-37 8l-12 5q-1 2 -2 6.5t-2 19z" />
<glyph unicode="&#x444;" horiz-adv-x="1398" d="M172 315l64 394q26 161 155 243t387 82l62 393q43 11 86 11q20 0 41 -3t32 -5l11 -3l-64 -393q257 0 361.5 -82.5t78.5 -242.5l-63 -394q-26 -161 -155.5 -243t-387.5 -82l-61 -393q-43 -11 -86 -11q-19 0 -40 3t-33 5l-11 3l63 393q-258 0 -362 82t-78 243zM342 315 q-18 -111 47.5 -162t241.5 -51l129 820q-175 0 -257 -51t-97 -162zM799 102q176 0 257 51t99 162l64 394q15 112 -50 162.5t-239 50.5z" />
<glyph unicode="&#x445;" horiz-adv-x="997" d="M45 6l432 516l-260 496q47 10 90 10q19 0 41 -2.5t34 -5.5l13 -2l201 -397l326 397q49 10 92 10q19 0 40.5 -2.5t33.5 -5.5l12 -2l-414 -496l268 -516q-49 -10 -92 -10q-17 0 -38.5 2.5t-34.5 5.5l-13 2l-211 416l-344 -416q-51 -10 -92 -10q-18 0 -39 2.5t-33 5.5z" />
<glyph unicode="&#x446;" horiz-adv-x="1165" d="M129 14l158 1004q43 10 88 10q19 0 39.5 -2.5t31.5 -5.5l11 -2l-144 -905h490l143 905q43 10 86 10q19 0 39.5 -2.5t31.5 -5.5l11 -2l-143 -905q42 0 78 -2.5t51 -4.5l16 -2l-55 -348q-37 -10 -74 -10q-16 0 -34 2.5t-28 5.5l-10 2l39 244h-411q-110 0 -213.5 3.5 t-151.5 6.5z" />
<glyph unicode="&#x447;" horiz-adv-x="1026" d="M219 680l51 338q43 10 88 10q19 0 39.5 -2.5t31.5 -5.5l11 -2l-53 -338q-16 -100 17 -146.5t133 -46.5q55 0 105 10.5t82 25.5t56 29.5t34 25.5l11 10l68 430q45 10 86 10q19 0 39.5 -2.5t31.5 -5.5l11 -2l-160 -1012q-43 -10 -84 -10q-19 0 -39.5 2.5t-31.5 5.5l-11 2 l74 467q-5 -4 -15.5 -10.5t-44.5 -23.5t-71.5 -30t-96 -23.5t-118.5 -10.5q-156 0 -213 76.5t-31 228.5z" />
<glyph unicode="&#x448;" horiz-adv-x="1558" d="M129 14l158 1004q43 10 88 10q19 0 39.5 -2.5t31.5 -5.5l11 -2l-144 -905h400l141 905q43 10 86 10q20 0 41 -2.5t32 -5.5l11 -2l-143 -905h397l143 905q45 10 86 10q19 0 39.5 -2.5t31.5 -5.5l11 -2l-157 -1004q-166 -14 -414 -14h-475q-110 0 -213.5 3.5t-151.5 6.5z " />
<glyph unicode="&#x449;" horiz-adv-x="1642" d="M129 14l158 1004q43 10 88 10q19 0 39.5 -2.5t31.5 -5.5l11 -2l-144 -905h400l141 905q43 10 86 10q20 0 41 -2.5t32 -5.5l11 -2l-143 -905h397l143 905q45 10 86 10q19 0 39.5 -2.5t31.5 -5.5l11 -2l-141 -905q40 0 76 -2.5t52 -4.5l15 -2l-55 -348q-37 -10 -74 -10 q-16 0 -34 2.5t-28 5.5l-9 2l41 244h-889q-110 0 -213.5 3.5t-151.5 6.5z" />
<glyph unicode="&#x44a;" horiz-adv-x="1222" d="M213 911q-6 23 0 56q2 16 6.5 30t8.5 21l3 6h105q93 0 179.5 -4t126.5 -8l40 -4l-64 -396q93 11 226 11q191 0 266.5 -73t52.5 -214l-10 -57q-23 -142 -122.5 -214.5t-295.5 -72.5q-103 0 -198 4.5t-139 9.5l-44 4l144 901h-285zM537 104h217q111 0 164 42.5t67 132.5 l8 57q15 90 -25 132t-151 42h-215z" />
<glyph unicode="&#x44b;" horiz-adv-x="1363" d="M129 10l158 1008q43 10 88 10q18 0 38.5 -2.5t32.5 -5.5l11 -2l-64 -406q92 11 225 11q191 0 266.5 -73t53.5 -214l-10 -57q-23 -141 -123 -214t-295 -73q-103 0 -198 4.5t-139 9.5zM311 104h215q111 0 165.5 42.5t68.5 132.5l8 57q15 90 -25 132t-151 42h-215zM1067 6 l160 1012q43 10 86 10q20 0 40.5 -2.5t30.5 -5.5l11 -2l-160 -1012q-43 -10 -86 -10q-19 0 -39.5 2.5t-31.5 5.5z" />
<glyph unicode="&#x44c;" horiz-adv-x="997" d="M129 10l158 1008q43 10 88 10q18 0 38.5 -2.5t32.5 -5.5l11 -2l-64 -406q92 11 225 11q191 0 266.5 -73t53.5 -214l-10 -57q-23 -141 -123 -214t-295 -73q-103 0 -198 4.5t-139 9.5zM311 104h215q111 0 165.5 42.5t68.5 132.5l8 57q15 90 -25 132t-151 42h-215z" />
<glyph unicode="&#x44d;" horiz-adv-x="1024" d="M152 88q-1 15 2 29q2 16 7 30t9 21l4 6q12 -8 35.5 -20t104.5 -32t171 -20q145 0 211 50.5t84 162.5l23 140h-397q-6 22 0 57q2 15 6 28.5t7 19.5l3 7h399l23 142q18 112 -27 162.5t-176 50.5q-130 0 -190 -46.5t-76 -146.5l-2 -16q-39 -11 -78 -11q-16 0 -34 3t-28 5 l-10 3l4 16q23 154 122 229.5t310 75.5q214 0 296.5 -82t56.5 -243l-62 -394q-26 -161 -140 -243t-343 -82q-59 0 -113 7.5t-88.5 17.5t-60.5 20.5t-37 18.5l-12 7q-1 3 -2 7.5t-2 19.5z" />
<glyph unicode="&#x44e;" horiz-adv-x="1413" d="M127 6l160 1012q43 10 88 10q19 0 39.5 -2.5t31.5 -5.5l11 -2l-68 -432h234l20 123q26 161 128.5 243t301.5 82q200 0 278 -82.5t52 -242.5l-64 -394q-26 -161 -129 -243t-303 -82q-199 0 -276 82t-51 243l24 156h-233l-74 -465q-45 -10 -86 -10q-20 0 -41 2.5t-32 5.5z M748 315q-18 -111 22.5 -162t155.5 -51t171 51t74 162l62 394q18 111 -22.5 162t-155.5 51q-113 0 -169.5 -51t-74.5 -162z" />
<glyph unicode="&#x44f;" horiz-adv-x="1013" d="M76 6l342 410q-123 21 -170.5 89t-28.5 183l8 57q24 140 124 211.5t296 71.5q103 0 202 -4.5t147 -9.5l48 -4l-159 -1006q-43 -10 -86 -10q-19 0 -39.5 2.5t-31.5 5.5l-11 2l63 404h-215l-311 -402q-49 -10 -92 -10q-20 0 -41.5 2.5t-32.5 5.5zM387 688 q-12 -89 27.5 -128.5t150.5 -39.5h234l61 393h-231q-112 0 -165 -40t-67 -128z" />
<glyph unicode="&#x450;" d="M172 315l64 394q26 161 134.5 243t325.5 82q113 0 189 -21.5t115 -63t51 -102t-2 -138.5l-37 -234q-123 -16 -326 -16h-321l-23 -144q-18 -112 34 -162.5t202 -50.5q96 0 185 18t130 36l41 18q1 -2 2 -7t2 -20t-2 -30q-2 -15 -7 -29t-9 -20l-5 -7q-5 -3 -15 -7.5 t-44.5 -17t-72.5 -22t-99 -17t-125 -7.5q-232 0 -322.5 82t-64.5 243zM381 571h485l23 138q18 112 -28.5 162.5t-180.5 50.5q-135 0 -197 -50.5t-77 -162.5zM520 1427q41 11 82 11q19 0 39 -3t31 -5l10 -3l174 -258q-28 -10 -59 -10q-12 0 -25.5 2.5t-21.5 4.5l-7 3z" />
<glyph unicode="&#x451;" d="M172 315l64 394q26 161 134.5 243t325.5 82q113 0 189 -21.5t115 -63t51 -102t-2 -138.5l-37 -234q-123 -16 -326 -16h-321l-23 -144q-18 -112 34 -162.5t202 -50.5q96 0 185 18t130 36l41 18q1 -2 2 -7t2 -20t-2 -30q-2 -15 -7 -29t-9 -20l-5 -7q-5 -3 -15 -7.5 t-44.5 -17t-72.5 -22t-99 -17t-125 -7.5q-232 0 -322.5 82t-64.5 243zM381 571h485l23 138q18 112 -28.5 162.5t-180.5 50.5q-135 0 -197 -50.5t-77 -162.5zM434 1178l31 202q33 11 72 11q16 0 32.5 -2.5t24.5 -5.5l8 -3l-33 -202q-32 -11 -69 -11q-17 0 -33.5 2.5 t-24.5 5.5zM864 1178l31 202q33 11 72 11q16 0 32.5 -2.5t24.5 -5.5l8 -3l-33 -202q-32 -11 -69 -11q-17 0 -33.5 2.5t-24.5 5.5z" />
<glyph unicode="&#x452;" horiz-adv-x="1134" d="M195 6l188 1186h-109q-4 18 0 51q2 15 6 28t8 19l3 6h117l36 131q37 11 74 11q16 0 33.5 -3t26.5 -5l10 -3l-21 -131h359q6 -20 0 -53q-2 -14 -6 -26.5t-8 -18.5l-3 -6h-358l-41 -256q6 4 16.5 10.5t46 23.5t74.5 30t100 23.5t123 10.5q161 0 219.5 -82t32.5 -243 l-135 -850q-23 -139 -95 -209t-212 -70q-66 0 -162 25q-4 22 0 53q2 13 6 25.5t8 18.5l3 7q61 -16 108 -16q83 0 122.5 39.5t51.5 126.5l135 850q18 113 -15.5 163t-139.5 50q-59 0 -111.5 -10.5t-86 -25t-58.5 -29.5t-36 -25l-11 -11l-132 -815q-43 -10 -86 -10 q-19 0 -39.5 2.5t-30.5 5.5z" />
<glyph unicode="&#x453;" horiz-adv-x="823" d="M127 6l160 1004q165 14 413 14h211q6 -22 0 -57q-2 -15 -6.5 -29t-8.5 -20l-3 -7h-453l-143 -905q-45 -10 -86 -10q-20 0 -41 2.5t-32 5.5zM489 1169l256 258q39 11 82 11q18 0 38 -3t31 -5l11 -3l-305 -258q-30 -10 -59 -10q-14 0 -27.5 2.5t-19.5 4.5z" />
<glyph unicode="&#x454;" horiz-adv-x="1028" d="M172 315l64 394q26 161 133 243t321 82q110 0 183 -20t111 -59t49.5 -96t-1.5 -130l-4 -16q-39 -11 -78 -11q-17 0 -35.5 3t-28.5 5l-9 3l2 16q16 100 -29.5 146.5t-175.5 46.5q-131 0 -192 -50.5t-76 -162.5l-25 -138h436q6 -22 0 -57q-2 -15 -6.5 -28.5t-8.5 -19.5 l-3 -7h-434l-23 -144q-18 -112 32 -162.5t197 -50.5q92 0 177.5 18t125.5 36l39 18q1 -2 2 -7t2 -20t-2 -30q-2 -15 -7 -29t-9 -20l-4 -7q-5 -3 -14.5 -7.5t-42.5 -17t-70 -22t-95.5 -17t-119.5 -7.5q-229 0 -318 82t-63 243z" />
<glyph unicode="&#x455;" horiz-adv-x="1017" d="M151.5 165.5q-11.5 57.5 2.5 131.5v12q43 10 86 10q19 0 39 -2.5t30 -4.5l10 -3l-2 -12q-15 -101 29.5 -148t171.5 -47t185.5 40.5t72.5 129.5l6 41q7 42 -23 71.5t-72.5 43.5t-113.5 29q-44 9 -71 14.5t-70.5 18t-70.5 24.5t-58 31.5t-47.5 42t-25.5 53.5t-3 68l9 41 q23 142 124 213t308 71q211 0 284 -76.5t47 -232.5l-2 -12q-41 -11 -84 -11q-19 0 -39 3t-30 5l-10 3l2 12q15 103 -26 150t-159 47q-121 0 -178.5 -41.5t-71.5 -130.5l-6 -41q-3 -20 2 -36.5t20 -29t30.5 -21.5t43.5 -17.5t48 -13.5t55 -13q46 -9 74 -15.5t73 -19.5 t73 -25.5t60 -33t49 -44t26 -56.5t3 -71l-6 -41q-23 -141 -128 -212.5t-318 -71.5q-112 0 -186.5 20.5t-112.5 60t-49.5 97z" />
<glyph unicode="&#x456;" horiz-adv-x="423" d="M127 6l160 1012q43 10 88 10q19 0 39.5 -2.5t31.5 -5.5l11 -2l-160 -1012q-45 -10 -86 -10q-20 0 -41 2.5t-32 5.5zM319 1212l33 215q43 11 88 11q19 0 39.5 -3t31.5 -5l11 -3l-33 -215q-45 -10 -88 -10q-19 0 -39.5 2.5t-31.5 5.5z" />
<glyph unicode="&#x457;" horiz-adv-x="423" d="M127 6l160 1012q43 10 88 10q19 0 39.5 -2.5t31.5 -5.5l11 -2l-160 -1012q-45 -10 -86 -10q-20 0 -41 2.5t-32 5.5zM178 1225l31 202q33 11 72 11q17 0 33.5 -3t23.5 -5l8 -3l-31 -202q-32 -11 -71 -11q-17 0 -33.5 3t-24.5 5zM496 1225l32 202q33 11 70 11q17 0 34 -3 t26 -5l8 -3l-33 -202q-33 -11 -70 -11q-17 0 -34 3t-25 5z" />
<glyph unicode="&#x458;" horiz-adv-x="450" d="M-169 -369.5q-1 14.5 1 27.5q3 13 7.5 25.5t7.5 18.5l3 7q53 -16 109 -16q82 0 121 40t51 126l182 1159q43 10 88 10q19 0 39.5 -2.5t31.5 -5.5l11 -2l-184 -1159q-21 -138 -93.5 -208.5t-209.5 -70.5q-66 0 -162 25q-1 2 -1.5 6.5t-1.5 19zM346 1212l33 215q43 11 88 11 q19 0 39.5 -3t31.5 -5l11 -3l-33 -215q-45 -10 -88 -10q-19 0 -39.5 2.5t-31.5 5.5z" />
<glyph unicode="&#x459;" horiz-adv-x="1671" d="M68 -10q-6 22 0 57q2 15 6 28.5t7 20.5l3 6q86 0 126 49.5t77 174.5l188 684q133 18 330 18q87 0 167.5 -4.5t117.5 -9.5l38 -4l-61 -398q92 11 225 11q191 0 266.5 -73t53.5 -214l-10 -57q-23 -141 -123 -214t-295 -73q-103 0 -198 4.5t-139 9.5l-44 4l143 901h-344 l-160 -585q-24 -86 -51.5 -143.5t-70 -103.5t-104.5 -67.5t-148 -21.5zM985 104h215q111 0 165.5 42.5t68.5 132.5l8 57q15 90 -25 132t-151 42h-217z" />
<glyph unicode="&#x45a;" horiz-adv-x="1652" d="M127 6l160 1012q43 10 88 10q19 0 39.5 -2.5t31.5 -5.5l11 -2l-68 -432h488l67 432q43 10 86 10q19 0 39.5 -2.5t31.5 -5.5l11 -2l-63 -406q94 11 225 11q192 0 267 -72.5t52 -214.5l-8 -57q-24 -142 -124 -214.5t-296 -72.5q-103 0 -198 4.5t-139 9.5l-44 4l74 461h-487 l-74 -465q-45 -10 -86 -10q-20 0 -41 2.5t-32 5.5zM969 104h215q111 0 164 42.5t67 132.5l10 57q14 90 -26.5 132t-151.5 42h-215z" />
<glyph unicode="&#x45b;" horiz-adv-x="1134" d="M195 6l188 1186h-109q-4 18 0 51q2 15 6 28t8 19l3 6h117l36 131q37 11 74 11q16 0 33.5 -3t26.5 -5l10 -3l-21 -131h359q6 -20 0 -53q-2 -14 -6 -26.5t-8 -18.5l-3 -6h-358l-41 -256q6 4 16.5 10.5t46 23.5t74.5 30t100 23.5t123 10.5q161 0 219.5 -82t32.5 -243 l-112 -703q-43 -10 -86 -10q-19 0 -39.5 2.5t-31.5 5.5l-11 2l110 703q18 113 -15.5 163t-139.5 50q-59 0 -111.5 -10.5t-86 -25t-58.5 -29.5t-36 -25l-11 -11l-132 -815q-43 -10 -86 -10q-19 0 -39.5 2.5t-30.5 5.5z" />
<glyph unicode="&#x45c;" horiz-adv-x="968" d="M127 6l160 1012q43 10 88 10q19 0 39.5 -2.5t31.5 -5.5l11 -2l-72 -451l133 35l365 416q47 10 92 10q20 0 41 -2.5t32 -5.5l11 -2l-408 -473l273 -539q-43 -10 -90 -10q-19 0 -41.5 2.5t-34.5 5.5l-13 2l-245 477l-133 -34l-70 -443q-45 -10 -86 -10q-20 0 -41 2.5 t-32 5.5zM528 1169l256 258q39 11 82 11q18 0 38 -3t31 -5l11 -3l-305 -258q-32 -10 -59 -10q-14 0 -27.5 2.5t-20.5 4.5z" />
<glyph unicode="&#x45d;" horiz-adv-x="1077" d="M127 6l160 1012q43 10 88 10q19 0 39.5 -2.5t31.5 -5.5l11 -2l-121 -756l633 756q39 10 78 10q17 0 35.5 -2.5t27.5 -5.5l10 -2l-159 -1012q-44 -10 -87 -10q-19 0 -39.5 2.5t-30.5 5.5l-11 2l118 756l-630 -756q-41 -10 -78 -10q-18 0 -37 2.5t-29 5.5zM526 1427 q43 11 84 11q19 0 39 -3t31 -5l10 -3l174 -258q-28 -10 -59 -10q-12 0 -25.5 2.5t-20.5 4.5l-7 3z" />
<glyph unicode="&#x45e;" horiz-adv-x="1044" d="M74 -377.5q-1 14.5 2 27.5q3 15 7.5 28.5t7.5 19.5l3 7q37 -12 103 -12q67 0 115.5 39t90.5 123l76 143q-12 0 -24.5 2t-19.5 4l-7 2l-205 1012q45 10 84 10q18 0 39 -2.5t33 -5.5l12 -2l162 -868l436 868q47 10 88 10q18 0 38 -2.5t31 -5.5l11 -2l-602 -1159 q-72 -144 -158 -211.5t-215 -67.5q-29 0 -55 4t-37 8l-12 5q-1 2 -2 6.5t-2 19zM483 1407l4 20q29 11 60 11q14 0 28 -3t21 -5l8 -3l-4 -22q-11 -68 18 -97.5t115 -29.5q84 0 122.5 29.5t49.5 97.5l4 22q29 11 60 11q14 0 28 -3t21 -5l8 -3l-4 -20q-16 -108 -84.5 -160.5 t-218.5 -52.5q-149 0 -200.5 52.5t-35.5 160.5z" />
<glyph unicode="&#x45f;" horiz-adv-x="1081" d="M129 14l158 1004q43 10 88 10q19 0 39.5 -2.5t31.5 -5.5l11 -2l-144 -905h490l143 905q43 10 86 10q19 0 39.5 -2.5t31.5 -5.5l11 -2l-160 -1004q-133 -12 -342 -16l-37 -242q-36 -10 -73 -10q-16 0 -34 2.5t-28 5.5l-10 2l37 242q-90 2 -174.5 6t-124.5 7z" />
<glyph unicode="&#x490;" horiz-adv-x="933" d="M127 6l225 1413q164 15 412 15h176l43 252q37 10 72 10q17 0 35 -2.5t27 -5.5l9 -2l-59 -373h-555l-207 -1307q-47 -10 -90 -10q-21 0 -43 2.5t-34 5.5z" />
<glyph unicode="&#x491;" horiz-adv-x="811" d="M127 6l160 1004q152 14 377 14h84l38 244q37 10 74 10q16 0 34 -2.5t28 -5.5l10 -2l-58 -357h-434l-143 -905q-45 -10 -86 -10q-20 0 -41 2.5t-32 5.5z" />
<glyph unicode="&#x4d8;" horiz-adv-x="1216" d="M181 188q-15 64 1 146l66 424q143 18 381 18h409l52 324q19 117 -41.5 170t-233.5 53q-174 0 -251.5 -52.5t-96.5 -170.5l-4 -29q-41 -10 -82 -10q-18 0 -37.5 2.5t-29.5 4.5l-11 3l4 29q18 114 72.5 187.5t167 115t287.5 41.5q259 0 359 -86.5t73 -257.5l-121 -766 q-27 -171 -155.5 -257.5t-387.5 -86.5q-134 0 -223.5 23t-136 67t-61.5 108zM350 334q-19 -117 41 -170t230 -53q174 0 251.5 52.5t96.5 170.5l51 330h-619z" />
<glyph unicode="&#x4d9;" d="M170 176.5q-12 60.5 2 138.5l39 246q123 19 326 19h323l21 129q18 112 -34.5 162.5t-203.5 50.5q-44 0 -87 -4t-77.5 -10.5t-65 -14t-53.5 -15t-39 -14t-25 -10.5l-9 -4q1 0 -0.5 7t-3 19.5t1.5 30.5q2 15 7 29t9 20l4 7q5 3 15.5 7.5t45 17t73 22t99 17t124.5 7.5 q234 0 323.5 -82t63.5 -243l-62 -394q-26 -161 -135 -243t-328 -82q-113 0 -189 21.5t-114.5 63t-50.5 102zM334 315q-18 -112 28.5 -162.5t180.5 -50.5t195 50.5t79 162.5l25 150h-486z" />
<glyph unicode="&#x2000;" horiz-adv-x="905" />
<glyph unicode="&#x2001;" horiz-adv-x="1810" />
<glyph unicode="&#x2002;" horiz-adv-x="905" />
<glyph unicode="&#x2003;" horiz-adv-x="1810" />
<glyph unicode="&#x2004;" horiz-adv-x="603" />
<glyph unicode="&#x2005;" horiz-adv-x="452" />
<glyph unicode="&#x2006;" horiz-adv-x="301" />
<glyph unicode="&#x2007;" horiz-adv-x="301" />
<glyph unicode="&#x2008;" horiz-adv-x="226" />
<glyph unicode="&#x2009;" horiz-adv-x="362" />
<glyph unicode="&#x200a;" horiz-adv-x="100" />
<glyph unicode="&#x2010;" horiz-adv-x="598" d="M170 526q-6 21 0 56q2 16 6.5 30t7.5 20l4 7h422q4 -22 -2 -57q-2 -15 -6 -29t-7 -21l-3 -6h-422z" />
<glyph unicode="&#x2011;" horiz-adv-x="598" d="M170 526q-6 21 0 56q2 16 6.5 30t7.5 20l4 7h422q4 -22 -2 -57q-2 -15 -6 -29t-7 -21l-3 -6h-422z" />
<glyph unicode="&#x2012;" horiz-adv-x="598" d="M170 526q-6 21 0 56q2 16 6.5 30t7.5 20l4 7h422q4 -22 -2 -57q-2 -15 -6 -29t-7 -21l-3 -6h-422z" />
<glyph unicode="&#x2013;" horiz-adv-x="1007" d="M170 526q-6 21 0 56q2 16 6.5 30t7.5 20l4 7h832q4 -22 -2 -57q-2 -15 -6 -29t-8 -21l-3 -6h-831z" />
<glyph unicode="&#x2014;" horiz-adv-x="1314" d="M170 526q-6 21 0 56q2 16 6.5 30t7.5 20l4 7h1139q4 -22 -2 -57q-2 -15 -6 -29t-7 -21l-3 -6h-1139z" />
<glyph unicode="&#x2018;" horiz-adv-x="393" d="M281 1012q13 84 38.5 158t53 119t53 78t41.5 47l16 13q24 11 47 11q10 0 20.5 -3t15.5 -5l5 -3q-4 -5 -12 -15.5t-29.5 -48t-40 -81.5t-39.5 -117t-34 -153q-35 -11 -70 -11q-16 0 -32 2.5t-24 5.5z" />
<glyph unicode="&#x2019;" horiz-adv-x="393" d="M205 1012q4 5 12 15.5t29.5 48t40 81.5t39.5 117t34 153q35 11 72 11q16 0 32.5 -3t25.5 -5l8 -3q-13 -84 -39 -158t-53 -119t-52.5 -78t-41.5 -46l-17 -14q-24 -11 -47 -11q-10 0 -21 2.5t-17 5.5z" />
<glyph unicode="&#x201a;" horiz-adv-x="393" d="M14 -211q4 5 11.5 15.5t28.5 48.5t39.5 82t40 117.5t34.5 154.5q33 10 70 10q16 0 32.5 -2.5t25.5 -4.5l9 -3q-14 -85 -40 -159t-53 -119.5t-52.5 -79t-41.5 -47.5l-16 -13q-27 -10 -47 -10q-11 0 -21.5 2.5t-15.5 4.5z" />
<glyph unicode="&#x201c;" horiz-adv-x="645" d="M281 1012q13 84 38.5 158t53 119t53 78t41.5 47l16 13q24 11 47 11q10 0 20.5 -3t15.5 -5l5 -3q-4 -5 -12 -15.5t-29.5 -48t-40 -81.5t-39.5 -117t-34 -153q-35 -11 -70 -11q-16 0 -32 2.5t-24 5.5zM532 1012q13 84 39 158t53 119t52.5 78t41.5 47l17 13q24 11 47 11 q11 0 22 -3t16 -5l5 -3q-4 -5 -12 -15.5t-29.5 -48t-40 -81.5t-39.5 -117t-34 -153q-35 -11 -72 -11q-16 0 -32.5 2.5t-25.5 5.5z" />
<glyph unicode="&#x201d;" horiz-adv-x="645" d="M205 1012q4 5 12 15.5t29.5 48t40 81.5t39.5 117t34 153q35 11 72 11q16 0 32.5 -3t25.5 -5l8 -3q-13 -84 -39 -158t-53 -119t-52.5 -78t-41.5 -46l-17 -14q-24 -11 -47 -11q-10 0 -21 2.5t-17 5.5zM459 1012q4 5 12 15.5t29 48t39.5 81.5t40 117t34.5 153q35 11 70 11 q16 0 33 -3t26 -5l9 -3q-14 -84 -40 -158t-53.5 -119t-53 -78t-41.5 -46l-17 -14q-24 -11 -47 -11q-10 0 -20.5 2.5t-15.5 5.5z" />
<glyph unicode="&#x201e;" horiz-adv-x="645" d="M14 -211q4 5 11.5 15.5t28.5 48.5t39.5 82t40 117.5t34.5 154.5q33 10 70 10q16 0 32.5 -2.5t25.5 -4.5l9 -3q-14 -85 -40 -159t-53 -119.5t-52.5 -79t-41.5 -47.5l-16 -13q-27 -10 -47 -10q-11 0 -21.5 2.5t-15.5 4.5zM266 -211q4 5 12 15.5t29 48.5t39.5 82t39.5 117.5 t34 154.5q34 10 69 10q16 0 33 -2.5t26 -4.5l9 -3q-10 -62 -26.5 -118.5t-35.5 -97t-39.5 -75.5t-39 -58t-33.5 -39t-24 -23l-9 -7q-22 -10 -45 -10q-10 0 -20 2.5t-15 4.5z" />
<glyph unicode="&#x2026;" horiz-adv-x="1183" d="M125 6l35 209q39 8 82 8q19 0 39.5 -2t31.5 -4l11 -2l-33 -209q-43 -10 -84 -10q-19 0 -39.5 2.5t-31.5 5.5zM510 6l33 209q41 8 84 8q18 0 38.5 -2t32.5 -4l11 -2l-35 -209q-43 -10 -84 -10q-19 0 -39 2.5t-31 5.5zM893 6l33 209q41 8 84 8q19 0 39.5 -2t31.5 -4l11 -2 l-33 -209q-45 -10 -86 -10q-19 0 -39 2.5t-30 5.5z" />
<glyph unicode="&#x202f;" horiz-adv-x="362" />
<glyph unicode="&#x2039;" horiz-adv-x="612" d="M164 553l434 377q21 -10 41 -33q9 -11 15.5 -23t9.5 -18l2 -6l-344 -297l251 -295q-14 -24 -41 -47q-12 -11 -25.5 -19.5t-20.5 -11.5l-7 -2z" />
<glyph unicode="&#x203a;" horiz-adv-x="612" d="M119 258l340 295l-248 297q14 22 41 47q12 10 25 18.5t19 11.5l7 3l315 -377l-434 -375q-21 8 -41 33q-8 10 -14 22t-8 19z" />
<glyph unicode="&#x205f;" horiz-adv-x="452" />
<glyph unicode="&#x20ac;" horiz-adv-x="1271" d="M175 541.5q-1 14.5 1 29.5q3 16 7.5 30.5t8.5 20.5l3 7h106l27 159h-107q-6 23 0 56q3 16 7.5 30t7.5 20l4 7h106l31 199q27 170 155.5 257t385.5 87q258 0 351.5 -85.5t65.5 -258.5l-4 -29q-41 -10 -82 -10q-19 0 -39 2.5t-30 4.5l-11 3l5 29q19 118 -41 170.5 t-234 52.5q-172 0 -249.5 -52.5t-96.5 -170.5l-31 -199h510q4 -22 0 -57q-3 -15 -7.5 -29t-7.5 -21l-3 -6h-510l-25 -159h508q6 -23 0 -58q-2 -15 -6.5 -28.5t-8.5 -20.5l-3 -6h-508l-29 -182q-19 -117 45.5 -170t247.5 -53q118 0 227.5 23t160 43t50.5 24q1 -3 2 -7.5 t2 -21t-2 -33.5q-3 -16 -8.5 -32t-9.5 -23l-4 -8q-6 -3 -18.5 -9t-54.5 -21t-89 -26t-121.5 -20.5t-152.5 -9.5q-270 0 -375 87t-76 257l29 182h-107q-1 2 -1.5 6.5t-1.5 19z" />
<glyph unicode="&#x2122;" horiz-adv-x="1386" d="M272 1360q-4 14 0 37l11 37h495l2 -37q-2 -10 -5 -19.5t-5 -13.5l-2 -4h-190l-103 -641q-28 -4 -55 -4l-55 4l102 641h-195zM754 719l112 711q0 6 74 6l72 -6l121 -459l268 461q37 6 72 6l71 -6l-112 -711q-25 -6 -52 -6l-53 6l90 555l-258 -440q-22 -7 -49 -7 q-12 0 -24 1.5t-18 3.5l-5 2l-117 438l-86 -555q-26 -4 -53 -4z" />
</font>
</defs>
</svg>
