<?xml version="1.0" standalone="no"?>
<!DOCTYPE svg PUBLIC "-//W3C//DTD SVG 1.1//EN" "http://www.w3.org/Graphics/SVG/1.1/DTD/svg11.dtd" >
<svg xmlns="http://www.w3.org/2000/svg">
<metadata></metadata>
<defs>
<font id="pancetta_serif_proregular" horiz-adv-x="610" >
<font-face units-per-em="2048" ascent="1536" descent="-512" />
<missing-glyph horiz-adv-x="462" />
<glyph horiz-adv-x="0" />
<glyph horiz-adv-x="682" />
<glyph unicode=" "  horiz-adv-x="462" />
<glyph unicode="&#x09;" horiz-adv-x="462" />
<glyph unicode="&#xa0;" horiz-adv-x="462" />
<glyph unicode="!" horiz-adv-x="440" d="M131 6v205q43 10 90 10q20 0 42.5 -2.5t34.5 -4.5l13 -3v-205q-45 -10 -90 -10q-21 0 -43.5 2.5t-34.5 5.5zM133 430v997q43 11 88 11q20 0 42 -3t34 -5l12 -3v-997q-45 -10 -88 -10q-20 0 -42 2.5t-34 5.5z" />
<glyph unicode="&#x22;" horiz-adv-x="636" d="M125 1427q30 11 65 11q16 0 33 -3t26 -5l9 -3l-12 -413q-27 -8 -56 -8q-12 0 -25.5 2t-20.5 4l-7 2zM379 1427q32 11 67 11q16 0 33 -3t26 -5l9 -3l-14 -413q-27 -8 -54 -8q-13 0 -26 2t-20 4l-7 2z" />
<glyph unicode="#" horiz-adv-x="1118" d="M80 430q0 15 2.5 28.5t5.5 19.5l2 7h129l39 463h-119q-10 23 -10 56q0 15 2.5 28.5t4.5 19.5l3 7h129l33 368q35 11 72 11q16 0 33.5 -3t26.5 -5l9 -3l-30 -368h348l33 368q34 11 71 11q16 0 33.5 -3t26.5 -5l10 -3l-31 -368h125q10 -22 10 -55q0 -15 -2.5 -29t-5.5 -21 l-2 -6h-137l-39 -463h127q10 -22 10 -55q0 -15 -2.5 -28.5t-4.5 -19.5l-3 -7h-135l-33 -369q-35 -10 -70 -10q-16 0 -34 2.5t-27 5.5l-10 2l30 369h-348l-33 -369q-34 -10 -69 -10q-16 0 -34 2.5t-28 5.5l-10 2l31 369h-119q-10 22 -10 55zM360 485h351l39 463h-351z" />
<glyph unicode="$" horiz-adv-x="1173" d="M111 127q0 65 3.5 128.5t7.5 94.5l3 31q22 6 53 6q15 0 28 -1.5t19 -3.5l6 -1l27 -184q5 -4 13.5 -10t39.5 -21.5t66 -27.5t91 -22t116 -10q161 0 228 53.5t67 172.5v96q0 56 -32 98.5t-84.5 66.5t-119.5 47t-137 40t-137 44.5t-119.5 61t-84.5 90t-32 130.5v96 q0 156 90.5 240.5t294.5 97.5v192q35 10 70 10q16 0 34 -2.5t28 -5.5l9 -2v-190q74 -4 139.5 -19.5t106 -34.5t70 -37.5t41.5 -30.5l12 -13q0 -65 -4 -128.5t-8 -94.5l-4 -31q-23 -6 -54 -6q-14 0 -27 1.5t-19 3.5l-7 1l-26 184q-4 4 -11.5 10t-34 21.5t-56.5 27.5 t-78.5 21.5t-100.5 9.5q-155 0 -219 -54t-64 -171v-96q0 -59 41.5 -101t107 -67t145.5 -46.5t160 -48.5t145.5 -63t107 -100.5t41.5 -151.5v-96q0 -158 -96.5 -243t-307.5 -95v-193q-34 -10 -71 -10q-16 0 -33.5 2.5t-26.5 4.5l-10 3v191q-83 4 -155 19.5t-116.5 34.5 t-76.5 37.5t-46 30.5z" />
<glyph unicode="%" horiz-adv-x="1566" d="M104 1008v204q0 113 70 170.5t225 57.5t226 -58t71 -170v-204q0 -113 -71 -171.5t-226 -58.5t-225 58.5t-70 171.5zM238 1008q0 -77 36 -111.5t125 -34.5t125.5 34.5t36.5 111.5v204q0 77 -36.5 111.5t-125.5 34.5t-125 -34.5t-36 -111.5v-204zM248 6l915 1421 q37 11 78 11q18 0 37.5 -3t29.5 -5l11 -3l-916 -1421q-40 -10 -77 -10q-18 0 -37.5 2.5t-30.5 5.5zM872 221v205q0 113 70 171t225 58t226 -58.5t71 -170.5v-205q0 -112 -71 -169.5t-226 -57.5t-225 57.5t-70 169.5zM1006 221q0 -77 36 -111t125 -34t125.5 34t36.5 111v205 q0 77 -36.5 111t-125.5 34t-125 -34t-36 -111v-205z" />
<glyph unicode="&#x26;" horiz-adv-x="1443" d="M100 342v100q0 234 246 295q-219 61 -219 285v76q0 170 108 258t347 88q125 0 211.5 -21.5t137.5 -65.5t73 -103.5t22 -141.5v-88h285q10 -22 10 -55q0 -14 -2.5 -27.5t-4.5 -19.5l-3 -7h-285v-634q0 -96 38.5 -139.5t133.5 -43.5q43 0 113 21q8 -22 8 -49q0 -13 -2 -26 t-4 -20l-2 -6q-3 -1 -17.5 -5t-27.5 -7.5t-32 -7.5t-41 -6t-44 -2q-138 0 -201 69q-3 0 -50.5 -18.5t-125.5 -34.5t-172 -16q-260 0 -380 90t-120 262zM276 342q0 -128 73.5 -186t250.5 -58q148 0 285 60q-17 50 -17 123v831q0 118 -63 170.5t-223 52.5q-151 0 -215 -57.5 t-64 -179.5v-76q0 -122 64.5 -178t220.5 -56h98q8 -22 8 -55q0 -15 -2 -28t-4 -19l-2 -6h-98q-170 0 -241 -58t-71 -180v-100z" />
<glyph unicode="'" horiz-adv-x="382" d="M125 1427q30 11 65 11q16 0 33 -3t26 -5l9 -3l-12 -413q-27 -8 -56 -8q-12 0 -25.5 2t-20.5 4l-7 2z" />
<glyph unicode="(" horiz-adv-x="593" d="M133 16v1201q0 159 89.5 241t287.5 82q8 -24 8 -55q0 -15 -2 -28t-4 -19l-2 -6q-117 0 -166 -51.5t-49 -163.5v-1201q0 -112 49 -163.5t166 -51.5q8 -20 8 -53q0 -15 -2 -28.5t-4 -19.5l-2 -7q-198 0 -287.5 82t-89.5 241z" />
<glyph unicode=")" horiz-adv-x="593" d="M76 -252q0 15 2.5 28t5.5 19l2 6q116 0 164.5 51.5t48.5 163.5v1201q0 112 -48.5 163.5t-164.5 51.5q-10 20 -10 53q0 15 2.5 28.5t5.5 20.5l2 6q197 0 286 -82t89 -241v-1201q0 -159 -89 -241t-286 -82q-10 24 -10 55z" />
<glyph unicode="*" horiz-adv-x="987" d="M86 1085q-2 31 10 64q4 14 12 27.5t14 20.5l5 7l307 -110l-8 333q33 11 68 11q16 0 32.5 -3t25.5 -5l9 -3l-10 -331l309 108q21 -22 31 -55q5 -14 7.5 -29.5t2.5 -23.5v-9l-313 -96l200 -266q-20 -25 -47 -43q-13 -8 -28 -15t-24 -11l-9 -3l-186 275l-187 -275 q-30 11 -59 27q-13 9 -24.5 20.5t-17.5 19.5l-5 7l196 262z" />
<glyph unicode="+" horiz-adv-x="856" d="M84 614q0 15 2.5 29t5.5 21l2 6h273v278q24 8 61 8q16 0 30.5 -2t21.5 -4l7 -2v-278h275q10 -23 10 -56q0 -15 -2.5 -28.5t-5.5 -19.5l-2 -7h-275v-276q-22 -11 -59 -11q-16 0 -31.5 3t-22.5 5l-7 3v276h-273q-10 22 -10 55z" />
<glyph unicode="," horiz-adv-x="432" d="M39 -209q4 6 10 16.5t22.5 49t29 83.5t22.5 118t10 153q41 10 84 10q18 0 38.5 -2.5t32.5 -4.5l11 -3q0 -84 -15.5 -158t-38 -120t-45 -79.5t-38.5 -47.5l-15 -15q-26 -10 -53 -10q-13 0 -26.5 2.5t-21.5 4.5z" />
<glyph unicode="-" d="M84 582q0 15 2.5 28.5t5.5 19.5l2 7h422q8 -22 8 -55q0 -14 -2 -27.5t-4 -20.5l-2 -6h-422q-10 21 -10 54z" />
<glyph unicode="." horiz-adv-x="432" d="M131 6v205q41 10 86 10q19 0 40.5 -2.5t33.5 -4.5l12 -3v-205q-45 -10 -86 -10q-20 0 -41.5 2.5t-33.5 5.5z" />
<glyph unicode="/" horiz-adv-x="811" d="M80 6l485 1421q41 11 84 11q20 0 41.5 -3t33.5 -5l11 -3l-485 -1421q-43 -10 -86 -10q-19 0 -40 2.5t-32 5.5z" />
<glyph unicode="0" horiz-adv-x="1165" d="M123 313v807q0 159 109.5 241.5t349.5 82.5q242 0 351 -82.5t109 -241.5v-807q0 -159 -109 -241t-351 -82q-240 0 -349.5 82t-109.5 241zM299 313q0 -112 64.5 -163.5t218.5 -51.5q156 0 220 51.5t64 163.5v807q0 112 -64 163.5t-220 51.5q-154 0 -218.5 -51.5 t-64.5 -163.5v-807z" />
<glyph unicode="1" horiz-adv-x="845" d="M100 1282q0 13 2 24.5t4 17.5l3 5l297 109q30 0 61 -3t47 -5l16 -3v-1325l215 -22q9 -15 9 -35q0 -9 -2 -17.5t-4 -13.5l-3 -4q-100 -14 -301 -14q-90 0 -166 3.5t-106 6.5l-31 4q-8 15 -8 35q0 9 2 17.5t4 13.5l2 4l215 22v1205l-247 -68q-9 16 -9 43z" />
<glyph unicode="2" horiz-adv-x="1126" d="M117 14v195q0 83 24.5 149.5t65.5 111.5t94.5 81.5t112.5 64.5t118 54.5t112.5 57t94.5 67t65.5 90.5t24.5 121v96q0 122 -63 177.5t-215 55.5q-52 0 -100.5 -10t-80 -24.5t-56 -29t-35.5 -24.5l-11 -10l-26 -184q-23 -6 -54 -6q-14 0 -27 1.5t-19 3.5l-7 1 q-16 107 -16 254q5 6 15 15t47.5 32.5t83 41.5t122.5 33t164 15q241 0 345.5 -85.5t104.5 -256.5v-96q0 -82 -24.5 -147.5t-65.5 -109.5t-94.5 -80t-112.5 -63t-118 -53.5t-112.5 -57.5t-94.5 -68.5t-65.5 -92.5t-24.5 -125v-100h608l29 157q14 6 37 6q10 0 19 -1.5t13 -2.5 l4 -2q15 -59 15 -196q0 -18 -2.5 -35.5t-5.5 -26.5l-2 -8h-476q-110 0 -213 3.5t-151 6.5z" />
<glyph unicode="3" horiz-adv-x="1107" d="M100 133q0 16 3 29.5t7 19.5l3 6q6 -4 18 -10t51.5 -21.5t83.5 -27.5t113 -21.5t141 -9.5q175 0 247.5 58t72.5 186v125q0 127 -75.5 184.5t-254.5 57.5h-133q-8 20 -8 55q0 16 2 30t4 20l2 7l399 500h-543l-26 -154q-14 -6 -37 -6q-10 0 -20 1.5t-14 3.5l-5 1 q-12 60 -12 197q0 18 2 35.5t4 26.5l2 8h842q8 -23 8 -56q0 -14 -2 -27t-4 -19l-2 -7l-416 -510q94 0 167 -12t123 -35.5t84 -53.5t52.5 -71t26.5 -83t8 -93v-125q0 -172 -117 -262t-375 -90q-76 0 -145.5 9t-115.5 22t-81 26t-51 22l-16 9q-13 22 -13 55z" />
<glyph unicode="4" horiz-adv-x="1120" d="M100 397l383 1030q33 11 84 11q23 0 45.5 -3t33.5 -5l11 -3l-362 -970h450v561q41 10 84 10q18 0 38.5 -2.5t32.5 -5.5l11 -2v-561l142 -19q8 -18 8 -43q0 -12 -2 -23.5t-4 -16.5l-2 -5q-42 -8 -138 -8v-336q-43 -10 -86 -10q-19 0 -40.5 2.5t-33.5 5.5l-12 2v336h-632 q-11 22 -11 55z" />
<glyph unicode="5" horiz-adv-x="1103" d="M88 133q0 16 3 29.5t6 19.5l3 6q6 -4 18 -10t52 -21.5t84 -27.5t113 -21.5t141 -9.5q166 0 234.5 58t68.5 186v145q0 125 -67.5 183.5t-227.5 58.5h-358q-8 22 -8 57l34 633q164 15 412 15h303q10 -29 10 -70q0 -61 -3.5 -110t-7.5 -68l-3 -19q-14 -6 -37 -6 q-10 0 -20 1.5t-14 3.5l-5 1l-26 158h-459l-23 -483h205q137 0 231 -25t145.5 -74t73 -110.5t21.5 -145.5v-145q0 -172 -113.5 -262t-363.5 -90q-76 0 -146 9t-116 22t-81 26t-51 22l-16 9q-12 22 -12 55z" />
<glyph unicode="6" horiz-adv-x="1159" d="M129 313v762q0 179 113 273t368 94q98 0 186.5 -13t127.5 -25l39 -13q8 -21 8 -54q0 -10 -1 -19t-2 -15.5t-2 -11.5t-2 -8l-1 -3q0 3 -41.5 15t-131.5 25t-188 13q-164 0 -231.5 -63t-67.5 -193v-272q6 4 16.5 10.5t47.5 23.5t78.5 30t108 23.5t136.5 10.5 q184 0 265 -81.5t81 -241.5v-267q0 -159 -107.5 -241t-346.5 -82t-346 82t-107 241zM303 313q0 -112 63.5 -163.5t215.5 -51.5t215 51.5t63 163.5v267q0 113 -49.5 164t-173.5 51q-68 0 -127 -10.5t-95.5 -25.5t-63 -30.5t-37.5 -26.5l-11 -10v-379z" />
<glyph unicode="7" horiz-adv-x="1064" d="M88 1364q0 18 2.5 35.5t5.5 26.5l2 8h871q8 -23 8 -56l-516 -1374q-35 -8 -88 -8q-24 0 -47.5 2t-35.5 4l-11 2l505 1317h-581l-27 -154q-14 -6 -37 -6q-10 0 -19.5 1.5t-13.5 3.5l-4 1q-14 60 -14 197z" />
<glyph unicode="8" horiz-adv-x="1165" d="M119 313v154q0 212 211 272q-180 61 -180 265v116q0 159 103 241.5t329 82.5q228 0 331 -82.5t103 -241.5v-116q0 -204 -182 -265q213 -61 213 -272v-154q0 -159 -110 -241t-355 -82q-244 0 -353.5 81.5t-109.5 241.5zM293 313q0 -112 66 -163.5t223 -51.5t222.5 51.5 t65.5 163.5v154q0 112 -65 162.5t-223 50.5t-223.5 -51t-65.5 -162v-154zM324 1004q0 -112 59.5 -164t198.5 -52q141 0 199.5 52t58.5 164v116q0 112 -58.5 163.5t-199.5 51.5q-139 0 -198.5 -52t-59.5 -163v-116z" />
<glyph unicode="9" horiz-adv-x="1159" d="M123 879v239q0 161 106.5 242.5t345.5 81.5t347 -82t108 -242v-762q0 -177 -114 -271.5t-369 -94.5q-98 0 -188 13t-131 25l-40 13q-10 22 -10 55q0 15 2.5 29t5.5 21l2 6q17 -6 47.5 -15t127 -24t194.5 -15q164 0 230.5 63.5t66.5 194.5v299q-6 -4 -16.5 -10.5 t-47.5 -23.5t-78.5 -30t-108 -23.5t-136.5 -10.5q-183 0 -263.5 81t-80.5 241zM299 879q0 -112 49 -162.5t174 -50.5q67 0 126 10.5t95 25t62.5 29t37.5 25.5l11 10v352q0 112 -63.5 163.5t-215.5 51.5q-151 0 -213.5 -51.5t-62.5 -163.5v-239z" />
<glyph unicode=":" horiz-adv-x="432" d="M131 6v205q41 10 86 10q19 0 40.5 -2.5t33.5 -4.5l12 -3v-205q-45 -10 -86 -10q-20 0 -41.5 2.5t-33.5 5.5zM131 813v205q41 10 86 10q19 0 40.5 -2.5t33.5 -5.5l12 -2v-205q-45 -10 -86 -10q-20 0 -41.5 2.5t-33.5 4.5z" />
<glyph unicode=";" horiz-adv-x="432" d="M39 -209q4 6 10 16.5t22.5 49t29 83.5t22.5 118t10 153q41 10 84 10q18 0 38.5 -2.5t32.5 -4.5l11 -3q0 -84 -15.5 -158t-38 -120t-45 -79.5t-38.5 -47.5l-15 -15q-26 -10 -53 -10q-13 0 -26.5 2.5t-21.5 4.5zM131 813v205q41 10 86 10q19 0 40.5 -2.5t33.5 -5.5l12 -2 v-205q-45 -10 -86 -10q-20 0 -41.5 2.5t-33.5 4.5z" />
<glyph unicode="&#x3c;" horiz-adv-x="950" d="M84 643l756 404q10 -35 10 -68q0 -14 -2.5 -30.5t-5.5 -26.5l-2 -9l-510 -270l510 -272q10 -35 10 -68q0 -14 -2.5 -29.5t-5.5 -24.5l-2 -9z" />
<glyph unicode="=" horiz-adv-x="897" d="M82 446q0 15 2.5 29t5.5 21l2 6h709q10 -23 10 -56q0 -15 -2.5 -28t-4.5 -19l-3 -6h-709q-10 20 -10 53zM84 838q0 15 2.5 28.5t5.5 19.5l2 7h709q10 -22 10 -55q0 -14 -2.5 -27.5t-4.5 -20.5l-3 -6h-709q-10 21 -10 54z" />
<glyph unicode="&#x3e;" horiz-adv-x="950" d="M100 305q0 14 3 30.5t5 26.5l3 9l510 272l-510 270q-11 37 -11 68q0 15 3 31.5t5 25.5l3 9l755 -404l-755 -403q-11 34 -11 65z" />
<glyph unicode="?" horiz-adv-x="1064" d="M106 1307q5 6 14 15t44.5 32.5t78.5 41.5t116.5 33t156.5 15q232 0 334 -86t102 -256v-96q0 -62 -19.5 -110t-50 -77.5t-68 -53.5t-75 -45.5t-68 -46t-50 -62t-19.5 -87.5v-94q-43 -10 -88 -10q-20 0 -41.5 2.5t-32.5 5.5l-12 2v94q0 64 19.5 113t50 79t68 54t75 45 t68 45t50 61t19.5 85v96q0 122 -59 177.5t-203 55.5q-76 0 -141.5 -22.5t-92.5 -44.5l-28 -23l-27 -192q-20 -6 -51 -6q-15 0 -28 1.5t-19 3.5l-6 1q-17 107 -17 254zM424 6v205q45 10 90 10q21 0 43.5 -2.5t34.5 -4.5l12 -3v-205q-45 -10 -90 -10q-20 0 -42.5 2.5 t-35.5 5.5z" />
<glyph unicode="@" horiz-adv-x="1470" d="M119 -2v645q0 194 149 292.5t486 98.5q140 0 240 -23t160.5 -69t88 -109.5t27.5 -150.5v-580l145 -22q8 -15 8 -35q0 -9 -2 -17.5t-4 -13.5l-2 -4q-72 -14 -211 -14q-26 0 -53 2.5t-41 5.5l-14 2v98q-5 -5 -14.5 -12.5t-43.5 -27t-71.5 -34.5t-97.5 -27.5t-124 -12.5 q-150 0 -216 68.5t-66 205.5v39q0 125 85.5 191.5t282.5 89.5l265 28v70q0 127 -77 185.5t-265 58.5q-173 0 -275 -31.5t-144 -91.5t-42 -160v-645q0 -174 94 -241.5t342 -67.5q90 0 177 9.5t146 22.5t105.5 26t68.5 23l23 9q13 -20 13 -55q0 -15 -3 -29t-7 -21l-3 -6 q-7 -4 -21.5 -9.5t-64 -21t-105 -27t-144.5 -21t-183 -9.5q-330 0 -471 101t-141 317zM639 264q0 -86 38 -126t132 -40q58 0 109 12.5t82 30t54 34.5t32 29l10 13v289l-236 -27q-122 -14 -171.5 -56.5t-49.5 -119.5v-39z" />
<glyph unicode="A" horiz-adv-x="1460" d="M29 47q0 11 2 21t4 14l2 4l151 20l387 1221l-153 21q-6 13 -6 38q0 10 1.5 19.5t2.5 13.5l2 4q104 15 309 15q29 0 60 -3t47 -5l16 -3l418 -1321l151 -20q9 -14 9 -39q0 -10 -2 -19.5t-4 -13.5l-3 -4q-80 -14 -211 -14q-88 0 -158 3.5t-96 6.5l-26 4q-8 14 -8 37 q0 11 2 21t4 14l2 4l162 20l-99 314h-528l-100 -314l163 -20q7 -14 7 -39q0 -10 -1.5 -19.5t-3.5 -13.5l-2 -4q-85 -14 -282 -14q-58 0 -111 3.5t-77 6.5l-23 4q-8 14 -8 37zM494 537h473l-236 755z" />
<glyph unicode="B" horiz-adv-x="1288" d="M51 47q0 10 2 20t4 15l2 4l162 18v1225l-162 19q-8 15 -8 38q0 10 2 19.5t4 13.5l2 4q229 19 619 19q242 0 351.5 -87t109.5 -257v-76q0 -224 -219 -285q245 -61 245 -295v-100q0 -172 -115.5 -261t-371.5 -89q-174 0 -328.5 4.5t-222.5 9.5l-68 4q-8 14 -8 37zM403 106 h275q165 0 234 56.5t69 179.5v100q0 122 -69.5 180t-233.5 58h-275v-574zM403 793h275q150 0 213 55t63 174v76q0 118 -63 172.5t-213 54.5h-275v-532z" />
<glyph unicode="C" horiz-adv-x="1185" d="M123 332v770q0 169 114.5 255.5t372.5 86.5q93 0 174 -14t131 -34t86 -40.5t51 -34.5l15 -14q0 -65 -3.5 -128.5t-7.5 -94.5l-3 -31q-23 -6 -54 -6q-14 0 -27 1.5t-20 3.5l-6 1l-26 184q-4 4 -12.5 10t-38 21.5t-62.5 27.5t-86.5 21.5t-110.5 9.5q-169 0 -236 -53 t-67 -172v-770q0 -119 72 -172.5t252 -53.5q74 0 145 9.5t119 22t86 26.5t56 23t18 10q10 -23 10 -60q0 -16 -2.5 -31t-4.5 -22l-3 -6q-6 -4 -17.5 -9.5t-51.5 -21t-85.5 -27t-118.5 -21t-151 -9.5q-183 0 -297 41t-162.5 115t-48.5 186z" />
<glyph unicode="D" horiz-adv-x="1292" d="M51 47q0 10 2 20t4 15l2 4l162 18v1225l-162 19q-8 15 -8 38q0 10 2 19.5t4 13.5l2 4q186 19 611 19q262 0 380.5 -86t118.5 -254v-770q0 -168 -118.5 -254t-380.5 -86q-176 0 -328.5 4.5t-217.5 9.5l-65 4q-8 14 -8 37zM403 106h267q171 0 243 54t72 172v770 q0 118 -72 171.5t-243 53.5h-267v-1221z" />
<glyph unicode="E" horiz-adv-x="1136" d="M51 47q0 11 2 21t4 14l2 4l162 20v1221l-162 21q-8 13 -8 38q0 10 2 19.5t4 13.5l2 4q233 11 574 11h416q10 -31 10 -76q0 -72 -3.5 -129t-7.5 -78l-4 -21q-13 -6 -38 -6l-37 6l-33 187h-533v-522h521q10 -23 10 -58q0 -16 -2.5 -30t-5.5 -21l-2 -6h-521v-563h543l33 186 q17 6 37 6q11 0 21 -1.5t14 -3.5l4 -1q14 -65 14 -227q0 -20 -2.5 -39t-4.5 -28l-3 -9h-426q-152 0 -295.5 2.5t-211.5 5.5l-67 2q-8 14 -8 37z" />
<glyph unicode="F" horiz-adv-x="1107" d="M51 47q0 11 2 21t4 14l2 4l162 20v1221l-162 21q-8 13 -8 38q0 10 2 19.5t4 13.5l2 4q233 11 574 11h397q10 -31 10 -76q0 -72 -3 -129t-6 -78l-3 -21q-16 -6 -39 -6q-10 0 -19.5 1.5t-13.5 2.5l-4 2l-34 187h-515v-522h519q8 -23 8 -58q0 -16 -2 -30t-4 -21l-2 -6h-519 v-574l162 -20q8 -14 8 -39q0 -10 -2 -19.5t-4 -13.5l-2 -4q-84 -14 -254 -14q-75 0 -138 3.5t-89 6.5l-25 4q-8 14 -8 37z" />
<glyph unicode="G" horiz-adv-x="1220" d="M123 332v770q0 169 115 255.5t376 86.5q93 0 175 -14t132.5 -34t87.5 -40.5t53 -34.5l15 -14q0 -65 -4 -128.5t-8 -94.5l-4 -31q-22 -6 -53 -6q-14 0 -27.5 1.5t-20.5 3.5l-6 1l-26 184q-5 4 -13.5 10t-38.5 21.5t-64 27.5t-87.5 21.5t-110.5 9.5q-170 0 -238.5 -53 t-68.5 -172v-770q0 -118 70 -172t237 -54q84 0 160 14.5t110 29.5l34 14v473h-279q-10 24 -10 59q0 16 2.5 30.5t4.5 21.5l3 6h92q97 0 188 -4t133 -8l42 -3v-657q-8 -4 -22.5 -10t-63 -21.5t-101 -27.5t-132.5 -21.5t-161 -9.5q-258 0 -374.5 86t-116.5 254z" />
<glyph unicode="H" horiz-adv-x="1433" d="M51 47q0 11 2 21t4 14l2 4l162 20v1221l-162 21q-8 13 -8 38q0 10 2 19.5t4 13.5l2 4q84 15 252 15q76 0 139.5 -4t89.5 -8l25 -3q8 -14 8 -37q0 -11 -2 -20.5t-4 -13.5l-2 -4l-162 -21v-534h627v534l-162 21q-6 13 -6 38q0 10 1.5 19.5t2.5 13.5l2 4q86 15 254 15 q75 0 138.5 -4t89.5 -8l26 -3q6 -14 6 -37q0 -11 -1.5 -20.5t-2.5 -13.5l-2 -4l-162 -21v-1221l162 -20q6 -14 6 -39q0 -10 -1.5 -19.5t-2.5 -13.5l-2 -4q-86 -14 -254 -14q-75 0 -138.5 3.5t-89.5 6.5l-26 4q-6 14 -6 37q0 11 1.5 21t2.5 14l2 4l162 20v570h-627v-570 l162 -20q8 -14 8 -39q0 -10 -2 -19.5t-4 -13.5l-2 -4q-84 -14 -254 -14q-75 0 -138 3.5t-89 6.5l-25 4q-8 14 -8 37z" />
<glyph unicode="I" horiz-adv-x="624" d="M51 47q0 11 2 21t4 14l2 4l162 20v1221l-162 21q-8 13 -8 38q0 10 2 19.5t4 13.5l2 4q84 15 252 15q76 0 139.5 -4t89.5 -8l25 -3q8 -14 8 -37q0 -11 -2 -20.5t-4 -13.5l-2 -4l-162 -21v-1221l162 -20q8 -14 8 -39q0 -10 -2 -19.5t-4 -13.5l-2 -4q-84 -14 -254 -14 q-75 0 -138 3.5t-89 6.5l-25 4q-8 14 -8 37z" />
<glyph unicode="J" horiz-adv-x="978" d="M35 137q0 16 3 31t6 22l3 7q0 -1 12.5 -10t39.5 -23t60.5 -26.5t83 -22t101.5 -9.5q128 0 178.5 53.5t50.5 172.5v995l-161 21q-6 13 -6 38q0 10 1.5 19.5t2.5 13.5l2 4q86 15 254 15q76 0 139.5 -4t88.5 -8l26 -3q6 -14 6 -37q0 -11 -1.5 -20.5t-2.5 -13.5l-2 -4 l-162 -21v-995q0 -169 -96.5 -255.5t-315.5 -86.5q-55 0 -106 9t-84.5 22t-59.5 26t-38 22l-11 9q-12 22 -12 59z" />
<glyph unicode="K" horiz-adv-x="1316" d="M51 47q0 11 2 21t4 14l2 4l162 20v1221l-162 21q-8 13 -8 38q0 10 2 19.5t4 13.5l2 4q84 15 252 15q76 0 139.5 -4t89.5 -8l25 -3q8 -14 8 -37q0 -11 -2 -20.5t-4 -13.5l-2 -4l-162 -21v-567l160 45l338 530l-119 13q-8 13 -8 38q0 10 2 19.5t4 13.5l2 4q85 15 273 15 q50 0 99.5 -4t73.5 -8l25 -3q7 -14 7 -37q0 -11 -2 -20.5t-4 -13.5l-1 -4l-163 -21l-367 -584l389 -637l162 -20q8 -14 8 -39q0 -10 -2 -19.5t-4 -13.5l-2 -4q-84 -14 -201 -14q-87 0 -156.5 3.5t-95.5 6.5l-26 4q-9 14 -9 37q0 11 2 21t4 14l3 4l125 12l-357 584l-160 -43 v-533l162 -20q8 -14 8 -39q0 -10 -2 -19.5t-4 -13.5l-2 -4q-84 -14 -254 -14q-75 0 -138 3.5t-89 6.5l-25 4q-8 14 -8 37z" />
<glyph unicode="L" horiz-adv-x="1097" d="M51 47q0 11 2 21t4 14l2 4l162 20v1221l-162 21q-8 13 -8 38q0 10 2 19.5t4 13.5l2 4q84 15 252 15q76 0 139.5 -4t89.5 -8l25 -3q8 -14 8 -37q0 -11 -2 -20.5t-4 -13.5l-2 -4l-162 -21v-1210h504l33 186q14 6 37 6q11 0 21 -1.5t14 -3.5l4 -1q12 -65 12 -227 q0 -20 -2 -39t-4 -28l-2 -9h-387q-152 0 -295.5 2.5t-211.5 5.5l-67 2q-8 14 -8 37z" />
<glyph unicode="M" horiz-adv-x="1761" d="M51 47q0 11 2 21t4 14l2 4l162 20v1221l-162 21q-8 13 -8 38q0 10 2 19.5t4 13.5l2 4q85 15 263 15q35 0 69 -3t51 -5l17 -3l420 -978l424 981q55 8 118 8q82 0 152 -4t99 -8l30 -3q6 -14 6 -37q0 -11 -1.5 -20.5t-2.5 -13.5l-2 -4l-162 -21v-1221l162 -20q6 -14 6 -39 q0 -10 -1.5 -19.5t-2.5 -13.5l-2 -4q-86 -14 -250 -14q-73 0 -135.5 3.5t-88.5 6.5l-26 4q-6 14 -6 37q0 11 1.5 21t2.5 14l2 4l162 20v1074l-403 -938q-37 -11 -82 -11q-19 0 -40 2.5t-33 5.5l-11 3l-400 936v-1072l162 -20q8 -14 8 -39q0 -10 -2 -19.5t-4 -13.5l-2 -4 q-84 -14 -250 -14q-73 0 -135 3.5t-88 6.5l-25 4q-8 14 -8 37z" />
<glyph unicode="N" horiz-adv-x="1443" d="M51 47q0 11 2 21t4 14l2 4l162 20v1221l-162 21q-8 13 -8 38q0 10 2 19.5t4 13.5l2 4q80 15 240 15q18 0 38 -3t31 -5l11 -3l668 -1114v1014l-160 21q-8 13 -8 38q0 10 2 19.5t4 13.5l2 4q84 15 248 15q74 0 136 -4t87 -8l26 -3q9 -14 9 -37q0 -11 -2.5 -20.5t-4.5 -13.5 l-2 -4l-161 -21v-1321q-39 -10 -80 -10q-17 0 -36.5 2.5t-30.5 5.5l-11 2l-670 1114v-1014l162 -20q8 -14 8 -39q0 -10 -2 -19.5t-4 -13.5l-2 -4q-84 -14 -250 -14q-73 0 -135 3.5t-88 6.5l-25 4q-8 14 -8 37z" />
<glyph unicode="O" horiz-adv-x="1247" d="M123 332v770q0 168 119.5 255t380.5 87q262 0 381.5 -87t119.5 -255v-770q0 -168 -119.5 -255t-381.5 -87q-261 0 -380.5 87t-119.5 255zM307 332q0 -118 72.5 -172t243.5 -54q173 0 245 54t72 172v770q0 118 -72 171.5t-245 53.5q-172 0 -244 -53.5t-72 -171.5v-770z " />
<glyph unicode="P" horiz-adv-x="1212" d="M51 47q0 11 2 21t4 14l2 4l162 20v1223l-162 19q-8 15 -8 38q0 10 2 19.5t4 13.5l2 4q233 19 574 19q251 0 364 -86t113 -254v-137q0 -168 -113 -254t-364 -86q-67 0 -124.5 2t-81.5 4l-24 2v-527l162 -20q8 -14 8 -39q0 -10 -2 -19.5t-4 -13.5l-2 -4q-84 -14 -254 -14 q-75 0 -138 3.5t-89 6.5l-25 4q-8 14 -8 37zM403 739h230q159 0 226 54t67 172v137q0 118 -66.5 171.5t-226.5 53.5h-230v-588z" />
<glyph unicode="Q" horiz-adv-x="1247" d="M123 332v770q0 168 119.5 255t380.5 87q262 0 381.5 -87t119.5 -255v-770q0 -131 -71 -213t-224 -113l213 -358q-45 -10 -92 -10q-20 0 -43.5 2.5t-36.5 5.5l-14 2l-182 344q-16 -2 -51 -2q-261 0 -380.5 87t-119.5 255zM307 332q0 -118 72.5 -172t243.5 -54 q173 0 245 54t72 172v770q0 118 -72 171.5t-245 53.5q-172 0 -244 -53.5t-72 -171.5v-770z" />
<glyph unicode="R" horiz-adv-x="1320" d="M51 47q0 11 2 21t4 14l2 4l162 20v1221l-162 21q-8 13 -8 38q0 10 2 19.5t4 13.5l2 4q231 19 582 19q249 0 362 -86t113 -254v-133q0 -131 -66 -211.5t-210 -110.5l276 -541l162 -20q6 -14 6 -39q0 -10 -1.5 -19.5t-2.5 -13.5l-2 -4q-86 -14 -203 -14q-82 0 -149 3.5 t-93 6.5l-26 4q-8 14 -8 37q0 11 2 21t4 14l2 4l125 12l-260 531h-31q-68 0 -127.5 1.5t-85.5 3.5l-25 1v-529l162 -20q8 -14 8 -39q0 -10 -2 -19.5t-4 -13.5l-2 -4q-84 -14 -254 -14q-75 0 -138 3.5t-89 6.5l-25 4q-8 14 -8 37zM403 743h238q158 0 224.5 54t66.5 172v133 q0 118 -66.5 171.5t-224.5 53.5h-238v-584z" />
<glyph unicode="S" horiz-adv-x="1183" d="M123 121q0 65 4 128t8 93l4 31q21 8 54 8q14 0 26.5 -2t18.5 -4l6 -2l26 -185q4 -3 13 -8.5t39 -20t63.5 -25t88 -19.5t112.5 -9q160 0 225.5 53.5t65.5 172.5v96q0 50 -25 89t-68 64t-98.5 45t-116.5 37t-122 35t-116.5 44t-98.5 60t-68 86t-25 118v96q0 170 108.5 256 t354.5 86q87 0 162.5 -13.5t121 -33t79.5 -38.5t47 -33l14 -13q0 -65 -4 -128t-8 -93l-4 -31q-21 -8 -54 -8q-14 0 -27 2t-19 4l-7 2l-24 184q-4 3 -11.5 8.5t-33.5 20t-56 25t-77.5 19.5t-98.5 9q-153 0 -216.5 -54t-63.5 -171v-96q0 -59 41 -101t106 -67t144 -46.5 t157.5 -48.5t143.5 -63t106 -100.5t41 -151.5v-96q0 -170 -112 -256t-361 -86q-94 0 -176.5 13.5t-133 33t-87.5 38.5t-53 33z" />
<glyph unicode="T" horiz-adv-x="1222" d="M63 1358q0 20 2.5 39t5.5 28l3 9h1073q8 -31 8 -76q0 -72 -3 -129t-6 -78l-3 -21q-14 -6 -39 -6q-10 0 -19.5 1.5t-13.5 2.5l-4 2l-35 187h-327v-1211l161 -20q8 -14 8 -39q0 -10 -2 -19.5t-4 -13.5l-2 -4q-84 -14 -254 -14q-75 0 -138.5 3.5t-89.5 6.5l-26 4 q-6 14 -6 37q0 11 1.5 21t2.5 14l2 4l162 20v1211h-334l-32 -187q-16 -6 -39 -6q-10 0 -19.5 1.5t-13.5 2.5l-4 2q-15 66 -15 228z" />
<glyph unicode="U" horiz-adv-x="1425" d="M51 1386q0 10 2 19.5t4 13.5l2 4q84 15 252 15q72 0 132.5 -4t84.5 -8l25 -3q8 -14 8 -37q0 -11 -2 -20.5t-4 -13.5l-2 -4l-150 -21v-995q0 -118 71.5 -172t238.5 -54q168 0 238.5 54t70.5 172v995l-150 21q-6 13 -6 38q0 10 1.5 19.5t2.5 13.5l2 4q80 15 242 15 q75 0 138.5 -4t89.5 -8l26 -3q6 -14 6 -37q0 -11 -1.5 -20.5t-2.5 -13.5l-2 -4l-162 -21v-995q0 -168 -117.5 -255t-375.5 -87t-375 87t-117 255v995l-162 21q-8 13 -8 38z" />
<glyph unicode="V" horiz-adv-x="1476" d="M29 1386q0 10 2 19.5t4 13.5l2 4q84 15 219 15q88 0 158 -4t96 -8l27 -3q8 -14 8 -37q0 -11 -2 -20.5t-4 -13.5l-2 -4l-162 -21l364 -1182l361 1182l-158 21q-8 13 -8 38q0 10 2 19.5t4 13.5l2 4q84 15 279 15q60 0 115.5 -4t80.5 -8l25 -3q6 -14 6 -37q0 -11 -1.5 -20.5 t-2.5 -13.5l-2 -4l-162 -21l-418 -1321q-55 -10 -123 -10q-29 0 -60.5 2.5t-48.5 5.5l-16 2l-417 1321l-160 21q-8 13 -8 38z" />
<glyph unicode="W" horiz-adv-x="2174" d="M29 1386q0 10 2 19.5t4 13.5l2 4q84 15 227 15q84 0 153 -4t95 -8l27 -3q8 -14 8 -37q0 -11 -2 -20.5t-4 -13.5l-2 -4l-162 -21l295 -1167l305 1267q47 11 110 11q28 0 56 -3t43 -5l14 -3l307 -1267l291 1167l-160 21q-8 13 -8 38q0 10 2 19.5t4 13.5l2 4q85 15 275 15 q63 0 119.5 -4t81.5 -8l26 -3q6 -14 6 -37q0 -11 -1.5 -20.5t-2.5 -13.5l-2 -4l-162 -21l-342 -1321q-59 -10 -125 -10q-29 0 -60.5 2.5t-48.5 5.5l-16 2l-299 1254l-296 -1254q-59 -10 -125 -10q-29 0 -60.5 2.5t-47.5 5.5l-17 2l-344 1321l-160 21q-8 13 -8 38z" />
<glyph unicode="X" horiz-adv-x="1392" d="M35 47q0 11 2 21t4 14l2 4l160 20l368 619l-354 602l-162 21q-8 13 -8 38q0 10 2 19.5t4 13.5l2 4q84 15 203 15q91 0 163.5 -4t98.5 -8l27 -3q8 -14 8 -37q0 -11 -2 -20.5t-4 -13.5l-2 -4l-139 -17l288 -502l287 504l-137 15q-8 13 -8 38q0 10 2 19.5t4 13.5l2 4 q84 15 287 15q53 0 104 -4t75 -8l25 -3q6 -14 6 -37q0 -11 -1.5 -20.5t-3.5 -13.5l-1 -4l-161 -21l-355 -602l367 -621l162 -18q8 -14 8 -39q0 -10 -2 -19.5t-4 -13.5l-2 -4q-84 -14 -205 -14q-92 0 -165.5 3.5t-100.5 6.5l-27 4q-6 14 -6 37q0 11 1.5 21t2.5 14l2 4l145 16 l-301 521l-301 -521l142 -16q8 -14 8 -39q0 -10 -2 -19.5t-4 -13.5l-2 -4q-84 -14 -291 -14q-53 0 -103.5 3.5t-74.5 6.5l-25 4q-8 14 -8 37z" />
<glyph unicode="Y" horiz-adv-x="1363" d="M29 1386q0 10 2 19.5t4 13.5l2 4q84 15 209 15q89 0 160.5 -4t98.5 -8l27 -3q7 -14 7 -37q0 -11 -1.5 -20.5t-3.5 -13.5l-2 -4l-145 -17l295 -583l293 583l-141 17q-9 13 -9 38q0 10 2.5 19.5t4.5 13.5l2 4q83 15 286 15q55 0 106.5 -4t75.5 -8l25 -3q8 -14 8 -37 q0 -11 -2 -20.5t-4 -13.5l-2 -4l-162 -21l-391 -727v-494l162 -20q6 -14 6 -39q0 -10 -1.5 -19.5t-2.5 -13.5l-2 -4q-86 -14 -254 -14q-75 0 -138.5 3.5t-89.5 6.5l-26 4q-6 14 -6 37q0 11 1.5 21t2.5 14l2 4l162 20v492l-393 729l-160 21q-8 13 -8 38z" />
<glyph unicode="Z" horiz-adv-x="1116" d="M86 57q0 16 2.5 31t5.5 22l2 7l719 1196h-600l-33 -187q-14 -6 -37 -6q-11 0 -21 1.5t-14 2.5l-4 2q-14 70 -14 232q0 20 2.5 39t5.5 28l2 9h912q10 -23 10 -58q0 -16 -2.5 -30.5t-5.5 -21.5l-2 -7l-719 -1196h612l33 186q16 6 39 6q10 0 19.5 -1.5t13.5 -3.5l4 -1 q14 -69 14 -231q0 -20 -2.5 -39t-5.5 -28l-2 -9h-924q-10 22 -10 57z" />
<glyph unicode="[" horiz-adv-x="667" d="M133 -309v1849q120 0 230.5 -2.5t160.5 -5.5l51 -2q9 -20 9 -51q0 -13 -2 -26t-4 -19l-3 -7q-110 -10 -280 -10v-1603q76 0 146 -3t102 -5l32 -3q9 -20 9 -51q0 -14 -2 -26t-4 -18l-3 -5q-173 -12 -442 -12z" />
<glyph unicode="\" horiz-adv-x="811" d="M80 1427q41 11 84 11q20 0 41.5 -3t32.5 -5l12 -3l485 -1421q-41 -10 -86 -10q-18 0 -39 2.5t-33 5.5l-12 2z" />
<glyph unicode="]" horiz-adv-x="667" d="M84 -248q0 14 2 26.5t4 18.5l2 6q111 11 281 11v1603q-76 0 -146 2.5t-103 4.5l-32 3q-8 23 -8 52q0 14 2 26.5t4 18.5l2 6q176 10 443 10v-1849q-119 0 -230 3t-162 6l-51 3q-8 18 -8 49z" />
<glyph unicode="^" horiz-adv-x="917" d="M80 1067l379 375l377 -375q-10 -20 -35 -45q-11 -10 -23 -18t-18 -10l-6 -3l-295 297l-297 -299q-22 10 -47 33q-11 10 -20 21.5t-12 17.5z" />
<glyph unicode="_" horiz-adv-x="1038" d="M6 -102h1024v-109h-1024v109z" />
<glyph unicode="`" horiz-adv-x="440" d="M31 1427q41 11 84 11q19 0 39.5 -3t31.5 -5l11 -3l215 -256q-27 -10 -58 -10q-13 0 -27 2.5t-22 4.5l-8 3z" />
<glyph unicode="a" horiz-adv-x="1103" d="M109 268v33q0 123 84.5 189.5t277.5 84.5l258 29v119q0 105 -51.5 154t-177.5 49q-53 0 -103.5 -12.5t-64 -19.5t-43.5 -22l-25 -167q-20 -7 -49 -7q-13 0 -25 2t-18 4l-6 1q-16 100 -16 243q5 3 14.5 9t43 21t71 26t97.5 20.5t124 9.5q216 0 309.5 -78t93.5 -233v-621 l146 -22q8 -15 8 -35q0 -9 -2 -17.5t-4 -13.5l-2 -4q-72 -14 -211 -14q-26 0 -53.5 2.5t-41.5 5.5l-14 2v100q-5 -5 -14.5 -12.5t-42 -27.5t-69 -35.5t-95.5 -28t-121 -12.5q-148 0 -213 70t-65 208zM283 264q0 -86 37.5 -126t128.5 -40q57 0 106.5 12.5t80 30t53 34.5 t31.5 29l9 13v281l-229 -27q-118 -13 -167.5 -55.5t-49.5 -118.5v-33z" />
<glyph unicode="b" horiz-adv-x="1083" d="M-6 1389q0 9 2 17.5t4 12.5l2 4q80 15 215 15q25 0 52 -3t41 -5l14 -3v-491q2 5 10.5 15t30.5 24.5t52 27.5t80.5 22t110.5 9q186 0 269.5 -82t83.5 -241v-398q0 -159 -71.5 -241t-230.5 -82q-61 0 -118 11.5t-95 28.5t-66.5 34t-41.5 28l-14 12v-98q-43 -10 -88 -10 q-20 0 -42 2.5t-34 5.5l-13 2v1325l-145 23q-8 15 -8 35zM324 217q3 -5 9.5 -13t30 -28.5t52.5 -36t78.5 -28.5t105.5 -13q103 0 143.5 51t40.5 164v398q0 113 -45.5 164t-160.5 51q-139 0 -196.5 -51.5t-57.5 -163.5v-494z" />
<glyph unicode="c" horiz-adv-x="1009" d="M123 313v398q0 160 97.5 241.5t316.5 81.5q66 0 127.5 -9t102 -21.5t71.5 -25t45 -21.5l14 -9q0 -64 -4 -124.5t-8 -89.5l-4 -29q-21 -7 -50 -7q-13 0 -25 2t-18 4l-6 1l-24 169q-101 52 -221 52q-131 0 -184.5 -51.5t-53.5 -163.5v-398q0 -113 56.5 -164t201.5 -51 q90 0 171.5 18.5t118 35.5t36.5 20l1 -3q1 -3 3 -8t4 -11t3 -15t1 -18q0 -15 -3 -29t-6 -20l-3 -7q-5 -3 -13.5 -7.5t-40 -17t-66.5 -22t-91.5 -17t-116.5 -7.5q-229 0 -330.5 81.5t-101.5 241.5z" />
<glyph unicode="d" horiz-adv-x="1134" d="M123 313v398q0 160 83 241.5t269 81.5q59 0 109.5 -9.5t80.5 -22t52.5 -28t31 -24t11.5 -14.5v395l-146 23q-6 15 -6 35q0 9 1.5 17.5t2.5 12.5l2 4q72 15 213 15q25 0 52.5 -3t42.5 -5l14 -3v-1325l145 -22q6 -15 6 -35q0 -9 -1.5 -17.5t-3.5 -13.5l-1 -4 q-74 -14 -213 -14q-25 0 -52 2.5t-42 5.5l-14 2v98q-5 -5 -14 -12.5t-41.5 -27t-68.5 -34.5t-93.5 -27.5t-118.5 -12.5q-159 0 -230 81.5t-71 241.5zM299 313q0 -113 40.5 -164t141.5 -51q57 0 106.5 12.5t80 30t52.5 34.5t31 29l9 13v494q0 112 -58 163.5t-196 51.5 q-115 0 -161 -51t-46 -164v-398z" />
<glyph unicode="e" horiz-adv-x="1067" d="M123 313v398q0 160 96.5 241.5t315.5 81.5q114 0 193.5 -21t125.5 -64t66 -100.5t20 -137.5v-234q-119 -16 -322 -16h-319v-148q0 -113 58.5 -164t207.5 -51q95 0 181 18.5t124.5 35.5t38.5 20l1 -3q2 -3 4 -8t3.5 -11t3 -15t1.5 -18q0 -15 -3 -29t-7 -20l-3 -7 q-5 -3 -14.5 -7.5t-42 -17t-69.5 -22t-96 -17t-122 -7.5q-235 0 -338.5 81.5t-103.5 241.5zM299 569h473v142q0 112 -53 163.5t-184 51.5t-183.5 -51t-52.5 -164v-142z" />
<glyph unicode="f" horiz-adv-x="729" d="M47 45q0 9 2 17.5t4 13.5l2 4l146 22v816l-146 22q-8 15 -8 35q0 9 2 17.5t4 13.5l2 4q50 12 146 12v131q0 144 67 217.5t219 73.5q87 0 183 -23q8 -22 8 -51q0 -13 -2 -26t-4 -20l-2 -7q-52 18 -123 18q-95 0 -133.5 -43.5t-38.5 -138.5v-129h295q8 -22 8 -55 q0 -14 -2 -27.5t-4 -19.5l-2 -7h-295v-813l145 -22q8 -15 8 -35q0 -9 -2 -17.5t-4 -13.5l-2 -4q-77 -14 -233 -14q-68 0 -126 3.5t-82 6.5l-24 4q-8 15 -8 35z" />
<glyph unicode="g" horiz-adv-x="1075" d="M123 313v398q0 160 71 241.5t230 81.5q61 0 118 -11.5t94.5 -28.5t67 -34t42.5 -28l14 -12v98q41 8 88 8q20 0 42 -2t34 -4l12 -2v-1114q0 -160 -103.5 -242t-338.5 -82q-90 0 -172 12t-119 24l-37 13q-12 21 -12 54q0 16 3 29.5t6 19.5l3 6q15 -5 42 -13.5t112.5 -22 t173.5 -13.5q148 0 207 51t59 164v180q-3 -5 -11.5 -14.5t-31 -24t-52.5 -26t-80.5 -20.5t-109.5 -9q-186 0 -269 81.5t-83 241.5zM299 313q0 -113 46 -164t161 -51q138 0 196 51.5t58 163.5v494q-3 5 -9.5 13t-30.5 28.5t-53 36t-79 28.5t-107 13q-101 0 -141.5 -51 t-40.5 -164v-398z" />
<glyph unicode="h" horiz-adv-x="1206" d="M47 45q0 9 2 17.5t4 13.5l2 4l146 22v1229l-146 23q-8 15 -8 35q0 9 2 17.5t4 12.5l2 4q72 15 211 15q26 0 53.5 -3t41.5 -5l14 -3v-507q5 5 14 12.5t40.5 27t66.5 34.5t91 27.5t115 12.5q162 0 234 -81.5t72 -241.5v-609l143 -22q8 -15 8 -35q0 -9 -2 -17.5t-4 -13.5 l-2 -4q-70 -14 -211 -14q-26 0 -53.5 2.5t-41.5 5.5l-14 2v705q0 112 -41.5 163.5t-144.5 51.5q-55 0 -102.5 -12.5t-77 -30t-51 -34.5t-30.5 -29l-9 -13v-705l145 -22q8 -15 8 -35q0 -9 -2 -17.5t-4 -13.5l-2 -4q-77 -14 -233 -14q-68 0 -126 3.5t-82 6.5l-24 4 q-8 15 -8 35z" />
<glyph unicode="i" horiz-adv-x="575" d="M47 45q0 9 2 17.5t4 13.5l2 4l146 22v820l-146 22q-8 15 -8 35q0 9 2 17.5t4 13.5l2 4q72 14 211 14q26 0 53.5 -2.5t41.5 -5.5l14 -2v-916l145 -22q8 -15 8 -35q0 -9 -2 -17.5t-4 -13.5l-2 -4q-77 -14 -233 -14q-68 0 -126 3.5t-82 6.5l-24 4q-8 15 -8 35zM201 1214v213 q41 11 86 11q20 0 42 -3t34 -5l12 -3v-213q-43 -10 -88 -10q-20 0 -41.5 2.5t-33.5 5.5z" />
<glyph unicode="j" horiz-adv-x="542" d="M-37 -344q0 12 2 25t4 19l2 7q52 -18 111 -18q82 0 113.5 40t31.5 128v1065l-143 22q-8 15 -8 35q0 9 2 17.5t4 13.5l2 4q72 14 211 14q26 0 53 -2.5t41 -5.5l14 -2v-1161q0 -137 -62 -207t-202 -70q-72 0 -168 25q-8 22 -8 51zM227 1214v213q43 11 88 11q20 0 42 -3 t34 -5l12 -3v-213q-43 -10 -88 -10q-20 0 -42 2.5t-34 5.5z" />
<glyph unicode="k" horiz-adv-x="1091" d="M47 45q0 9 2 17.5t4 13.5l2 4l146 22v1229l-146 23q-8 15 -8 35q0 9 2 17.5t4 12.5l2 4q72 15 211 15q25 0 52.5 -3t41.5 -5l15 -3v-874l121 41l225 338l-86 12q-6 15 -6 35q0 9 1.5 17.5t3.5 13.5l1 4q76 14 219 14q49 0 93 -3.5t63 -6.5l20 -4q8 -15 8 -35 q0 -9 -2 -17.5t-4 -13.5l-2 -4l-137 -22l-254 -383l276 -437l138 -22q8 -15 8 -35q0 -9 -2 -17.5t-4 -13.5l-2 -4q-68 -14 -166 -14q-23 0 -46.5 2.5t-35.5 5.5l-12 2l-297 473l-121 -41v-336l145 -22q8 -15 8 -35q0 -9 -2 -17.5t-4 -13.5l-2 -4q-79 -14 -233 -14 q-68 0 -126 3.5t-82 6.5l-24 4q-8 15 -8 35z" />
<glyph unicode="l" horiz-adv-x="575" d="M47 45q0 9 2 17.5t4 13.5l2 4l146 22v1229l-146 23q-8 15 -8 35q0 9 2 17.5t4 12.5l2 4q72 15 211 15q26 0 53.5 -3t41.5 -5l14 -3v-1325l145 -22q8 -15 8 -35q0 -9 -2 -17.5t-4 -13.5l-2 -4q-77 -14 -233 -14q-68 0 -126 3.5t-82 6.5l-24 4q-8 15 -8 35z" />
<glyph unicode="m" horiz-adv-x="1765" d="M47 45q0 9 2 17.5t4 13.5l2 4l146 22v820l-146 22q-8 15 -8 35q0 9 2 17.5t4 13.5l2 4q72 14 211 14q26 0 53.5 -2.5t41.5 -5.5l14 -2v-98q4 5 13 12.5t38.5 27t63 34.5t87 27.5t109.5 12.5q186 0 244 -114q5 5 15 12.5t44 27t72 34.5t98 27.5t123 12.5q151 0 218 -76.5 t67 -226.5v-629l143 -22q8 -15 8 -35q0 -9 -2 -17.5t-4 -13.5l-2 -4q-70 -14 -211 -14q-26 0 -53 2.5t-41 5.5l-14 2v725q0 102 -37 148.5t-131 46.5q-58 0 -106.5 -13t-78 -32.5t-45 -33.5t-22.5 -24v-721l145 -22q6 -15 6 -35q0 -9 -1.5 -17.5t-2.5 -13.5l-2 -4 q-79 -14 -233 -14q-61 0 -112.5 3.5t-72.5 6.5l-22 4q-8 15 -8 35q0 9 2 17.5t4 13.5l2 4l119 16v635q0 102 -37 148.5t-131 46.5q-51 0 -95.5 -12.5t-72 -30t-47.5 -34.5t-28 -29l-9 -13v-711l119 -16q8 -15 8 -35q0 -9 -2 -17.5t-4 -13.5l-2 -4q-70 -14 -207 -14 q-68 0 -126 3.5t-82 6.5l-24 4q-8 15 -8 35z" />
<glyph unicode="n" horiz-adv-x="1212" d="M47 45q0 9 2 17.5t4 13.5l2 4l146 22v820l-146 22q-8 15 -8 35q0 9 2 17.5t4 13.5l2 4q72 14 211 14q25 0 52.5 -2.5t41.5 -5.5l15 -2v-98q5 5 14 12.5t41 27t68 34.5t92.5 27.5t116.5 12.5q162 0 234.5 -81t72.5 -240v-611l143 -22q8 -15 8 -35q0 -9 -2 -17.5t-4 -13.5 l-2 -4q-70 -14 -211 -14q-25 0 -52 2.5t-42 5.5l-14 2v705q0 112 -42.5 163.5t-146.5 51.5q-56 0 -104.5 -12.5t-78.5 -30t-51.5 -34.5t-30.5 -29l-9 -13v-705l145 -22q8 -15 8 -35q0 -9 -2 -17.5t-4 -13.5l-2 -4q-79 -14 -233 -14q-68 0 -126 3.5t-82 6.5l-24 4 q-8 15 -8 35z" />
<glyph unicode="o" horiz-adv-x="1083" d="M123 313v398q0 159 99.5 241t318.5 82q221 0 320.5 -82t99.5 -241v-398q0 -159 -99.5 -241t-320.5 -82q-219 0 -318.5 82t-99.5 241zM299 313q0 -112 55 -163.5t187 -51.5t187.5 51.5t55.5 163.5v398q0 112 -55.5 163.5t-187.5 51.5t-187 -51.5t-55 -163.5v-398z" />
<glyph unicode="p" horiz-adv-x="1134" d="M47 -365q0 9 2 17.5t4 13.5l2 4l146 23v1229l-146 22q-8 15 -8 35q0 9 2 17.5t4 13.5l2 4q72 14 211 14q25 0 52.5 -2.5t41.5 -5.5l15 -2v-98q5 5 14 12.5t41.5 27t68.5 34.5t93.5 27.5t118.5 12.5q160 0 231.5 -81.5t71.5 -241.5v-398q0 -160 -83.5 -241.5t-271.5 -81.5 q-59 0 -109 8.5t-80 20.5t-52.5 26t-31.5 23.5t-11 15.5v-391l145 -23q8 -15 8 -35q0 -9 -2 -17.5t-4 -12.5l-2 -4q-79 -15 -233 -15q-68 0 -126 4t-82 8l-24 3q-8 14 -8 34zM375 313q0 -112 58 -163.5t196 -51.5q116 0 162.5 51t46.5 164v398q0 113 -41 164t-144 51 q-56 0 -105.5 -12.5t-79.5 -30t-52.5 -34.5t-31.5 -29l-9 -13v-494z" />
<glyph unicode="q" horiz-adv-x="1075" d="M123 313v398q0 160 71 241.5t230 81.5q61 0 118 -11.5t94.5 -28.5t67 -34t42.5 -28l14 -12v98q41 10 88 10q20 0 42 -2.5t34 -5.5l12 -2v-1325l145 -23q6 -15 6 -35q0 -9 -1.5 -17.5t-3.5 -12.5l-1 -4q-79 -15 -233 -15q-68 0 -126.5 4t-83.5 8l-24 3q-6 14 -6 34 q0 9 1.5 17.5t2.5 13.5l2 4l146 23v391q-4 -6 -12 -14.5t-31 -23.5t-52.5 -26.5t-80 -20.5t-109.5 -9q-186 0 -269 81.5t-83 241.5zM299 313q0 -113 46 -164t161 -51q138 0 196 51.5t58 163.5v494q-3 5 -9.5 13t-30.5 28.5t-53 36t-79 28.5t-107 13q-101 0 -141.5 -51 t-40.5 -164v-398z" />
<glyph unicode="r" horiz-adv-x="825" d="M47 45q0 9 2 17.5t4 13.5l2 4l146 22v820l-146 22q-8 15 -8 35q0 9 2 17.5t4 13.5l2 4q72 14 211 14q25 0 52.5 -2.5t41.5 -5.5l15 -2v-139q5 6 14.5 16.5t43.5 37.5t73 47t101.5 37t129.5 17q11 -24 11 -55q0 -15 -3 -29t-5 -21l-3 -7q-71 0 -134.5 -20.5t-103.5 -50 t-69.5 -59.5t-41.5 -50l-13 -21v-619l145 -22q8 -15 8 -35q0 -9 -2 -17.5t-4 -13.5l-2 -4q-79 -14 -233 -14q-68 0 -126 3.5t-82 6.5l-24 4q-8 15 -8 35z" />
<glyph unicode="s" horiz-adv-x="968" d="M113 68q0 64 4 125t8 89l4 29q18 6 49 6q13 0 25 -1.5t18 -3.5l6 -1l25 -166q97 -47 219 -47q117 0 164 41.5t47 132.5v41q0 38 -31 65t-80.5 43t-109 31t-119.5 34t-109.5 44.5t-80.5 71t-31 107.5v41q0 142 88 213t287 71q60 0 116.5 -8.5t94 -21t66.5 -25t43 -21.5 l13 -8q0 -64 -3.5 -124t-7.5 -88l-3 -29q-20 -9 -51 -9q-13 0 -25 2t-18 4l-6 3l-25 170q-84 47 -194 47q-111 0 -157 -42.5t-46 -133.5v-41q0 -35 31.5 -60t81.5 -41t111 -30.5t121.5 -34t110.5 -46.5t81.5 -74t31.5 -110v-41q0 -140 -91.5 -211t-299.5 -71q-65 0 -126 8 t-101.5 19.5t-71 23t-44.5 19.5z" />
<glyph unicode="t" horiz-adv-x="753" d="M47 975q0 9 2 17.5t4 13.5l2 4q52 12 152 12l18 201q35 10 76 10q16 0 34.5 -2.5t28.5 -4.5l11 -3v-199h284q11 -22 11 -55q0 -14 -3 -27.5t-5 -19.5l-3 -7h-284v-634q0 -96 38.5 -139.5t133.5 -43.5q42 0 112 21q11 -22 11 -49q0 -13 -3 -26t-5 -20l-3 -6 q-2 -1 -17.5 -5.5t-28.5 -7.5t-32.5 -7t-42.5 -6t-46 -2q-154 0 -222.5 73.5t-68.5 217.5v637l-146 22q-8 15 -8 35z" />
<glyph unicode="u" horiz-adv-x="1218" d="M47 979q0 9 2 17.5t4 13.5l2 4q72 14 211 14q25 0 52.5 -2.5t41.5 -5.5l15 -2v-705q0 -112 41.5 -163.5t144.5 -51.5q57 0 107.5 12.5t81 30t53 34.5t31.5 29l10 13v705l-146 22q-8 15 -8 35q0 9 2 17.5t4 13.5l2 4q72 14 213 14q24 0 51.5 -2.5t42.5 -5.5l15 -2v-916 l143 -22q8 -15 8 -35q0 -9 -2 -17.5t-4 -13.5l-2 -4q-72 -14 -211 -14q-25 0 -52 2.5t-42 5.5l-14 2v98q-5 -5 -14.5 -12.5t-42 -27t-69 -34.5t-95 -27.5t-119.5 -12.5q-162 0 -232.5 81.5t-70.5 241.5v609l-146 22q-8 15 -8 35z" />
<glyph unicode="v" horiz-adv-x="1218" d="M25 979q0 9 2 17.5t4 13.5l2 4q77 14 192 14q65 0 122 -3.5t81 -6.5l25 -4q6 -15 6 -35q0 -9 -1.5 -17.5t-3.5 -13.5l-1 -4l-115 -18l270 -793l271 793l-113 18q-8 15 -8 35q0 9 2 17.5t4 13.5l2 4q77 14 227 14q51 0 99.5 -3.5t71.5 -6.5l22 -4q8 -15 8 -35 q0 -9 -2 -17.5t-4 -13.5l-2 -4l-139 -22l-322 -916q-54 -10 -115 -10q-27 0 -56 2.5t-44 5.5l-16 2l-324 916l-137 22q-8 15 -8 35z" />
<glyph unicode="w" horiz-adv-x="1800" d="M25 979q0 9 2 17.5t4 13.5l2 4q77 14 198 14q67 0 124 -3.5t81 -6.5l23 -4q6 -15 6 -35q0 -9 -1.5 -17.5t-3.5 -13.5l-1 -4l-121 -20l221 -791l240 881q43 10 100 10q26 0 52.5 -2.5t39.5 -5.5l13 -2l239 -881l217 793l-119 18q-6 15 -6 35q0 9 1.5 17.5t3.5 13.5l1 4 q78 14 228 14q54 0 103.5 -3.5t71.5 -6.5l23 -4q9 -15 9 -35q0 -9 -2 -17.5t-4 -13.5l-3 -4l-139 -22l-266 -916q-54 -10 -115 -10q-27 0 -57 2.5t-46 5.5l-16 2l-229 854l-227 -854q-54 -10 -115 -10q-28 0 -57.5 2.5t-45.5 5.5l-16 2l-268 916l-137 22q-8 15 -8 35z" />
<glyph unicode="x" horiz-adv-x="1142" d="M33 45q0 9 1.5 17.5t3.5 13.5l1 4l135 22l287 418l-275 402l-145 22q-6 15 -6 35q0 9 1.5 17.5t3.5 13.5l1 4q80 14 170 14q63 0 118 -3.5t79 -6.5l24 -4q6 -15 6 -35q0 -9 -1.5 -17.5t-2.5 -13.5l-2 -4l-76 -8l213 -320l213 318l-77 10q-9 15 -9 35q0 9 2 17.5t4 13.5 l3 4q71 14 208 14q42 0 86.5 -3.5t68.5 -6.5l24 -4q6 -15 6 -35q0 -9 -1.5 -17.5t-2.5 -13.5l-2 -4l-140 -22l-272 -402l285 -418l139 -22q8 -15 8 -35q0 -9 -2 -17.5t-4 -13.5l-2 -4q-72 -14 -162 -14q-23 0 -47.5 2.5t-37.5 5.5l-13 2l-275 420l-225 -336l90 -10 q6 -15 6 -35q0 -9 -1.5 -17.5t-2.5 -13.5l-2 -4q-76 -14 -219 -14q-48 0 -92 3.5t-64 6.5l-20 4q-6 15 -6 35z" />
<glyph unicode="y" horiz-adv-x="1214" d="M25 979q0 9 2 17.5t4 13.5l2 4q77 14 190 14q67 0 124 -3.5t81 -6.5l23 -4q8 -15 8 -35q0 -9 -2 -17.5t-4 -13.5l-2 -4l-115 -18l270 -783l268 783l-110 18q-8 15 -8 35q0 9 2 17.5t4 13.5l2 4q78 14 225 14q51 0 99.5 -3.5t71.5 -6.5l22 -4q8 -15 8 -35q0 -9 -2 -17.5 t-4 -13.5l-2 -4l-140 -22l-383 -1065q-49 -142 -135.5 -209.5t-234.5 -67.5q-33 0 -63 4t-44 8l-14 5q-10 20 -10 51q0 14 2.5 27t5.5 19l2 7q47 -12 125 -12q154 0 209 164l53 145q-13 0 -26.5 2t-20.5 4l-8 2l-330 916l-137 22q-8 15 -8 35z" />
<glyph unicode="z" horiz-adv-x="987" d="M102 55q0 14 2 27.5t4 19.5l3 7l581 806h-473l-26 -157q-14 -6 -37 -6q-10 0 -20 1.5t-14 2.5l-5 2q-13 59 -13 196q0 18 2 35.5t4 26.5l3 8h755q11 -22 11 -55q0 -14 -2.5 -27.5t-5.5 -19.5l-3 -7l-579 -806h481l31 157q14 6 37 6q10 0 19 -1.5t13 -2.5l4 -2 q13 -59 13 -196q0 -18 -2.5 -35.5t-4.5 -26.5l-3 -8h-766q-9 20 -9 55z" />
<glyph unicode="{" horiz-adv-x="759" d="M76 616q0 15 2.5 29t5.5 21l2 6q116 0 164.5 51.5t48.5 163.5v330q0 159 89.5 241t287.5 82q8 -22 8 -55q0 -15 -2 -28t-4 -19l-2 -6q-117 0 -166 -51.5t-49 -163.5v-330q0 -205 -135 -271q135 -69 135 -268v-332q0 -112 49 -163.5t166 -51.5q8 -20 8 -53q0 -14 -2 -27.5 t-4 -20.5l-2 -7q-198 0 -287.5 82t-89.5 241v332q0 111 -49 163t-164 52q-10 20 -10 53z" />
<glyph unicode="|" horiz-adv-x="407" d="M133 -199v1729q35 10 72 10q16 0 33 -2.5t26 -5.5l10 -2v-1729q-34 -10 -69 -10q-16 0 -34 2.5t-28 4.5z" />
<glyph unicode="}" horiz-adv-x="759" d="M76 -252q0 15 2.5 28t5.5 19l2 6q116 0 164.5 51.5t48.5 163.5v332q0 198 137 268q-137 67 -137 271v330q0 112 -48.5 163.5t-164.5 51.5q-10 20 -10 53q0 15 2.5 28.5t5.5 20.5l2 6q197 0 286 -82t89 -241v-330q0 -112 49 -163.5t166 -51.5q8 -23 8 -56q0 -15 -2 -28 t-4 -19l-2 -6q-117 0 -166 -52t-49 -163v-332q0 -159 -89 -241t-286 -82q-10 24 -10 55z" />
<glyph unicode="~" horiz-adv-x="905" d="M96 520v8q0 109 40.5 161t142.5 52q50 0 90.5 -13.5t66.5 -32.5t48 -38.5t47.5 -33t54.5 -13.5q57 0 80.5 26.5t23.5 84.5v10q29 10 60 10q14 0 28.5 -2.5t22.5 -4.5l8 -3v-8q0 -111 -39 -163t-141 -52q-61 0 -110 21t-74 45.5t-57.5 45.5t-65.5 21q-57 0 -81 -26.5 t-24 -84.5v-10q-30 -10 -61 -10q-13 0 -28 2.5t-24 5.5z" />
<glyph unicode="&#xa2;" horiz-adv-x="1009" d="M123 313v398q0 147 80.5 227t261.5 92v193q35 10 72 10q16 0 34 -2.5t27 -4.5l10 -3v-193q87 -6 159 -26.5t101 -37.5l29 -18q0 -64 -4 -124.5t-8 -89.5l-4 -29q-21 -7 -50 -7q-13 0 -25 2t-18 4l-6 1l-24 169q-101 52 -221 52q-131 0 -184.5 -51.5t-53.5 -163.5v-398 q0 -113 56.5 -164t201.5 -51q90 0 171.5 18.5t118 35.5t36.5 20l1 -3q1 -3 3 -8t4 -11t3 -15t1 -18q0 -15 -3 -29t-6 -20l-3 -7q-10 -7 -30.5 -17.5t-91.5 -29t-153 -22.5v-191q-36 -10 -71 -10q-16 0 -34 2.5t-28 4.5l-10 3v195q-180 12 -261 92t-81 225z" />
<glyph unicode="&#xa3;" horiz-adv-x="1155" d="M55 57q0 16 2.5 31t5.5 22l3 7h112v508h-112q-11 20 -11 53q0 15 2.5 28.5t5.5 19.5l3 7h112v369q0 169 104 255.5t341 86.5q85 0 160 -14t120.5 -34t79 -40.5t47.5 -34.5l14 -14q0 -65 -4 -128.5t-8 -94.5l-4 -31q-22 -6 -53 -6q-14 0 -27 1.5t-20 3.5l-6 1l-27 184 q-4 4 -11 10t-32.5 21.5t-55 27.5t-76.5 21.5t-97 9.5q-146 0 -204.5 -53t-58.5 -172v-369h365q10 -22 10 -55q0 -15 -2.5 -28t-4.5 -19l-3 -6h-365v-508h682q11 -23 11 -60q0 -16 -2.5 -30t-5.5 -21l-3 -6h-976q-11 22 -11 57z" />
<glyph unicode="&#xa5;" horiz-adv-x="1355" d="M25 1386q0 10 2 19.5t4 13.5l2 4q84 15 207 15q90 0 162 -4t99 -8l27 -3q7 -14 7 -37q0 -11 -1.5 -20.5t-3.5 -13.5l-2 -4l-145 -17l295 -571l293 571l-144 17q-6 13 -6 38q0 10 1.5 19.5t3.5 13.5l1 4q86 15 289 15q55 0 106.5 -4t75.5 -8l25 -3q8 -14 8 -37 q0 -11 -2 -20.5t-4 -13.5l-2 -4l-162 -21l-385 -715h266q11 -16 11 -43q0 -11 -2.5 -22t-5.5 -16l-3 -5h-272v-168h270q11 -16 11 -43q0 -11 -2.5 -22t-5.5 -16l-3 -5h-270v-166l162 -20q6 -14 6 -39q0 -10 -1.5 -19.5t-2.5 -13.5l-2 -4q-86 -14 -254 -14q-75 0 -138.5 3.5 t-89.5 6.5l-26 4q-6 14 -6 37q0 11 1.5 21t2.5 14l2 4l162 20v166h-271q-10 16 -10 43q0 12 2.5 22.5t4.5 15.5l3 5h271v168h-271q-8 16 -8 43q0 12 2 22.5t4 15.5l2 5h263l-385 715l-160 21q-8 13 -8 38z" />
<glyph unicode="&#xa8;" horiz-adv-x="849" d="M139 1227v200q31 11 70 11q18 0 36 -3t27 -5l9 -3v-200q-33 -10 -72 -10q-17 0 -34.5 2.5t-26.5 4.5zM569 1227v200q31 11 70 11q18 0 36 -3t27 -5l9 -3v-200q-33 -10 -72 -10q-17 0 -34.5 2.5t-26.5 4.5z" />
<glyph unicode="&#xa9;" horiz-adv-x="1673" d="M129 492v450q0 122 39.5 213.5t123 157t220 98.5t324.5 33t324.5 -33t220.5 -98.5t123.5 -157t39.5 -213.5v-450q0 -122 -39.5 -213.5t-123.5 -157t-220.5 -98.5t-324.5 -33t-324.5 33t-220 98.5t-123 157t-39.5 213.5zM295 492q0 -137 51 -221.5t170.5 -128.5t319.5 -44 q201 0 320.5 44t169.5 128.5t50 221.5v450q0 137 -50 221t-169.5 128t-320.5 44q-200 0 -319.5 -43.5t-170.5 -128t-51 -221.5v-450zM594 537v368q0 89 59 134.5t191 45.5t184.5 -44.5t52.5 -135.5v-12q-24 -6 -49 -6l-53 6v12q0 57 -30 83t-105 26q-76 0 -105.5 -25.5 t-29.5 -83.5v-368q0 -57 32.5 -83t114.5 -26q58 0 110 11t75.5 21.5t23.5 12.5q6 -14 6 -37q0 -10 -1.5 -19.5t-3.5 -13.5l-1 -4q-9 -5 -25 -12t-70.5 -19t-113.5 -12q-140 0 -201 45.5t-61 135.5z" />
<glyph unicode="&#xab;" horiz-adv-x="985" d="M82 553l377 375q24 -8 49 -33q10 -10 19 -21.5t13 -17.5l3 -6l-295 -297l295 -297q-10 -22 -35 -45q-11 -10 -23 -18.5t-18 -11.5l-6 -3zM440 553l377 375q22 -8 47 -33q11 -10 20 -21.5t12 -17.5l3 -6l-295 -297l297 -297q-10 -22 -35 -45q-11 -10 -23.5 -18.5 t-18.5 -11.5l-7 -3z" />
<glyph unicode="&#xad;" d="M84 582q0 15 2.5 28.5t5.5 19.5l2 7h422q8 -22 8 -55q0 -14 -2 -27.5t-4 -20.5l-2 -6h-422q-10 21 -10 54z" />
<glyph unicode="&#xae;" horiz-adv-x="1673" d="M129 492v450q0 122 39.5 213.5t123 157t220 98.5t324.5 33t324.5 -33t220.5 -98.5t123.5 -157t39.5 -213.5v-450q0 -122 -39.5 -213.5t-123.5 -157t-220.5 -98.5t-324.5 -33t-324.5 33t-220 98.5t-123 157t-39.5 213.5zM295 492q0 -137 51 -221.5t170.5 -128.5t319.5 -44 q201 0 320.5 44t169.5 128.5t50 221.5v450q0 137 -50 221t-169.5 128t-320.5 44q-200 0 -319.5 -43.5t-170.5 -128t-51 -221.5v-450zM610 360v711q91 8 230 8q128 0 185.5 -44.5t57.5 -133.5v-61q0 -136 -135 -168l164 -312q-28 -4 -57 -4l-60 4l-155 302l-117 4v-306 q-28 -4 -57 -4zM723 733h117q71 0 101 25t30 82v61q0 57 -30 83t-101 26h-117v-277z" />
<glyph unicode="&#xb4;" horiz-adv-x="440" d="M31 1171l213 256q39 11 84 11q18 0 39 -3t33 -5l12 -3l-267 -256q-30 -10 -57 -10q-15 0 -29 2.5t-21 4.5z" />
<glyph unicode="&#xb8;" horiz-adv-x="1034" d="M362 -276q0 9 2 18t4 14l3 4q51 -32 123 -32q52 0 75 18.5t23 58.5q0 21 -14.5 32.5t-35 18.5t-40.5 17t-34.5 35.5t-14.5 66.5v25h104v-25q0 -27 14.5 -43.5t34.5 -24.5t40.5 -17.5t35 -30.5t14.5 -54q0 -73 -45.5 -113t-136.5 -40q-44 0 -79.5 9t-49.5 19l-14 9 q-9 15 -9 35z" />
<glyph unicode="&#xbb;" horiz-adv-x="985" d="M82 850q10 22 35 45q11 10 23 18.5t18 11.5l6 3l379 -375l-377 -375q-22 10 -49 33q-10 10 -18.5 21.5t-11.5 17.5l-3 6l295 297zM440 256l295 297l-295 297q10 22 35 45q10 10 22 18.5t19 11.5l6 3l379 -375l-379 -375q-22 10 -47 33q-11 10 -20 21.5t-12 17.5z" />
<glyph unicode="&#x2c6;" horiz-adv-x="440" d="M-68 1184l209 243q37 11 78 11q18 0 38.5 -3t32.5 -5l11 -3l207 -243q-26 -10 -57 -10q-13 0 -27.5 2.5t-22.5 5.5l-8 2l-172 174l-172 -174q-30 -10 -57 -10q-15 0 -30 2.5t-22 5.5z" />
<glyph unicode="&#x2da;" horiz-adv-x="649" d="M154 1266v34q0 66 42 103t128 37q88 0 130 -37t42 -103v-34q0 -66 -42 -103t-130 -37q-86 0 -128 37t-42 103zM233 1266q0 -76 91 -76q49 0 70.5 19t21.5 57v34q0 38 -21 56t-71 18q-48 0 -69.5 -18t-21.5 -56v-34z" />
<glyph unicode="&#x2dc;" horiz-adv-x="833" d="M104 1247v10q0 91 35.5 135t124.5 44q54 0 96.5 -18t64 -39.5t50.5 -39.5t60 -18q50 0 70 21.5t20 72.5v10q24 11 51 11q12 0 24.5 -3t19.5 -5l7 -3v-8q0 -93 -35 -136.5t-125 -43.5q-54 0 -96.5 18t-64 39.5t-50 39.5t-57.5 18q-51 0 -70.5 -22t-19.5 -73v-10 q-24 -10 -53 -10q-12 0 -25 2.5t-20 4.5z" />
<glyph unicode="&#x400;" horiz-adv-x="1136" d="M51 47q0 11 2 21t4 14l2 4l162 20v1221l-162 21q-8 13 -8 38q0 10 2 19.5t4 13.5l2 4q233 11 574 11h416q10 -31 10 -76q0 -72 -3.5 -129t-7.5 -78l-4 -21q-13 -6 -38 -6l-37 6l-33 187h-533v-522h521q10 -23 10 -58q0 -16 -2.5 -30t-5.5 -21l-2 -6h-521v-563h543l33 186 q17 6 37 6q11 0 21 -1.5t14 -3.5l4 -1q14 -65 14 -227q0 -20 -2.5 -39t-4.5 -28l-3 -9h-426q-152 0 -295.5 2.5t-211.5 5.5l-67 2q-8 14 -8 37zM412 1798q43 10 86 10q19 0 39.5 -2.5t31.5 -5.5l11 -2l215 -256q-27 -10 -58 -10q-13 0 -27.5 2.5t-23.5 5.5l-8 2z" />
<glyph unicode="&#x401;" horiz-adv-x="1136" d="M51 47q0 11 2 21t4 14l2 4l162 20v1221l-162 21q-8 13 -8 38q0 10 2 19.5t4 13.5l2 4q233 11 574 11h416q10 -31 10 -76q0 -72 -3.5 -129t-7.5 -78l-4 -21q-13 -6 -38 -6l-37 6l-33 187h-533v-522h521q10 -23 10 -58q0 -16 -2.5 -30t-5.5 -21l-2 -6h-521v-563h543l33 186 q17 6 37 6q11 0 21 -1.5t14 -3.5l4 -1q14 -65 14 -227q0 -20 -2.5 -39t-4.5 -28l-3 -9h-426q-152 0 -295.5 2.5t-211.5 5.5l-67 2q-8 14 -8 37zM367 1542v203q30 10 71 10q17 0 34.5 -2.5t26.5 -4.5l9 -3v-203q-31 -10 -70 -10q-18 0 -36 2.5t-26 5.5zM797 1542v203 q30 10 71 10q17 0 34.5 -2.5t26.5 -4.5l9 -3v-203q-31 -10 -70 -10q-18 0 -36 2.5t-26 5.5z" />
<glyph unicode="&#x402;" horiz-adv-x="1501" d="M63 1358q0 20 2.5 39t5.5 28l3 9h1073q8 -31 8 -76q0 -72 -3 -129t-6 -78l-3 -21q-14 -6 -39 -6q-10 0 -19.5 1.5t-13.5 2.5l-4 2l-35 187h-327v-508q5 4 15 10.5t45 23.5t73.5 30t100 23.5t126.5 10.5q177 0 255.5 -83t78.5 -246v-312q0 -137 -60.5 -206.5t-195.5 -69.5 q-72 0 -164 24q-8 23 -8 52q0 12 2 25t4 19l2 7q55 -19 100 -19q76 0 105.5 40t29.5 128v312q0 111 -45.5 162t-160.5 51q-60 0 -114 -11t-84 -23t-59.5 -31.5t-33 -23l-12.5 -12.5v-584l145 -20q6 -14 6 -39q0 -10 -1.5 -19.5t-2.5 -13.5l-2 -4q-78 -14 -238 -14 q-75 0 -138.5 3.5t-89.5 6.5l-26 4q-6 14 -6 37q0 11 1.5 21t2.5 14l2 4l162 20v1211h-334l-32 -187q-16 -6 -39 -6q-10 0 -19.5 1.5t-13.5 2.5l-4 2q-15 66 -15 228z" />
<glyph unicode="&#x403;" horiz-adv-x="1079" d="M51 47q0 11 2 21t4 14l2 4l162 20v1221l-162 21q-8 13 -8 38q0 10 2 19.5t4 13.5l2 4q233 11 574 11h368q9 -31 9 -76q0 -72 -3 -129t-7 -78l-3 -21q-14 -6 -39 -6q-10 0 -19 1.5t-13 2.5l-4 2l-35 187h-484v-1211l162 -20q8 -14 8 -39q0 -10 -2 -19.5t-4 -13.5l-2 -4 q-84 -14 -254 -14q-75 0 -138 3.5t-89 6.5l-25 4q-8 14 -8 37zM475 1542l215 256q39 10 82 10q19 0 40 -2.5t32 -5.5l12 -2l-266 -256q-29 -10 -58 -10q-14 0 -28 2.5t-22 5.5z" />
<glyph unicode="&#x404;" horiz-adv-x="1173" d="M123 332v770q0 169 114.5 255.5t372.5 86.5q90 0 169.5 -14t128 -34t84 -40.5t50.5 -34.5l15 -14q0 -65 -4.5 -128.5t-8.5 -94.5l-4 -31q-22 -6 -53 -6q-14 0 -27 1.5t-20 3.5l-6 1l-27 184q-4 4 -12 10t-36 21.5t-60 27.5t-83 21.5t-106 9.5q-169 0 -236 -53t-67 -172 v-314h600q11 -24 11 -59q0 -16 -3 -30t-5 -21l-3 -6h-600v-340q0 -119 72 -172.5t252 -53.5q72 0 140.5 9.5t115.5 22t83.5 26.5t54 23t17.5 10q13 -23 13 -60q0 -16 -3.5 -31t-6.5 -22l-3 -6q-6 -4 -17 -9.5t-50.5 -21t-83.5 -27t-114.5 -21t-145.5 -9.5q-183 0 -297 41 t-162.5 115t-48.5 186z" />
<glyph unicode="&#x405;" horiz-adv-x="1183" d="M123 121q0 65 4 128t8 93l4 31q21 8 54 8q14 0 26.5 -2t18.5 -4l6 -2l26 -185q4 -3 13 -8.5t39 -20t63.5 -25t88 -19.5t112.5 -9q160 0 225.5 53.5t65.5 172.5v96q0 50 -25 89t-68 64t-98.5 45t-116.5 37t-122 35t-116.5 44t-98.5 60t-68 86t-25 118v96q0 170 108.5 256 t354.5 86q87 0 162.5 -13.5t121 -33t79.5 -38.5t47 -33l14 -13q0 -65 -4 -128t-8 -93l-4 -31q-21 -8 -54 -8q-14 0 -27 2t-19 4l-7 2l-24 184q-4 3 -11.5 8.5t-33.5 20t-56 25t-77.5 19.5t-98.5 9q-153 0 -216.5 -54t-63.5 -171v-96q0 -59 41 -101t106 -67t144 -46.5 t157.5 -48.5t143.5 -63t106 -100.5t41 -151.5v-96q0 -170 -112 -256t-361 -86q-94 0 -176.5 13.5t-133 33t-87.5 38.5t-53 33z" />
<glyph unicode="&#x406;" horiz-adv-x="624" d="M51 47q0 11 2 21t4 14l2 4l162 20v1221l-162 21q-8 13 -8 38q0 10 2 19.5t4 13.5l2 4q84 15 252 15q76 0 139.5 -4t89.5 -8l25 -3q8 -14 8 -37q0 -11 -2 -20.5t-4 -13.5l-2 -4l-162 -21v-1221l162 -20q8 -14 8 -39q0 -10 -2 -19.5t-4 -13.5l-2 -4q-84 -14 -254 -14 q-75 0 -138 3.5t-89 6.5l-25 4q-8 14 -8 37z" />
<glyph unicode="&#x407;" horiz-adv-x="624" d="M51 47q0 11 2 21t4 14l2 4l162 20v1221l-162 21q-8 13 -8 38q0 10 2 19.5t4 13.5l2 4q84 15 252 15q76 0 139.5 -4t89.5 -8l25 -3q8 -14 8 -37q0 -11 -2 -20.5t-4 -13.5l-2 -4l-162 -21v-1221l162 -20q8 -14 8 -39q0 -10 -2 -19.5t-4 -13.5l-2 -4q-84 -14 -254 -14 q-75 0 -138 3.5t-89 6.5l-25 4q-8 14 -8 37zM59 1542v201q31 10 70 10q18 0 36 -2.5t27 -4.5l9 -3v-201q-33 -10 -72 -10q-17 0 -34.5 2.5t-26.5 5.5zM424 1542v201q31 10 72 10q17 0 34.5 -2.5t25.5 -4.5l9 -3v-201q-30 -10 -69 -10q-18 0 -36 2.5t-27 5.5z" />
<glyph unicode="&#x408;" horiz-adv-x="978" d="M35 137q0 16 3 31t6 22l3 7q0 -1 12.5 -10t39.5 -23t60.5 -26.5t83 -22t101.5 -9.5q128 0 178.5 53.5t50.5 172.5v995l-161 21q-6 13 -6 38q0 10 1.5 19.5t2.5 13.5l2 4q86 15 254 15q76 0 139.5 -4t88.5 -8l26 -3q6 -14 6 -37q0 -11 -1.5 -20.5t-2.5 -13.5l-2 -4 l-162 -21v-995q0 -169 -96.5 -255.5t-315.5 -86.5q-55 0 -106 9t-84.5 22t-59.5 26t-38 22l-11 9q-12 22 -12 59z" />
<glyph unicode="&#x409;" horiz-adv-x="1976" d="M31 49q0 16 2.5 30t4.5 21l3 6q96 0 132.5 50t51.5 168l131 1003l-159 21q-9 13 -9 38q0 10 2 19.5t4 13.5l3 4q228 15 557 15q139 0 275.5 -4t203.5 -8l67 -3q9 -14 9 -37q0 -11 -2.5 -20.5t-4.5 -13.5l-2 -4l-161 -21v-502q110 6 264 6q248 0 359.5 -89t111.5 -263 v-135q0 -174 -112 -263t-359 -89q-161 0 -313 4.5t-224 9.5l-71 4q-9 14 -9 37q0 11 2 21t4 14l3 4l161 20v1211h-426l-131 -993q-11 -86 -31 -143t-59.5 -102.5t-105.5 -67t-162 -21.5q-10 24 -10 59zM1139 106h264q156 0 221.5 57t65.5 181v135q0 124 -65.5 181t-221.5 57 h-264v-611z" />
<glyph unicode="&#x40a;" horiz-adv-x="2066" d="M51 47q0 11 2 21t4 14l2 4l162 20v1221l-162 21q-8 13 -8 38q0 10 2 19.5t4 13.5l2 4q84 15 252 15q76 0 139.5 -4t89.5 -8l25 -3q8 -14 8 -37q0 -11 -2 -20.5t-4 -13.5l-2 -4l-162 -21v-534h644v534l-162 21q-8 13 -8 38q0 10 2 19.5t4 13.5l2 4q84 15 252 15 q76 0 139.5 -4t89.5 -8l25 -3q8 -14 8 -37q0 -11 -2 -20.5t-4 -13.5l-2 -4l-162 -21v-502q110 6 264 6q248 0 359.5 -89t111.5 -263v-135q0 -174 -112 -263t-359 -89q-166 0 -318 4.5t-221 9.5l-69 4q-8 14 -8 37q0 11 2 21t4 14l2 4l162 20v570h-644v-570l162 -20 q8 -14 8 -39q0 -10 -2 -19.5t-4 -13.5l-2 -4q-84 -14 -254 -14q-75 0 -138 3.5t-89 6.5l-25 4q-8 14 -8 37zM1229 106h264q155 0 221 57t66 181v135q0 124 -66 181t-221 57h-264v-611z" />
<glyph unicode="&#x40b;" horiz-adv-x="1619" d="M63 1358q0 20 2.5 39t5.5 28l3 9h1073q8 -31 8 -76q0 -72 -3 -129t-6 -78l-3 -21q-14 -6 -39 -6q-10 0 -19.5 1.5t-13.5 2.5l-4 2l-35 187h-327v-508q5 4 15 10.5t45 23.5t73.5 30t100 23.5t126.5 10.5q177 0 255.5 -83t78.5 -246v-472l162 -20q6 -14 6 -39 q0 -10 -1.5 -19.5t-3.5 -13.5l-1 -4q-86 -14 -254 -14q-72 0 -132.5 3.5t-84.5 6.5l-25 4q-6 14 -6 37q0 11 1.5 21t3.5 14l1 4l149 20v472q0 111 -45.5 162t-160.5 51q-60 0 -114 -11t-84 -23t-59.5 -31.5t-33 -23l-12.5 -12.5v-584l149 -20q6 -14 6 -39q0 -10 -1.5 -19.5 t-2.5 -13.5l-2 -4q-80 -14 -242 -14q-75 0 -138.5 3.5t-89.5 6.5l-26 4q-6 14 -6 37q0 11 1.5 21t2.5 14l2 4l162 20v1211h-334l-32 -187q-16 -6 -39 -6q-10 0 -19.5 1.5t-13.5 2.5l-4 2q-15 66 -15 228z" />
<glyph unicode="&#x40c;" horiz-adv-x="1316" d="M51 47q0 11 2 21t4 14l2 4l162 20v1221l-162 21q-8 13 -8 38q0 10 2 19.5t4 13.5l2 4q84 15 252 15q76 0 139.5 -4t89.5 -8l25 -3q8 -14 8 -37q0 -11 -2 -20.5t-4 -13.5l-2 -4l-162 -21v-567l160 45l338 530l-119 13q-8 13 -8 38q0 10 2 19.5t4 13.5l2 4q85 15 273 15 q50 0 99.5 -4t73.5 -8l25 -3q7 -14 7 -37q0 -11 -2 -20.5t-4 -13.5l-1 -4l-163 -21l-367 -584l389 -637l162 -20q8 -14 8 -39q0 -10 -2 -19.5t-4 -13.5l-2 -4q-84 -14 -201 -14q-87 0 -156.5 3.5t-95.5 6.5l-26 4q-9 14 -9 37q0 11 2 21t4 14l3 4l125 12l-357 584l-160 -43 v-533l162 -20q8 -14 8 -39q0 -10 -2 -19.5t-4 -13.5l-2 -4q-84 -14 -254 -14q-75 0 -138 3.5t-89 6.5l-25 4q-8 14 -8 37zM512 1542l213 256q39 10 84 10q19 0 40 -2.5t33 -5.5l11 -2l-266 -256q-29 -10 -58 -10q-14 0 -28 2.5t-21 5.5z" />
<glyph unicode="&#x40d;" horiz-adv-x="1447" d="M51 47q0 11 2 21t4 14l2 4l162 20v1221l-162 21q-8 13 -8 38q0 10 2 19.5t4 13.5l2 4q84 15 252 15q76 0 139.5 -4t89.5 -8l25 -3q8 -14 8 -37q0 -11 -2 -20.5t-4 -13.5l-2 -4l-162 -21v-975l641 926v49l-161 21q-9 13 -9 38q0 10 2 19.5t4 13.5l3 4q84 15 254 15 q75 0 138 -4t89 -8l25 -3q8 -14 8 -37q0 -11 -2 -20.5t-4 -13.5l-2 -4l-162 -21v-1221l162 -20q8 -14 8 -39q0 -10 -2 -19.5t-4 -13.5l-2 -4q-84 -14 -252 -14q-76 0 -139.5 3.5t-89.5 6.5l-25 4q-9 14 -9 37q0 11 2 21t4 14l3 4l161 20v963l-641 -928v-35l162 -20 q8 -14 8 -39q0 -10 -2 -19.5t-4 -13.5l-2 -4q-84 -14 -254 -14q-75 0 -138 3.5t-89 6.5l-25 4q-8 14 -8 37zM485 1798q43 10 86 10q19 0 39.5 -2.5t31.5 -5.5l11 -2l215 -256q-26 -10 -57 -10q-13 0 -27.5 2.5t-23.5 5.5l-8 2z" />
<glyph unicode="&#x40e;" horiz-adv-x="1384" d="M29 1386q0 10 2 19.5t4 13.5l2 4q84 15 211 15q86 0 155 -4t95 -8l26 -3q8 -14 8 -37q0 -11 -2 -20.5t-4 -13.5l-2 -4l-149 -17l319 -774l314 774l-148 17q-8 13 -8 38q0 10 2 19.5t4 13.5l2 4q84 15 277 15q56 0 109.5 -4t78.5 -8l25 -3q6 -14 6 -37q0 -11 -1.5 -20.5 t-2.5 -13.5l-2 -4l-162 -21l-416 -1016q-69 -169 -165 -245t-265 -76q-43 0 -83 4t-59 8l-18 4q-10 22 -10 55q0 15 2.5 29t5.5 20l2 7q60 -11 160 -11q98 0 161.5 50t100.5 153l37 103q-15 0 -30.5 2t-24.5 4l-8 2l-381 907l-160 21q-8 13 -8 38zM424 1743v20q28 11 59 11 q14 0 29.5 -3t23.5 -5l9 -3v-20q0 -69 32.5 -99t116.5 -30q85 0 118.5 30t33.5 99v20q28 11 59 11q14 0 29.5 -3t23.5 -5l9 -3v-20q0 -107 -61.5 -159t-211.5 -52t-210 52t-60 159z" />
<glyph unicode="&#x40f;" horiz-adv-x="1443" d="M51 47q0 11 2 21t4 14l2 4l162 20v1221l-162 21q-8 13 -8 38q0 10 2 19.5t4 13.5l2 4q84 15 252 15q76 0 139.5 -4t89.5 -8l25 -3q8 -14 8 -37q0 -11 -2 -20.5t-4 -13.5l-2 -4l-162 -21v-1210h635v1210l-161 21q-7 13 -7 38q0 10 2 19.5t4 13.5l1 4q85 15 253 15 q76 0 139.5 -4t88.5 -8l26 -3q7 -14 7 -37q0 -11 -1.5 -20.5t-3.5 -13.5l-2 -4l-161 -21v-1221l161 -20q7 -14 7 -39q0 -10 -1.5 -19.5t-3.5 -13.5l-2 -4q-230 -14 -585 -14v-283q-37 -10 -74 -10q-17 0 -36 2.5t-29 4.5l-11 3v283q-159 0 -306.5 3.5t-215.5 6.5l-68 4 q-8 14 -8 37z" />
<glyph unicode="&#x410;" horiz-adv-x="1460" d="M29 47q0 11 2 21t4 14l2 4l151 20l387 1221l-153 21q-6 13 -6 38q0 10 1.5 19.5t2.5 13.5l2 4q104 15 309 15q29 0 60 -3t47 -5l16 -3l418 -1321l151 -20q9 -14 9 -39q0 -10 -2 -19.5t-4 -13.5l-3 -4q-80 -14 -211 -14q-88 0 -158 3.5t-96 6.5l-26 4q-8 14 -8 37 q0 11 2 21t4 14l2 4l162 20l-99 314h-528l-100 -314l163 -20q7 -14 7 -39q0 -10 -1.5 -19.5t-3.5 -13.5l-2 -4q-85 -14 -282 -14q-58 0 -111 3.5t-77 6.5l-23 4q-8 14 -8 37zM494 537h473l-236 755z" />
<glyph unicode="&#x411;" horiz-adv-x="1265" d="M51 47q0 11 2 21t4 14l2 4l162 20v1221l-162 21q-8 13 -8 38q0 10 2 19.5t4 13.5l2 4q233 11 574 11h436q10 -31 10 -76q0 -72 -3.5 -129t-7.5 -78l-3 -21q-14 -6 -39 -6q-10 0 -19.5 1.5t-13.5 2.5l-4 2l-33 187h-553v-486q105 9 267 9q250 0 361.5 -90t111.5 -265v-141 q0 -175 -111 -262.5t-362 -87.5q-174 0 -326.5 4t-218.5 8l-66 4q-8 14 -8 37zM403 106h267q159 0 223.5 56.5t64.5 181.5v141q0 126 -64.5 182t-223.5 56h-267v-617z" />
<glyph unicode="&#x412;" horiz-adv-x="1288" d="M51 47q0 10 2 20t4 15l2 4l162 18v1225l-162 19q-8 15 -8 38q0 10 2 19.5t4 13.5l2 4q229 19 619 19q242 0 351.5 -87t109.5 -257v-76q0 -224 -219 -285q245 -61 245 -295v-100q0 -172 -115.5 -261t-371.5 -89q-174 0 -328.5 4.5t-222.5 9.5l-68 4q-8 14 -8 37zM403 106 h275q165 0 234 56.5t69 179.5v100q0 122 -69.5 180t-233.5 58h-275v-574zM403 793h275q150 0 213 55t63 174v76q0 118 -63 172.5t-213 54.5h-275v-532z" />
<glyph unicode="&#x413;" horiz-adv-x="1079" d="M51 47q0 11 2 21t4 14l2 4l162 20v1221l-162 21q-8 13 -8 38q0 10 2 19.5t4 13.5l2 4q233 11 574 11h368q9 -31 9 -76q0 -72 -3 -129t-7 -78l-3 -21q-14 -6 -39 -6q-10 0 -19 1.5t-13 2.5l-4 2l-35 187h-484v-1211l162 -20q8 -14 8 -39q0 -10 -2 -19.5t-4 -13.5l-2 -4 q-84 -14 -254 -14q-75 0 -138 3.5t-89 6.5l-25 4q-8 14 -8 37z" />
<glyph unicode="&#x414;" horiz-adv-x="1439" d="M63 10q0 25 3.5 49t6.5 35l3 12q108 0 156.5 58.5t62.5 179.5l119 983l-160 21q-8 13 -8 38q0 10 2 19.5t4 13.5l2 4q237 15 553 15q145 0 281 -4t200 -8l64 -3q6 -14 6 -37q0 -11 -1.5 -20.5t-2.5 -13.5l-2 -4l-162 -21v-1210q45 0 87.5 -2t62.5 -4l20 -2q12 -42 12 -99 q0 -95 -3.5 -169.5t-6.5 -102.5l-4 -27q-20 -6 -51 -6q-13 0 -25.5 1.5t-18.5 3.5l-6 1l-53 289h-973l-53 -289q-20 -6 -49 -6q-14 0 -26 1.5t-17 3.5l-6 1q-17 86 -17 299zM375 117h631v1200h-422l-117 -973q-22 -172 -92 -227z" />
<glyph unicode="&#x415;" horiz-adv-x="1136" d="M51 47q0 11 2 21t4 14l2 4l162 20v1221l-162 21q-8 13 -8 38q0 10 2 19.5t4 13.5l2 4q233 11 574 11h416q10 -31 10 -76q0 -72 -3.5 -129t-7.5 -78l-4 -21q-13 -6 -38 -6l-37 6l-33 187h-533v-522h521q10 -23 10 -58q0 -16 -2.5 -30t-5.5 -21l-2 -6h-521v-563h543l33 186 q17 6 37 6q11 0 21 -1.5t14 -3.5l4 -1q14 -65 14 -227q0 -20 -2.5 -39t-4.5 -28l-3 -9h-426q-152 0 -295.5 2.5t-211.5 5.5l-67 2q-8 14 -8 37z" />
<glyph unicode="&#x416;" horiz-adv-x="1918" d="M35 47q0 11 2 21t4 14l2 4l160 20l348 642l-322 579l-159 21q-9 13 -9 38q0 10 2.5 19.5t4.5 13.5l2 4q83 15 206 15q79 0 143 -4t89 -8l24 -3q9 -14 9 -37q0 -11 -2.5 -20.5t-4.5 -13.5l-2 -4l-112 -11l293 -528l153 -45v563l-151 21q-8 13 -8 38q0 10 2 19.5t4 13.5 l2 4q79 15 243 15q73 0 134.5 -4t86.5 -8l25 -3q8 -14 8 -37q0 -11 -2 -20.5t-4 -13.5l-2 -4l-153 -21v-563l155 45l293 528l-115 11q-6 13 -6 38q0 10 1.5 19.5t2.5 13.5l2 4q80 15 258 15q54 0 105.5 -4t76.5 -8l25 -3q6 -14 6 -37q0 -11 -1.5 -20.5t-3.5 -13.5l-1 -4 l-163 -21l-320 -579l348 -642l162 -20q6 -14 6 -39q0 -10 -1.5 -19.5t-2.5 -13.5l-2 -4q-86 -14 -209 -14q-82 0 -149 3.5t-93 6.5l-26 4q-8 14 -8 37q0 11 2 21t4 14l2 4l123 12l-316 588l-155 -43v-537l153 -20q8 -14 8 -39q0 -10 -2 -19.5t-4 -13.5l-2 -4 q-82 -14 -246 -14q-72 0 -133 3.5t-85 6.5l-25 4q-8 14 -8 37q0 11 2 21t4 14l2 4l151 20v537l-153 43l-318 -588l125 -12q6 -14 6 -39q0 -10 -1.5 -19.5t-2.5 -13.5l-2 -4q-86 -14 -270 -14q-55 0 -106.5 3.5t-75.5 6.5l-25 4q-8 14 -8 37z" />
<glyph unicode="&#x417;" horiz-adv-x="1124" d="M88 137q0 16 3 31t6 22l3 7q0 -1 17 -10t53.5 -23t83 -26.5t114.5 -22t140 -9.5q169 0 239 56.5t70 179.5v100q0 120 -69 177t-232 57h-178q-10 22 -10 57q0 16 2.5 31t5.5 22l2 7h178q150 0 213.5 55t63.5 174v76q0 118 -61.5 173.5t-205.5 55.5q-55 0 -104.5 -9.5 t-81 -22.5t-55 -26t-33.5 -23l-10 -9l-27 -184q-22 -6 -53 -6q-14 0 -27 1.5t-19 3.5l-7 1q-15 107 -15 254q4 6 13 15t45 32.5t80.5 41.5t123.5 33t170 15q235 0 342 -88t107 -258v-76q0 -224 -217 -285q243 -61 243 -295v-100q0 -172 -117 -262t-374 -90q-76 0 -146 9 t-116 22t-81 26t-51 22l-16 9q-12 22 -12 59z" />
<glyph unicode="&#x418;" horiz-adv-x="1447" d="M51 47q0 11 2 21t4 14l2 4l162 20v1221l-162 21q-8 13 -8 38q0 10 2 19.5t4 13.5l2 4q84 15 252 15q76 0 139.5 -4t89.5 -8l25 -3q8 -14 8 -37q0 -11 -2 -20.5t-4 -13.5l-2 -4l-162 -21v-975l641 926v49l-161 21q-9 13 -9 38q0 10 2 19.5t4 13.5l3 4q84 15 254 15 q75 0 138 -4t89 -8l25 -3q8 -14 8 -37q0 -11 -2 -20.5t-4 -13.5l-2 -4l-162 -21v-1221l162 -20q8 -14 8 -39q0 -10 -2 -19.5t-4 -13.5l-2 -4q-84 -14 -252 -14q-76 0 -139.5 3.5t-89.5 6.5l-25 4q-9 14 -9 37q0 11 2 21t4 14l3 4l161 20v963l-641 -928v-35l162 -20 q8 -14 8 -39q0 -10 -2 -19.5t-4 -13.5l-2 -4q-84 -14 -254 -14q-75 0 -138 3.5t-89 6.5l-25 4q-8 14 -8 37z" />
<glyph unicode="&#x419;" horiz-adv-x="1447" d="M51 47q0 11 2 21t4 14l2 4l162 20v1221l-162 21q-8 13 -8 38q0 10 2 19.5t4 13.5l2 4q84 15 252 15q76 0 139.5 -4t89.5 -8l25 -3q8 -14 8 -37q0 -11 -2 -20.5t-4 -13.5l-2 -4l-162 -21v-975l641 926v49l-161 21q-9 13 -9 38q0 10 2 19.5t4 13.5l3 4q84 15 254 15 q75 0 138 -4t89 -8l25 -3q8 -14 8 -37q0 -11 -2 -20.5t-4 -13.5l-2 -4l-162 -21v-1221l162 -20q8 -14 8 -39q0 -10 -2 -19.5t-4 -13.5l-2 -4q-84 -14 -252 -14q-76 0 -139.5 3.5t-89.5 6.5l-25 4q-9 14 -9 37q0 11 2 21t4 14l3 4l161 20v963l-641 -928v-35l162 -20 q8 -14 8 -39q0 -10 -2 -19.5t-4 -13.5l-2 -4q-84 -14 -254 -14q-75 0 -138 3.5t-89 6.5l-25 4q-8 14 -8 37zM453 1743v20q28 11 59 11q15 0 30 -3t23 -5l8 -3v-20q0 -69 33 -99t117 -30t117.5 30t33.5 99v20q29 11 60 11q15 0 30 -3t23 -5l8 -3v-20q0 -107 -60.5 -159 t-211.5 -52q-150 0 -210 52t-60 159z" />
<glyph unicode="&#x41a;" horiz-adv-x="1318" d="M51 47q0 11 2 21t4 14l2 4l162 20v1221l-162 21q-8 13 -8 38q0 10 2 19.5t4 13.5l2 4q84 15 252 15q76 0 139.5 -4t89.5 -8l25 -3q8 -14 8 -37q0 -11 -2 -20.5t-4 -13.5l-2 -4l-162 -21v-567l160 45l338 530l-119 13q-8 13 -8 38q0 10 2 19.5t4 13.5l2 4q85 15 273 15 q50 0 99.5 -4t73.5 -8l25 -3q7 -14 7 -37q0 -11 -2 -20.5t-4 -13.5l-1 -4l-163 -21l-367 -584l389 -637l162 -20q8 -14 8 -39q0 -10 -2 -19.5t-4 -13.5l-2 -4q-84 -14 -201 -14q-87 0 -156.5 3.5t-95.5 6.5l-26 4q-9 14 -9 37q0 11 2 21t4 14l3 4l125 12l-357 584l-160 -43 v-533l162 -20q8 -14 8 -39q0 -10 -2 -19.5t-4 -13.5l-2 -4q-84 -14 -254 -14q-75 0 -138 3.5t-89 6.5l-25 4q-8 14 -8 37z" />
<glyph unicode="&#x41b;" horiz-adv-x="1359" d="M31 49q0 16 2.5 30t4.5 21l3 6q108 0 156 60t61 178l119 983l-160 21q-6 13 -6 38q0 10 1.5 19.5t3.5 13.5l1 4q243 15 547 15q136 0 270 -4t200 -8l66 -3q9 -14 9 -37q0 -11 -2.5 -20.5t-4.5 -13.5l-2 -4l-161 -21v-1221l161 -20q9 -14 9 -39q0 -10 -2.5 -19.5 t-4.5 -13.5l-2 -4q-83 -14 -251 -14q-76 0 -139.5 3.5t-89.5 6.5l-25 4q-9 14 -9 37q0 11 2 21t4 14l3 4l161 20v1211h-405l-117 -973q-11 -86 -33 -146t-65.5 -109.5t-116.5 -74t-178 -24.5q-10 24 -10 59z" />
<glyph unicode="&#x41c;" horiz-adv-x="1761" d="M51 47q0 11 2 21t4 14l2 4l162 20v1221l-162 21q-8 13 -8 38q0 10 2 19.5t4 13.5l2 4q85 15 263 15q35 0 69 -3t51 -5l17 -3l420 -978l424 981q55 8 118 8q82 0 152 -4t99 -8l30 -3q6 -14 6 -37q0 -11 -1.5 -20.5t-2.5 -13.5l-2 -4l-162 -21v-1221l162 -20q6 -14 6 -39 q0 -10 -1.5 -19.5t-2.5 -13.5l-2 -4q-86 -14 -250 -14q-73 0 -135.5 3.5t-88.5 6.5l-26 4q-6 14 -6 37q0 11 1.5 21t2.5 14l2 4l162 20v1074l-403 -938q-37 -11 -82 -11q-19 0 -40 2.5t-33 5.5l-11 3l-400 936v-1072l162 -20q8 -14 8 -39q0 -10 -2 -19.5t-4 -13.5l-2 -4 q-84 -14 -250 -14q-73 0 -135 3.5t-88 6.5l-25 4q-8 14 -8 37z" />
<glyph unicode="&#x41d;" horiz-adv-x="1433" d="M51 47q0 11 2 21t4 14l2 4l162 20v1221l-162 21q-8 13 -8 38q0 10 2 19.5t4 13.5l2 4q84 15 252 15q76 0 139.5 -4t89.5 -8l25 -3q8 -14 8 -37q0 -11 -2 -20.5t-4 -13.5l-2 -4l-162 -21v-534h627v534l-162 21q-6 13 -6 38q0 10 1.5 19.5t2.5 13.5l2 4q86 15 254 15 q75 0 138.5 -4t89.5 -8l26 -3q6 -14 6 -37q0 -11 -1.5 -20.5t-2.5 -13.5l-2 -4l-162 -21v-1221l162 -20q6 -14 6 -39q0 -10 -1.5 -19.5t-2.5 -13.5l-2 -4q-86 -14 -254 -14q-75 0 -138.5 3.5t-89.5 6.5l-26 4q-6 14 -6 37q0 11 1.5 21t2.5 14l2 4l162 20v570h-627v-570 l162 -20q8 -14 8 -39q0 -10 -2 -19.5t-4 -13.5l-2 -4q-84 -14 -254 -14q-75 0 -138 3.5t-89 6.5l-25 4q-8 14 -8 37z" />
<glyph unicode="&#x41e;" horiz-adv-x="1247" d="M123 332v770q0 168 119.5 255t380.5 87q262 0 381.5 -87t119.5 -255v-770q0 -168 -119.5 -255t-381.5 -87q-261 0 -380.5 87t-119.5 255zM307 332q0 -118 72.5 -172t243.5 -54q173 0 245 54t72 172v770q0 118 -72 171.5t-245 53.5q-172 0 -244 -53.5t-72 -171.5v-770z " />
<glyph unicode="&#x41f;" horiz-adv-x="1419" d="M51 47q0 11 2 21t4 14l2 4l162 20v1221l-162 21q-8 13 -8 38q0 10 2 19.5t4 13.5l2 4q221 15 650 15q189 0 352 -4t231 -8l68 -3q8 -14 8 -37q0 -11 -2 -20.5t-4 -13.5l-2 -4l-162 -21v-1221l162 -20q8 -14 8 -39q0 -10 -2 -19.5t-4 -13.5l-2 -4q-84 -14 -254 -14 q-75 0 -138 3.5t-88 6.5l-26 4q-8 14 -8 37q0 11 2 21t4 14l2 4l162 20v1211h-613v-1211l162 -20q8 -14 8 -39q0 -10 -2 -19.5t-4 -13.5l-2 -4q-84 -14 -254 -14q-75 0 -138 3.5t-89 6.5l-25 4q-8 14 -8 37z" />
<glyph unicode="&#x420;" horiz-adv-x="1212" d="M51 47q0 11 2 21t4 14l2 4l162 20v1223l-162 19q-8 15 -8 38q0 10 2 19.5t4 13.5l2 4q233 19 574 19q251 0 364 -86t113 -254v-137q0 -168 -113 -254t-364 -86q-67 0 -124.5 2t-81.5 4l-24 2v-527l162 -20q8 -14 8 -39q0 -10 -2 -19.5t-4 -13.5l-2 -4q-84 -14 -254 -14 q-75 0 -138 3.5t-89 6.5l-25 4q-8 14 -8 37zM403 739h230q159 0 226 54t67 172v137q0 118 -66.5 171.5t-226.5 53.5h-230v-588z" />
<glyph unicode="&#x421;" horiz-adv-x="1185" d="M123 332v770q0 169 114.5 255.5t372.5 86.5q93 0 174 -14t131 -34t86 -40.5t51 -34.5l15 -14q0 -65 -3.5 -128.5t-7.5 -94.5l-3 -31q-23 -6 -54 -6q-14 0 -27 1.5t-20 3.5l-6 1l-26 184q-4 4 -12.5 10t-38 21.5t-62.5 27.5t-86.5 21.5t-110.5 9.5q-169 0 -236 -53 t-67 -172v-770q0 -119 72 -172.5t252 -53.5q74 0 145 9.5t119 22t86 26.5t56 23t18 10q10 -23 10 -60q0 -16 -2.5 -31t-4.5 -22l-3 -6q-6 -4 -17.5 -9.5t-51.5 -21t-85.5 -27t-118.5 -21t-151 -9.5q-183 0 -297 41t-162.5 115t-48.5 186z" />
<glyph unicode="&#x422;" horiz-adv-x="1222" d="M63 1358q0 20 2.5 39t5.5 28l3 9h1073q8 -31 8 -76q0 -72 -3 -129t-6 -78l-3 -21q-14 -6 -39 -6q-10 0 -19.5 1.5t-13.5 2.5l-4 2l-35 187h-327v-1211l161 -20q8 -14 8 -39q0 -10 -2 -19.5t-4 -13.5l-2 -4q-84 -14 -254 -14q-75 0 -138.5 3.5t-89.5 6.5l-26 4 q-6 14 -6 37q0 11 1.5 21t2.5 14l2 4l162 20v1211h-334l-32 -187q-16 -6 -39 -6q-10 0 -19.5 1.5t-13.5 2.5l-4 2q-15 66 -15 228z" />
<glyph unicode="&#x423;" horiz-adv-x="1384" d="M29 1386q0 10 2 19.5t4 13.5l2 4q84 15 211 15q86 0 155 -4t95 -8l26 -3q8 -14 8 -37q0 -11 -2 -20.5t-4 -13.5l-2 -4l-149 -17l319 -774l314 774l-148 17q-8 13 -8 38q0 10 2 19.5t4 13.5l2 4q84 15 277 15q56 0 109.5 -4t78.5 -8l25 -3q6 -14 6 -37q0 -11 -1.5 -20.5 t-2.5 -13.5l-2 -4l-162 -21l-416 -1016q-69 -169 -165 -245t-265 -76q-43 0 -83 4t-59 8l-18 4q-10 22 -10 55q0 15 2.5 29t5.5 20l2 7q60 -11 160 -11q98 0 161.5 50t100.5 153l37 103q-15 0 -30.5 2t-24.5 4l-8 2l-381 907l-160 21q-8 13 -8 38z" />
<glyph unicode="&#x424;" horiz-adv-x="1495" d="M102 582v270q0 168 131.5 254t421.5 86v135l-161 21q-7 13 -7 38q0 10 1.5 19.5t3.5 13.5l2 4q86 15 254 15q75 0 138 -4t89 -8l26 -3q7 -14 7 -37q0 -11 -2 -20.5t-4 -13.5l-1 -4l-161 -21v-135q290 0 421.5 -86t131.5 -254v-270q0 -168 -131.5 -254t-421.5 -86v-136 l161 -20q7 -14 7 -39q0 -10 -2 -19.5t-4 -13.5l-1 -4q-85 -14 -253 -14q-75 0 -138.5 3.5t-89.5 6.5l-26 4q-7 14 -7 37q0 11 1.5 21t3.5 14l2 4l161 20v136q-290 0 -421.5 86t-131.5 254zM287 582q0 -117 84.5 -171.5t283.5 -54.5v721q-200 0 -284 -54t-84 -171v-270z M840 356q199 0 283.5 54.5t84.5 171.5v270q0 117 -84 171t-284 54v-721z" />
<glyph unicode="&#x425;" horiz-adv-x="1392" d="M35 47q0 11 2 21t4 14l2 4l160 20l368 619l-354 602l-162 21q-8 13 -8 38q0 10 2 19.5t4 13.5l2 4q84 15 203 15q91 0 163.5 -4t98.5 -8l27 -3q8 -14 8 -37q0 -11 -2 -20.5t-4 -13.5l-2 -4l-139 -17l288 -502l287 504l-137 15q-8 13 -8 38q0 10 2 19.5t4 13.5l2 4 q84 15 287 15q53 0 104 -4t75 -8l25 -3q6 -14 6 -37q0 -11 -1.5 -20.5t-3.5 -13.5l-1 -4l-161 -21l-355 -602l367 -621l162 -18q8 -14 8 -39q0 -10 -2 -19.5t-4 -13.5l-2 -4q-84 -14 -205 -14q-92 0 -165.5 3.5t-100.5 6.5l-27 4q-6 14 -6 37q0 11 1.5 21t2.5 14l2 4l145 16 l-301 521l-301 -521l142 -16q8 -14 8 -39q0 -10 -2 -19.5t-4 -13.5l-2 -4q-84 -14 -291 -14q-53 0 -103.5 3.5t-74.5 6.5l-25 4q-8 14 -8 37z" />
<glyph unicode="&#x426;" horiz-adv-x="1449" d="M51 47q0 11 2 21t4 14l2 4l162 20v1221l-162 21q-8 13 -8 38q0 10 2 19.5t4 13.5l2 4q84 15 252 15q76 0 139.5 -4t89.5 -8l25 -3q8 -14 8 -37q0 -11 -2 -20.5t-4 -13.5l-2 -4l-162 -21v-1210h617v1210l-160 21q-8 13 -8 38q0 10 2 19.5t4 13.5l2 4q84 15 252 15 q76 0 139.5 -4t88.5 -8l26 -3q8 -14 8 -37q0 -11 -2 -20.5t-4 -13.5l-2 -4l-162 -21v-1210q48 0 89.5 -2t58.5 -4l18 -2q12 -42 12 -99q0 -95 -4 -169.5t-8 -102.5l-4 -27q-18 -6 -49 -6q-13 0 -25 1.5t-18 3.5l-6 1l-54 289h-577q-154 0 -298.5 2.5t-212.5 5.5l-67 2 q-8 14 -8 37z" />
<glyph unicode="&#x427;" horiz-adv-x="1398" d="M51 1386q0 10 2 19.5t4 13.5l2 4q84 15 252 15q75 0 136.5 -4t85.5 -8l24 -3q8 -14 8 -37q0 -11 -2 -20.5t-4 -13.5l-2 -4l-154 -21v-440q0 -112 53.5 -163.5t186.5 -51.5q70 0 132.5 10.5t99 23.5t67.5 30t40 24.5t13 11.5v555l-153 21q-6 13 -6 38q0 10 1.5 19.5 t2.5 13.5l2 4q81 15 245 15q75 0 138.5 -4t89.5 -8l26 -3q7 -14 7 -37q0 -11 -2 -20.5t-4 -13.5l-1 -4l-161 -21v-1221l161 -20q7 -14 7 -39q0 -10 -2 -19.5t-4 -13.5l-1 -4q-86 -14 -254 -14q-76 0 -139 3.5t-88 6.5l-26 4q-7 14 -7 37q0 11 1.5 21t3.5 14l2 4l161 20v551 q-6 -4 -17.5 -11t-50.5 -24.5t-82.5 -31t-112.5 -24.5t-142 -11q-196 0 -282.5 83.5t-86.5 248.5v440l-162 21q-8 13 -8 38z" />
<glyph unicode="&#x428;" horiz-adv-x="1974" d="M51 47q0 11 2 21t4 14l2 4l162 20v1221l-162 21q-8 13 -8 38q0 10 2 19.5t4 13.5l2 4q84 15 252 15q71 0 130.5 -4t83.5 -8l24 -3q8 -14 8 -37q0 -11 -2 -20.5t-4 -13.5l-2 -4l-146 -21v-1210h492v1210l-145 21q-7 13 -7 38q0 10 1.5 19.5t3.5 13.5l2 4q77 15 237 15 q70 0 129 -4t83 -8l24 -3q8 -14 8 -37q0 -11 -2 -20.5t-4 -13.5l-2 -4l-144 -21v-1210h490v1210l-144 21q-8 13 -8 38q0 10 2 19.5t4 13.5l2 4q78 15 236 15q75 0 138.5 -4t89.5 -8l26 -3q6 -14 6 -37q0 -11 -1.5 -20.5t-3.5 -13.5l-1 -4l-162 -21v-1221l162 -20 q6 -14 6 -39q0 -10 -1.5 -19.5t-3.5 -13.5l-1 -4q-227 -10 -576 -10h-702q-154 0 -298.5 2.5t-212.5 5.5l-67 2q-8 14 -8 37z" />
<glyph unicode="&#x429;" horiz-adv-x="1998" d="M51 47q0 11 2 21t4 14l2 4l162 20v1221l-162 21q-8 13 -8 38q0 10 2 19.5t4 13.5l2 4q84 15 252 15q71 0 130.5 -4t83.5 -8l24 -3q8 -14 8 -37q0 -11 -2 -20.5t-4 -13.5l-2 -4l-146 -21v-1210h492v1210l-145 21q-7 13 -7 38q0 10 1.5 19.5t3.5 13.5l2 4q77 15 237 15 q70 0 129 -4t83 -8l24 -3q8 -14 8 -37q0 -11 -2 -20.5t-4 -13.5l-2 -4l-144 -21v-1210h490v1210l-144 21q-8 13 -8 38q0 10 2 19.5t4 13.5l2 4q78 15 236 15q75 0 138.5 -4t89.5 -8l26 -3q6 -14 6 -37q0 -11 -1.5 -20.5t-3.5 -13.5l-1 -4l-162 -21v-1210q46 0 87.5 -2 t59.5 -4l19 -2q12 -42 12 -99q0 -95 -4 -169.5t-8 -102.5l-4 -27q-18 -6 -49 -6q-13 0 -25 1.5t-18 3.5l-6 1l-54 289h-1126q-154 0 -298.5 2.5t-212.5 5.5l-67 2q-8 14 -8 37z" />
<glyph unicode="&#x42a;" horiz-adv-x="1468" d="M63 1358q0 20 2.5 39t5.5 28l3 9h137q149 0 292.5 -3t212.5 -5l68 -3q9 -14 9 -37q0 -11 -2.5 -20.5t-4.5 -13.5l-2 -4l-159 -21v-502q102 6 266 6q249 0 362 -89t113 -263v-135q0 -174 -113 -263t-362 -89q-171 0 -324 4.5t-221 9.5l-67 4q-9 14 -9 37q0 11 2 21t4 14 l3 4l161 20v1211h-254l-32 -187q-16 -6 -39 -6q-10 0 -19.5 1.5t-13.5 2.5l-4 2q-15 66 -15 228zM625 106h266q158 0 224.5 57t66.5 181v135q0 124 -66.5 181t-224.5 57h-266v-611z" />
<glyph unicode="&#x42b;" horiz-adv-x="1751" d="M51 47q0 11 2 21t4 14l2 4l162 20v1221l-162 21q-8 13 -8 38q0 10 2 19.5t4 13.5l2 4q84 15 252 15q76 0 139.5 -4t89.5 -8l25 -3q8 -14 8 -37q0 -11 -2 -20.5t-4 -13.5l-2 -4l-162 -21v-502q105 6 267 6q251 0 364 -89t113 -263v-135q0 -174 -113 -263t-364 -89 q-174 0 -326.5 4.5t-218.5 9.5l-66 4q-8 14 -8 37zM403 106h267q159 0 226 57t67 181v135q0 124 -67 181t-226 57h-267v-611zM1178 47q0 11 1.5 21t2.5 14l2 4l162 20v1221l-162 21q-6 13 -6 38q0 10 1.5 19.5t2.5 13.5l2 4q86 15 254 15q75 0 138.5 -4t89.5 -8l26 -3 q6 -14 6 -37q0 -11 -1.5 -20.5t-2.5 -13.5l-2 -4l-162 -21v-1221l162 -20q6 -14 6 -39q0 -10 -1.5 -19.5t-2.5 -13.5l-2 -4q-86 -14 -254 -14q-75 0 -138.5 3.5t-89.5 6.5l-26 4q-6 14 -6 37z" />
<glyph unicode="&#x42c;" horiz-adv-x="1249" d="M51 47q0 11 2 21t4 14l2 4l162 20v1221l-162 21q-8 13 -8 38q0 10 2 19.5t4 13.5l2 4q84 15 252 15q76 0 139.5 -4t89.5 -8l25 -3q8 -14 8 -37q0 -11 -2 -20.5t-4 -13.5l-2 -4l-162 -21v-502q105 6 267 6q251 0 364 -89t113 -263v-135q0 -174 -113 -263t-364 -89 q-174 0 -326.5 4.5t-218.5 9.5l-66 4q-8 14 -8 37zM403 106h267q159 0 226 57t67 181v135q0 124 -67 181t-226 57h-267v-611z" />
<glyph unicode="&#x42d;" horiz-adv-x="1173" d="M119 1307q5 6 15 15t48.5 32.5t85 41.5t126 33t169.5 15q259 0 373.5 -86.5t114.5 -255.5v-770q0 -112 -48.5 -186t-162.5 -115t-297 -41q-75 0 -145 9t-116.5 22t-82 26t-51.5 22l-17 9q-10 22 -10 59q0 16 2.5 31t4.5 22l3 7q0 -1 17.5 -10t54.5 -23t84 -26.5 t115.5 -22t140.5 -9.5q181 0 252 53.5t71 172.5v340h-485q-10 22 -10 57q0 16 2.5 30.5t4.5 21.5l3 7h485v314q0 119 -67 172t-236 53q-55 0 -105.5 -9.5t-84 -22.5t-59 -26t-36.5 -23l-12 -9l-26 -184q-23 -6 -54 -6q-14 0 -27 1.5t-19 3.5l-7 1q-14 107 -14 254z" />
<glyph unicode="&#x42e;" horiz-adv-x="1759" d="M51 47q0 11 2 21t4 14l2 4l162 20v1221l-162 21q-8 13 -8 38q0 10 2 19.5t4 13.5l2 4q84 15 252 15q76 0 139.5 -4t89.5 -8l25 -3q8 -14 8 -37q0 -11 -2 -20.5t-4 -13.5l-2 -4l-162 -21v-534h299v309q0 169 110.5 255.5t356.5 86.5t356.5 -86.5t110.5 -255.5v-770 q0 -169 -110.5 -255.5t-356.5 -86.5t-356.5 86.5t-110.5 255.5v344h-299v-570l162 -20q8 -14 8 -39q0 -10 -2 -19.5t-4 -13.5l-2 -4q-84 -14 -254 -14q-75 0 -138 3.5t-89 6.5l-25 4q-8 14 -8 37zM885 332q0 -118 64.5 -172t219.5 -54q154 0 219.5 54t65.5 172v770 q0 118 -65.5 171.5t-219.5 53.5q-155 0 -219.5 -53.5t-64.5 -171.5v-770z" />
<glyph unicode="&#x42f;" horiz-adv-x="1318" d="M35 47q0 11 2 21t4 14l2 4l160 20l278 527q-166 27 -241.5 112.5t-75.5 229.5v115q0 174 113 263t364 89q175 0 327.5 -4.5t217.5 -8.5t74 -6q8 -14 8 -37q0 -11 -2 -20.5t-4 -13.5l-2 -4l-162 -21v-1221l162 -20q8 -14 8 -39q0 -10 -2 -19.5t-4 -13.5l-2 -4 q-84 -14 -254 -14q-75 0 -138 3.5t-88 6.5l-26 4q-9 14 -9 37q0 11 2.5 21t4.5 14l2 4l161 20v523q-106 -6 -268 -6l-262 -525l127 -12q8 -14 8 -39q0 -10 -2 -19.5t-4 -13.5l-2 -4q-84 -14 -268 -14q-52 0 -102 3.5t-74 6.5l-25 4q-8 14 -8 37zM348 975q0 -124 67 -181 t226 -57h274v590h-274q-160 0 -226.5 -56.5t-66.5 -180.5v-115z" />
<glyph unicode="&#x430;" horiz-adv-x="1103" d="M109 268v33q0 123 84.5 189.5t277.5 84.5l258 29v119q0 105 -51.5 154t-177.5 49q-53 0 -103.5 -12.5t-64 -19.5t-43.5 -22l-25 -167q-20 -7 -49 -7q-13 0 -25 2t-18 4l-6 1q-16 100 -16 243q5 3 14.5 9t43 21t71 26t97.5 20.5t124 9.5q216 0 309.5 -78t93.5 -233v-621 l146 -22q8 -15 8 -35q0 -9 -2 -17.5t-4 -13.5l-2 -4q-72 -14 -211 -14q-26 0 -53.5 2.5t-41.5 5.5l-14 2v100q-5 -5 -14.5 -12.5t-42 -27.5t-69 -35.5t-95.5 -28t-121 -12.5q-148 0 -213 70t-65 208zM283 264q0 -86 37.5 -126t128.5 -40q57 0 106.5 12.5t80 30t53 34.5 t31.5 29l9 13v281l-229 -27q-118 -13 -167.5 -55.5t-49.5 -118.5v-33z" />
<glyph unicode="&#x431;" horiz-adv-x="1081" d="M129 313v711q0 71 20.5 127.5t49.5 94.5t84.5 66.5t100 44t123.5 27t128 15.5t139 10l33 123q12 6 35 6q10 0 19.5 -1.5t13.5 -2.5l4 -2q12 -46 12 -150q0 -15 -2 -28.5t-4 -19.5l-2 -7q-38 -13 -104 -22t-126 -14t-126 -20.5t-114 -41t-79 -77.5t-31 -128v-104 q5 5 14.5 12.5t43 27t70.5 34.5t96.5 27.5t121.5 12.5q163 0 236 -81.5t73 -241.5v-398q0 -159 -98 -241t-317 -82q-218 0 -316 82t-98 241zM303 313q0 -111 55.5 -163t184.5 -52q132 0 186.5 51.5t54.5 163.5v398q0 113 -42 164t-148 51q-59 0 -110.5 -12.5t-83 -30 t-55 -34.5t-33.5 -29l-9 -13v-494z" />
<glyph unicode="&#x432;" horiz-adv-x="1110" d="M47 45q0 9 2 17.5t4 13.5l2 4l146 22v820l-146 22q-8 15 -8 35q0 9 2 17.5t4 13.5l2 4q219 18 527 18q197 0 285.5 -68t88.5 -200v-29q0 -153 -141 -209q178 -51 178 -227v-29q0 -138 -97 -208t-314 -70q-142 0 -273.5 4.5t-192.5 9.5l-61 4q-8 15 -8 35zM375 100h207 q128 0 181.5 41.5t53.5 128.5v29q0 85 -53.5 126.5t-181.5 41.5h-207v-367zM375 578h207q107 0 152.5 38.5t45.5 118.5v29q0 81 -45.5 120.5t-152.5 39.5h-207v-346z" />
<glyph unicode="&#x433;" horiz-adv-x="909" d="M47 45q0 9 2 17.5t4 13.5l2 4l146 22v818l-146 22q-8 15 -8 35q0 9 2 17.5t4 13.5l2 4q224 12 557 12h226q8 -29 8 -70q0 -61 -3 -110t-6 -68l-3 -18q-16 -6 -41 -6q-11 0 -21.5 1.5t-15.5 2.5l-4 2l-29 157h-348v-813l145 -22q8 -15 8 -35q0 -9 -2 -17.5t-4 -13.5l-2 -4 q-77 -14 -233 -14q-68 0 -126 3.5t-82 6.5l-24 4q-8 15 -8 35z" />
<glyph unicode="&#x434;" horiz-adv-x="1214" d="M59 6q0 24 2.5 47t5.5 34l3 11q105 7 147.5 60t56.5 172l68 592l-145 22q-9 15 -9 35q0 9 2 17.5t4 13.5l3 4q193 14 479 14q125 0 242 -3.5t172 -6.5l55 -4q6 -15 6 -35q0 -9 -1.5 -17.5t-3.5 -13.5l-1 -4l-146 -22v-813h142q8 -40 8 -95q0 -86 -3 -154.5t-6 -93.5 l-3 -26q-21 -6 -52 -6q-13 0 -25 1.5t-18 2.5l-6 2l-26 260h-809l-29 -260q-18 -6 -49 -6q-14 0 -26.5 1.5t-18.5 2.5l-6 2q-13 78 -13 266zM348 109h475v806h-321l-66 -587q-16 -152 -88 -219z" />
<glyph unicode="&#x435;" horiz-adv-x="1077" d="M135 313v398q0 160 96.5 241.5t315.5 81.5q114 0 193.5 -21t125.5 -64t66 -100.5t20 -137.5v-234q-118 -16 -321 -16h-322v-148q0 -113 60 -164t209 -51q95 0 181 18.5t124.5 35.5t38.5 20l1 -3q1 -3 2.5 -8t3 -11t2.5 -15t1 -18q0 -15 -2.5 -29t-5.5 -20l-2 -7 q-5 -3 -14.5 -7.5t-42 -17t-69.5 -22t-96 -17t-122 -7.5q-235 0 -339 81.5t-104 241.5zM309 569h475v142q0 112 -53 163.5t-184 51.5t-184.5 -51.5t-53.5 -163.5v-142z" />
<glyph unicode="&#x436;" horiz-adv-x="1603" d="M31 45q0 9 2 17.5t4 13.5l2 4l145 22l256 439l-233 381l-144 22q-8 15 -8 35q0 9 2 17.5t4 13.5l2 4q81 14 183 14q72 0 131 -3.5t81 -6.5l23 -4q6 -15 6 -35q0 -9 -1.5 -17.5t-3.5 -13.5l-1 -4l-100 -10l205 -338l127 -51v383l-113 16q-6 15 -6 35q0 9 1.5 17.5 t2.5 13.5l2 4q68 14 201 14q59 0 109 -3.5t70 -6.5l21 -4q9 -15 9 -35q0 -9 -2 -17.5t-4 -13.5l-3 -4l-112 -16v-383l129 51l205 338l-101 10q-8 15 -8 35q0 9 2 17.5t4 13.5l2 4q74 14 236 14q53 0 98.5 -3.5t64.5 -6.5l19 -4q8 -15 8 -35q0 -9 -2 -17.5t-4 -13.5l-2 -4 l-145 -22l-232 -381l256 -439l146 -22q6 -15 6 -35q0 -9 -1.5 -17.5t-3.5 -13.5l-1 -4q-72 -14 -185 -14q-20 0 -43.5 2.5t-36.5 5.5l-14 2l-268 475l-129 -51v-330l131 -20q6 -15 6 -35q0 -9 -1.5 -17.5t-2.5 -13.5l-2 -4q-74 -14 -219 -14q-64 0 -118 3.5t-77 6.5l-22 4 q-9 15 -9 35q0 9 2.5 17.5t4.5 13.5l2 4l129 20v330l-127 51l-271 -475q-49 -10 -94 -10q-49 0 -94.5 3.5t-66.5 6.5l-21 4q-8 15 -8 35z" />
<glyph unicode="&#x437;" horiz-adv-x="964" d="M82 117q0 9 1 18t3 15t4 11t3 8l1 3q0 -3 36.5 -20t117 -35.5t170.5 -18.5q137 0 194.5 42t57.5 128v33q0 82 -54 123t-180 41h-127q-10 20 -10 51q0 15 2.5 28t4.5 19l3 6h127q110 0 156.5 41.5t46.5 128.5v27q0 81 -45.5 120.5t-151.5 39.5q-120 0 -209 -49l-24 -166 q-20 -6 -49 -6q-13 0 -25 1.5t-18 3.5l-6 1q-17 98 -17 243q5 3 14.5 8.5t42 19.5t70 24.5t97.5 19t124 8.5q195 0 284 -68t89 -200v-27q0 -163 -141 -221q172 -47 172 -217v-33q0 -137 -101.5 -207.5t-324.5 -70.5q-95 0 -176.5 18t-115.5 36l-34 17q-12 23 -12 56z" />
<glyph unicode="&#x438;" horiz-adv-x="1239" d="M47 45q0 9 2 17.5t4 13.5l2 4l146 22v820l-146 22q-8 15 -8 35q0 9 2 17.5t4 13.5l2 4q74 14 224 14q64 0 118.5 -3.5t76.5 -6.5l22 -4q8 -15 8 -35q0 -9 -2 -17.5t-4 -13.5l-2 -4l-121 -22v-629l487 608v21l-121 22q-8 15 -8 35q0 9 2 17.5t4 13.5l2 4q73 14 220 14 q65 0 120.5 -3.5t78.5 -6.5l22 -4q8 -15 8 -35q0 -9 -2 -17.5t-4 -13.5l-2 -4l-144 -22v-820l146 -22q6 -15 6 -35q0 -9 -1.5 -17.5t-2.5 -13.5l-2 -4q-73 -14 -223 -14q-64 0 -119 3.5t-78 6.5l-23 4q-6 15 -6 35q0 9 1.5 17.5t3.5 13.5l1 4l121 22v629l-487 -608v-21 l121 -22q8 -15 8 -35q0 -9 -2 -17.5t-4 -13.5l-2 -4q-72 -14 -217 -14q-67 0 -123 3.5t-78 6.5l-23 4q-8 15 -8 35z" />
<glyph unicode="&#x439;" horiz-adv-x="1239" d="M47 45q0 9 2 17.5t4 13.5l2 4l146 22v820l-146 22q-8 15 -8 35q0 9 2 17.5t4 13.5l2 4q74 14 224 14q64 0 118.5 -3.5t76.5 -6.5l22 -4q8 -15 8 -35q0 -9 -2 -17.5t-4 -13.5l-2 -4l-121 -22v-629l487 608v21l-121 22q-8 15 -8 35q0 9 2 17.5t4 13.5l2 4q73 14 220 14 q65 0 120.5 -3.5t78.5 -6.5l22 -4q8 -15 8 -35q0 -9 -2 -17.5t-4 -13.5l-2 -4l-144 -22v-820l146 -22q6 -15 6 -35q0 -9 -1.5 -17.5t-2.5 -13.5l-2 -4q-73 -14 -223 -14q-64 0 -119 3.5t-78 6.5l-23 4q-6 15 -6 35q0 9 1.5 17.5t3.5 13.5l1 4l121 22v629l-487 -608v-21 l121 -22q8 -15 8 -35q0 -9 -2 -17.5t-4 -13.5l-2 -4q-72 -14 -217 -14q-67 0 -123 3.5t-78 6.5l-23 4q-8 15 -8 35zM350 1407v20q31 11 62 11q14 0 28.5 -3t22.5 -5l8 -3v-20q0 -69 33.5 -99t118.5 -30q84 0 117.5 30t33.5 99v20q29 11 60 11q14 0 29 -3t23 -5l9 -3v-20 q0 -107 -61 -159t-211 -52t-211.5 52t-61.5 159z" />
<glyph unicode="&#x43a;" horiz-adv-x="1138" d="M47 45q0 9 2 17.5t4 13.5l2 4l146 22v820l-146 22q-8 15 -8 35q0 9 2 17.5t4 13.5l2 4q74 14 221 14q64 0 119.5 -3.5t78.5 -6.5l24 -4q6 -15 6 -35q0 -9 -1.5 -17.5t-2.5 -13.5l-2 -4l-123 -22v-357l143 37l240 330l-107 12q-8 15 -8 35q0 9 2 17.5t4 13.5l2 4 q80 14 254 14q46 0 88.5 -3.5t62.5 -6.5l19 -4q6 -15 6 -35q0 -9 -1.5 -17.5t-3.5 -13.5l-1 -4l-145 -22l-268 -377l294 -443l144 -22q6 -15 6 -35q0 -9 -1.5 -17.5t-2.5 -13.5l-2 -4q-72 -14 -172 -14q-20 0 -43.5 2.5t-36.5 5.5l-14 2l-320 479l-139 -34v-349l145 -22 q8 -15 8 -35q0 -9 -2 -17.5t-4 -13.5l-2 -4q-77 -14 -233 -14q-68 0 -126 3.5t-82 6.5l-24 4q-8 15 -8 35z" />
<glyph unicode="&#x43b;" horiz-adv-x="1146" d="M27 45q0 15 2.5 28t4.5 19l3 6q97 0 136 52.5t52 173.5l64 598l-146 22q-8 15 -8 35q0 9 2 17.5t4 13.5l2 4q196 14 480 14q124 0 241.5 -3.5t172.5 -6.5l55 -4q8 -15 8 -35q0 -9 -2 -17.5t-4 -13.5l-2 -4l-146 -22v-820l146 -22q8 -15 8 -35q0 -9 -2 -17.5t-4 -13.5 l-2 -4q-78 -14 -234 -14q-68 0 -126 3.5t-82 6.5l-23 4q-9 15 -9 35q0 9 2 17.5t4 13.5l3 4l145 22v813h-323l-60 -591q-8 -84 -28 -142.5t-59.5 -103.5t-105 -66.5t-159.5 -21.5q-10 22 -10 55z" />
<glyph unicode="&#x43c;" horiz-adv-x="1484" d="M47 45q0 9 2 17.5t4 13.5l2 4l146 22v820l-146 22q-8 15 -8 35q0 9 2 17.5t4 13.5l2 4q105 14 244 14q29 0 60 -2.5t47 -5.5l16 -2l319 -719l324 719q55 10 121 10q65 0 126.5 -3.5t90.5 -6.5l29 -4q6 -15 6 -35q0 -9 -1.5 -17.5t-2.5 -13.5l-2 -4l-146 -22v-820l146 -22 q6 -15 6 -35q0 -9 -1.5 -17.5t-2.5 -13.5l-2 -4q-77 -14 -224 -14q-61 0 -113 3.5t-74 6.5l-22 4q-8 15 -8 35q0 9 2 17.5t4 13.5l2 4l127 20v711l-303 -666q-37 -10 -82 -10q-19 0 -40 2.5t-33 4.5l-11 3l-299 666v-711l129 -20q7 -15 7 -35q0 -9 -2 -17.5t-4 -13.5l-1 -4 q-72 -14 -211 -14q-65 0 -120.5 3.5t-77.5 6.5l-23 4q-8 15 -8 35z" />
<glyph unicode="&#x43d;" horiz-adv-x="1210" d="M47 45q0 9 2 17.5t4 13.5l2 4l146 22v820l-146 22q-8 15 -8 35q0 9 2 17.5t4 13.5l2 4q74 14 219 14q65 0 120.5 -3.5t78.5 -6.5l23 -4q6 -15 6 -35q0 -9 -1.5 -17.5t-2.5 -13.5l-2 -4l-121 -22v-338h461v338l-121 22q-8 15 -8 35q0 9 2 17.5t4 13.5l2 4q74 14 221 14 q64 0 119 -3.5t77 -6.5l23 -4q8 -15 8 -35q0 -9 -2 -17.5t-4 -13.5l-2 -4l-145 -22v-820l145 -22q8 -15 8 -35q0 -9 -2 -17.5t-4 -13.5l-2 -4q-74 -14 -219 -14q-65 0 -120.5 3.5t-77.5 6.5l-23 4q-8 15 -8 35q0 9 2 17.5t4 13.5l2 4l121 22v373h-461v-373l121 -22 q6 -15 6 -35q0 -9 -1.5 -17.5t-2.5 -13.5l-2 -4q-75 -14 -222 -14q-64 0 -119 3.5t-77 6.5l-23 4q-8 15 -8 35z" />
<glyph unicode="&#x43e;" horiz-adv-x="1083" d="M123 313v398q0 159 99.5 241t318.5 82q221 0 320.5 -82t99.5 -241v-398q0 -159 -99.5 -241t-320.5 -82q-219 0 -318.5 82t-99.5 241zM299 313q0 -112 55 -163.5t187 -51.5t187.5 51.5t55.5 163.5v398q0 112 -55.5 163.5t-187.5 51.5t-187 -51.5t-55 -163.5v-398z" />
<glyph unicode="&#x43f;" horiz-adv-x="1206" d="M47 45q0 9 2 17.5t4 13.5l2 4l146 22v820l-146 22q-8 15 -8 35q0 9 2 17.5t4 13.5l2 4q224 14 547 14q146 0 283 -3.5t201 -6.5l65 -4q8 -15 8 -35q0 -9 -2 -17.5t-4 -13.5l-2 -4l-145 -22v-820l145 -22q8 -15 8 -35q0 -9 -2 -17.5t-4 -13.5l-2 -4q-74 -14 -221 -14 q-64 0 -119 3.5t-77 6.5l-23 4q-9 15 -9 35q0 9 2 17.5t4 13.5l3 4l120 22v813h-456v-813l121 -22q6 -15 6 -35q0 -9 -1.5 -17.5t-2.5 -13.5l-2 -4q-75 -14 -222 -14q-64 0 -119 3.5t-77 6.5l-23 4q-8 15 -8 35z" />
<glyph unicode="&#x440;" horiz-adv-x="1134" d="M47 -365q0 9 2 17.5t4 13.5l2 4l146 23v1229l-146 22q-8 15 -8 35q0 9 2 17.5t4 13.5l2 4q72 14 211 14q25 0 52.5 -2.5t41.5 -5.5l15 -2v-98q5 5 14 12.5t41.5 27t68.5 34.5t93.5 27.5t118.5 12.5q160 0 231.5 -81.5t71.5 -241.5v-398q0 -160 -83.5 -241.5t-271.5 -81.5 q-59 0 -109 8.5t-80 20.5t-52.5 26t-31.5 23.5t-11 15.5v-391l145 -23q8 -15 8 -35q0 -9 -2 -17.5t-4 -12.5l-2 -4q-79 -15 -233 -15q-68 0 -126 4t-82 8l-24 3q-8 14 -8 34zM375 313q0 -112 58 -163.5t196 -51.5q116 0 162.5 51t46.5 164v398q0 113 -41 164t-144 51 q-56 0 -105.5 -12.5t-79.5 -30t-52.5 -34.5t-31.5 -29l-9 -13v-494z" />
<glyph unicode="&#x441;" horiz-adv-x="1009" d="M123 313v398q0 160 97.5 241.5t316.5 81.5q66 0 127.5 -9t102 -21.5t71.5 -25t45 -21.5l14 -9q0 -64 -4 -124.5t-8 -89.5l-4 -29q-21 -7 -50 -7q-13 0 -25 2t-18 4l-6 1l-24 169q-101 52 -221 52q-131 0 -184.5 -51.5t-53.5 -163.5v-398q0 -113 56.5 -164t201.5 -51 q90 0 171.5 18.5t118 35.5t36.5 20l1 -3q1 -3 3 -8t4 -11t3 -15t1 -18q0 -15 -3 -29t-6 -20l-3 -7q-5 -3 -13.5 -7.5t-40 -17t-66.5 -22t-91.5 -17t-116.5 -7.5q-229 0 -330.5 81.5t-101.5 241.5z" />
<glyph unicode="&#x442;" horiz-adv-x="1038" d="M59 954q0 18 2.5 35.5t5.5 26.5l3 8h897q8 -29 8 -70q0 -61 -3 -110t-6 -68l-3 -18q-16 -6 -41 -6q-11 0 -21.5 1.5t-14.5 2.5l-5 2l-29 157h-244v-813l146 -22q8 -15 8 -35q0 -9 -2 -17.5t-4 -13.5l-2 -4q-78 -14 -234 -14q-68 0 -126.5 3.5t-82.5 6.5l-24 4 q-6 15 -6 35q0 9 1.5 17.5t3.5 13.5l1 4l145 22v813h-248l-30 -157q-16 -6 -39 -6q-11 0 -22 1.5t-16 2.5l-5 2q-13 59 -13 196z" />
<glyph unicode="&#x443;" horiz-adv-x="1214" d="M25 979q0 9 2 17.5t4 13.5l2 4q77 14 190 14q67 0 124 -3.5t81 -6.5l23 -4q8 -15 8 -35q0 -9 -2 -17.5t-4 -13.5l-2 -4l-115 -18l270 -783l268 783l-110 18q-8 15 -8 35q0 9 2 17.5t4 13.5l2 4q78 14 225 14q51 0 99.5 -3.5t71.5 -6.5l22 -4q8 -15 8 -35q0 -9 -2 -17.5 t-4 -13.5l-2 -4l-140 -22l-383 -1065q-49 -142 -135.5 -209.5t-234.5 -67.5q-33 0 -63 4t-44 8l-14 5q-10 20 -10 51q0 14 2.5 27t5.5 19l2 7q47 -12 125 -12q154 0 209 164l53 145q-13 0 -26.5 2t-20.5 4l-8 2l-330 916l-137 22q-8 15 -8 35z" />
<glyph unicode="&#x444;" horiz-adv-x="1413" d="M123 334v356q0 169 118 256.5t377 87.5v297l-145 23q-6 15 -6 35q0 9 1.5 17.5t3.5 12.5l1 4q72 15 213 15q25 0 52.5 -3t41.5 -5l15 -3v-393q259 0 377 -87.5t118 -256.5v-356q0 -169 -118 -256.5t-377 -87.5v-297l145 -23q6 -15 6 -35q0 -9 -1.5 -17.5t-2.5 -12.5 l-2 -4q-79 -15 -233 -15q-68 0 -126.5 4t-82.5 8l-25 3q-6 14 -6 34q0 9 1.5 17.5t3.5 13.5l1 4l145 23v297q-259 0 -377 87.5t-118 256.5zM299 334q0 -123 72.5 -179.5t246.5 -56.5v828q-174 0 -246.5 -56.5t-72.5 -179.5v-356zM795 98q175 0 248 56.5t73 179.5v356 q0 123 -73 179.5t-248 56.5v-828z" />
<glyph unicode="&#x445;" horiz-adv-x="1142" d="M33 45q0 9 1.5 17.5t3.5 13.5l1 4l135 22l287 418l-275 402l-145 22q-6 15 -6 35q0 9 1.5 17.5t3.5 13.5l1 4q80 14 170 14q63 0 118 -3.5t79 -6.5l24 -4q6 -15 6 -35q0 -9 -1.5 -17.5t-2.5 -13.5l-2 -4l-76 -8l213 -320l213 318l-77 10q-9 15 -9 35q0 9 2 17.5t4 13.5 l3 4q71 14 208 14q42 0 86.5 -3.5t68.5 -6.5l24 -4q6 -15 6 -35q0 -9 -1.5 -17.5t-2.5 -13.5l-2 -4l-140 -22l-272 -402l285 -418l139 -22q8 -15 8 -35q0 -9 -2 -17.5t-4 -13.5l-2 -4q-72 -14 -162 -14q-23 0 -47.5 2.5t-37.5 5.5l-13 2l-275 420l-225 -336l90 -10 q6 -15 6 -35q0 -9 -1.5 -17.5t-2.5 -13.5l-2 -4q-76 -14 -219 -14q-48 0 -92 3.5t-64 6.5l-20 4q-6 15 -6 35z" />
<glyph unicode="&#x446;" horiz-adv-x="1241" d="M47 47q0 9 2 17.5t4 13.5l2 4l146 22v818l-146 22q-8 15 -8 35q0 9 2 17.5t4 13.5l2 4q74 14 219 14q65 0 120.5 -3.5t78.5 -6.5l23 -4q6 -15 6 -35q0 -9 -1.5 -17.5t-2.5 -13.5l-2 -4l-121 -22v-813h471v813l-119 22q-8 15 -8 35q0 9 2 17.5t4 13.5l2 4q74 14 219 14 q65 0 120.5 -3.5t77.5 -6.5l23 -4q9 -15 9 -35q0 -9 -2 -17.5t-4 -13.5l-3 -4l-145 -22v-813h149q11 -40 11 -95q0 -86 -4 -154.5t-8 -93.5l-3 -26q-18 -6 -49 -6q-14 0 -26 1.5t-18 2.5l-5 2l-29 260h-424q-150 0 -290.5 3t-205.5 6l-65 3q-8 15 -8 35z" />
<glyph unicode="&#x447;" horiz-adv-x="1181" d="M47 979q0 9 2 17.5t4 13.5l2 4q79 14 224 14q64 0 117.5 -3.5t75.5 -6.5l22 -4q8 -15 8 -35q0 -9 -2 -17.5t-4 -13.5l-2 -4l-119 -16v-248q0 -102 40 -148.5t138 -46.5q48 0 91.5 10t69.5 21.5t49.5 28.5t30 24t12.5 14l1 1v338l-119 22q-6 15 -6 35q0 9 1.5 17.5 t2.5 13.5l2 4q74 14 221 14q64 0 119 -3.5t78 -6.5l22 -4q7 -15 7 -35q0 -9 -1.5 -17.5t-3.5 -13.5l-2 -4l-145 -22v-820l145 -22q7 -15 7 -35q0 -9 -1.5 -17.5t-3.5 -13.5l-2 -4q-79 -14 -233 -14q-68 0 -126 3.5t-81 6.5l-24 4q-9 15 -9 35q0 9 2.5 17.5t4.5 13.5l2 4 l145 22v373q-5 -4 -13.5 -10.5t-39 -23.5t-64 -30t-87.5 -23.5t-111 -10.5q-156 0 -224.5 76t-68.5 227v242l-146 22q-8 15 -8 35z" />
<glyph unicode="&#x448;" horiz-adv-x="1693" d="M47 47q0 9 2 17.5t4 13.5l2 4l146 22v818l-146 22q-8 15 -8 35q0 9 2 17.5t4 13.5l2 4q72 14 217 14q64 0 118 -3.5t76 -6.5l23 -4q7 -15 7 -35q0 -9 -2 -17.5t-4 -13.5l-1 -4l-114 -22v-813h385v813l-115 22q-6 15 -6 35q0 9 1.5 17.5t3.5 13.5l1 4q68 14 203 14 q59 0 109.5 -3.5t70.5 -6.5l21 -4q6 -15 6 -35q0 -9 -1.5 -17.5t-3.5 -13.5l-1 -4l-115 -22v-813h385v813l-113 22q-8 15 -8 35q0 9 2 17.5t4 13.5l2 4q72 14 215 14q64 0 118.5 -3.5t76.5 -6.5l22 -4q9 -15 9 -35q0 -9 -2.5 -17.5t-4.5 -13.5l-2 -4l-145 -22v-818l145 -22 q9 -15 9 -35q0 -9 -2.5 -17.5t-4.5 -13.5l-2 -4q-226 -12 -559 -12h-463q-150 0 -290.5 3t-205.5 6l-65 3q-8 15 -8 35z" />
<glyph unicode="&#x449;" horiz-adv-x="1718" d="M47 47q0 9 2 17.5t4 13.5l2 4l146 22v818l-146 22q-8 15 -8 35q0 9 2 17.5t4 13.5l2 4q72 14 217 14q64 0 118 -3.5t76 -6.5l23 -4q7 -15 7 -35q0 -9 -2 -17.5t-4 -13.5l-1 -4l-114 -22v-813h385v813l-115 22q-6 15 -6 35q0 9 1.5 17.5t3.5 13.5l1 4q68 14 203 14 q59 0 109.5 -3.5t70.5 -6.5l21 -4q6 -15 6 -35q0 -9 -1.5 -17.5t-3.5 -13.5l-1 -4l-115 -22v-813h385v813l-113 22q-8 15 -8 35q0 9 2 17.5t4 13.5l2 4q72 14 215 14q64 0 118.5 -3.5t76.5 -6.5l22 -4q9 -15 9 -35q0 -9 -2.5 -17.5t-4.5 -13.5l-2 -4l-145 -22v-813h152 q10 -40 10 -95q0 -86 -3.5 -154.5t-7.5 -93.5l-4 -26q-18 -6 -49 -6q-14 0 -26 1.5t-17 2.5l-6 2l-29 260h-897q-150 0 -290.5 3t-205.5 6l-65 3q-8 15 -8 35z" />
<glyph unicode="&#x44a;" horiz-adv-x="1243" d="M59 954q0 18 2.5 35.5t5.5 26.5l3 8h139q127 0 253.5 -3t189.5 -6l63 -3q8 -15 8 -35q0 -9 -2 -17.5t-4 -13.5l-2 -4l-146 -22v-310q80 11 209 11q192 0 279.5 -72.5t87.5 -212.5v-60q0 -141 -89.5 -212.5t-287.5 -71.5q-136 0 -265.5 4.5t-190.5 9.5l-62 4q-8 13 -8 33 q0 10 2 19t4 12l2 4l145 24v813h-211l-30 -157q-16 -6 -39 -6q-11 0 -22 1.5t-16 2.5l-5 2q-13 59 -13 196zM569 100h199q110 0 156.5 42.5t46.5 133.5v60q0 90 -46.5 133t-156.5 43h-199v-412z" />
<glyph unicode="&#x44b;" horiz-adv-x="1525" d="M47 43q0 10 2 19t4 12l2 4l146 24v820l-146 22q-8 15 -8 35q0 9 2 17.5t4 13.5l2 4q78 14 232 14q69 0 127.5 -3.5t81.5 -6.5l24 -4q8 -15 8 -35q0 -9 -2 -17.5t-4 -13.5l-2 -4l-145 -22v-312q78 11 207 11q193 0 280.5 -72.5t87.5 -212.5v-60q0 -141 -89.5 -212.5 t-287.5 -71.5q-136 0 -265.5 4.5t-191.5 9.5l-61 4q-8 13 -8 33zM375 100h198q110 0 155.5 42t45.5 134v60q0 91 -46 133.5t-155 42.5h-198v-412zM993 45q0 9 1.5 17.5t3.5 13.5l1 4l146 22v820l-146 22q-6 15 -6 35q0 9 1.5 17.5t3.5 13.5l1 4q80 14 234 14 q68 0 126.5 -3.5t82.5 -6.5l24 -4q7 -15 7 -35q0 -9 -1.5 -17.5t-3.5 -13.5l-2 -4l-145 -22v-820l145 -22q7 -15 7 -35q0 -9 -1.5 -17.5t-3.5 -13.5l-2 -4q-79 -14 -233 -14q-68 0 -126.5 3.5t-82.5 6.5l-25 4q-6 15 -6 35z" />
<glyph unicode="&#x44c;" horiz-adv-x="1048" d="M47 43q0 10 2 19t4 12l2 4l146 24v820l-146 22q-8 15 -8 35q0 9 2 17.5t4 13.5l2 4q78 14 232 14q69 0 127.5 -3.5t81.5 -6.5l24 -4q8 -15 8 -35q0 -9 -2 -17.5t-4 -13.5l-2 -4l-145 -22v-312q78 11 207 11q193 0 280.5 -72.5t87.5 -212.5v-60q0 -141 -89.5 -212.5 t-287.5 -71.5q-136 0 -265.5 4.5t-191.5 9.5l-61 4q-8 13 -8 33zM375 100h198q110 0 155.5 42t45.5 134v60q0 91 -46 133.5t-155 42.5h-198v-412z" />
<glyph unicode="&#x44d;" horiz-adv-x="1001" d="M113 117q0 9 1 18t3 15t4 11t3 8l1 3q0 -3 35.5 -20t115.5 -35.5t170 -18.5q144 0 201.5 51.5t57.5 163.5v144h-379q-9 22 -9 55q0 15 2.5 28.5t4.5 19.5l2 7h379v144q0 112 -52 163.5t-180 51.5q-24 0 -46.5 -2t-42.5 -6.5t-34.5 -8t-31 -10.5t-23.5 -10t-21 -10l-14 -7 l-24 -167q-21 -7 -50 -7q-13 0 -25 2t-18 4l-6 1q-16 100 -16 243q5 3 14.5 9t43 21t71.5 26t98.5 20.5t124.5 9.5q216 0 312 -81.5t96 -241.5v-398q0 -160 -102.5 -241.5t-332.5 -81.5q-94 0 -174 18t-114 36l-33 17q-12 23 -12 56z" />
<glyph unicode="&#x44e;" horiz-adv-x="1492" d="M47 45q0 9 2 17.5t4 13.5l2 4l146 22v820l-146 22q-8 15 -8 35q0 9 2 17.5t4 13.5l2 4q76 14 226 14q68 0 124.5 -3.5t79.5 -6.5l23 -4q8 -15 8 -35q0 -9 -2 -17.5t-4 -13.5l-2 -4l-133 -22v-338h229v127q0 159 91 241t292 82t292 -82t91 -241v-398q0 -159 -91 -241 t-292 -82t-292 82t-91 241v162h-229v-373l133 -22q8 -15 8 -35q0 -9 -2 -17.5t-4 -13.5l-2 -4q-75 -14 -227 -14q-67 0 -123.5 3.5t-79.5 6.5l-23 4q-8 15 -8 35zM780 313q0 -112 47 -163.5t160 -51.5q112 0 159.5 52t47.5 163v398q0 111 -47.5 163t-159.5 52 q-113 0 -160 -51.5t-47 -163.5v-398z" />
<glyph unicode="&#x44f;" horiz-adv-x="1093" d="M41 45q0 9 2 17.5t4 13.5l2 4l146 22l176 342q-134 20 -192 84t-58 185v18q0 148 86 222.5t291 74.5q357 0 453 -8t96 -43q0 -9 -2.5 -17.5t-4.5 -13.5l-2 -4l-145 -22v-818l145 -22q9 -15 9 -35q0 -9 -2.5 -17.5t-4.5 -13.5l-2 -4q-75 -14 -227 -14q-67 0 -123 3.5 t-79 6.5l-23 4q-8 8 -8 35q0 9 2 17.5t4 13.5l2 4l133 22v332h-191l-213 -428q-47 -10 -90 -10q-47 0 -91 3.5t-64 6.5l-21 4q-8 8 -8 35zM297 711q0 -88 45.5 -128t155.5 -40h221v375h-221q-110 0 -155.5 -40t-45.5 -128v-39z" />
<glyph unicode="&#x450;" horiz-adv-x="1077" d="M135 313v398q0 160 96.5 241.5t315.5 81.5q114 0 193.5 -21t125.5 -64t66 -100.5t20 -137.5v-234q-118 -16 -321 -16h-322v-148q0 -113 60 -164t209 -51q95 0 181 18.5t124.5 35.5t38.5 20l1 -3q1 -3 2.5 -8t3 -11t2.5 -15t1 -18q0 -15 -2.5 -29t-5.5 -20l-2 -7 q-5 -3 -14.5 -7.5t-42 -17t-69.5 -22t-96 -17t-122 -7.5q-235 0 -339 81.5t-104 241.5zM303 1427q43 11 86 11q19 0 39.5 -3t31.5 -5l11 -3l215 -256q-26 -10 -59 -10q-12 0 -26.5 2.5t-22.5 4.5l-9 3zM309 569h475v142q0 112 -53 163.5t-184 51.5t-184.5 -51.5 t-53.5 -163.5v-142z" />
<glyph unicode="&#x451;" horiz-adv-x="1077" d="M135 313v398q0 160 96.5 241.5t315.5 81.5q114 0 193.5 -21t125.5 -64t66 -100.5t20 -137.5v-234q-118 -16 -321 -16h-322v-148q0 -113 60 -164t209 -51q95 0 181 18.5t124.5 35.5t38.5 20l1 -3q1 -3 2.5 -8t3 -11t2.5 -15t1 -18q0 -15 -2.5 -29t-5.5 -20l-2 -7 q-5 -3 -14.5 -7.5t-42 -17t-69.5 -22t-96 -17t-122 -7.5q-235 0 -339 81.5t-104 241.5zM258 1178v202q31 11 70 11q18 0 36 -2.5t26 -5.5l9 -3v-202q-32 -9 -71 -9q-17 0 -34.5 2.5t-26.5 4.5zM309 569h475v142q0 112 -53 163.5t-184 51.5t-184.5 -51.5t-53.5 -163.5v-142z M688 1178v202q31 11 70 11q18 0 36 -2.5t26 -5.5l9 -3v-202q-32 -9 -71 -9q-17 0 -34.5 2.5t-26.5 4.5z" />
<glyph unicode="&#x452;" horiz-adv-x="1128" d="M47 45q0 9 2 17.5t4 13.5l2 4l146 22v1092l-146 16q-8 15 -8 35q0 9 2 17.5t4 13.5l2 4q50 10 154 12l16 135q35 11 76 11q16 0 34.5 -3t28.5 -5l11 -3v-133h356q8 -20 8 -49q0 -14 -2 -26.5t-4 -18.5l-2 -6h-356v-274q5 5 14 12.5t40.5 27t66.5 34.5t91 27.5t115 12.5 q162 0 234 -81.5t72 -241.5v-854q0 -137 -62.5 -207t-202.5 -70q-72 0 -168 25q-8 22 -8 51q0 12 2 25t4 19l2 7q45 -18 109 -18q83 0 115 39.5t32 128.5v854q0 112 -41.5 163.5t-144.5 51.5q-55 0 -102.5 -12.5t-77 -30t-51 -34.5t-30.5 -29l-9 -13v-705l145 -22 q8 -15 8 -35q0 -9 -2 -17.5t-4 -13.5l-2 -4q-77 -14 -233 -14q-68 0 -126 3.5t-82 6.5l-24 4q-8 15 -8 35z" />
<glyph unicode="&#x453;" horiz-adv-x="909" d="M47 45q0 9 2 17.5t4 13.5l2 4l146 22v818l-146 22q-8 15 -8 35q0 9 2 17.5t4 13.5l2 4q224 12 557 12h226q8 -29 8 -70q0 -61 -3 -110t-6 -68l-3 -18q-16 -6 -41 -6q-11 0 -21.5 1.5t-15.5 2.5l-4 2l-29 157h-348v-813l145 -22q8 -15 8 -35q0 -9 -2 -17.5t-4 -13.5l-2 -4 q-77 -14 -233 -14q-68 0 -126 3.5t-82 6.5l-24 4q-8 15 -8 35zM375 1171l215 256q39 11 82 11q19 0 40.5 -3t33.5 -5l12 -3l-266 -256q-31 -10 -58 -10q-15 0 -29.5 2.5t-22.5 4.5z" />
<glyph unicode="&#x454;" horiz-adv-x="1011" d="M123 313v398q0 160 95 241.5t310 81.5q67 0 128.5 -9t102.5 -21.5t72 -25t45 -21.5l15 -9q0 -64 -3.5 -124.5t-7.5 -89.5l-3 -29q-21 -7 -52 -7q-13 0 -24.5 2t-16.5 4l-6 1l-26 167q-1 0 -11 5l-15 7.5t-17 7.5t-21.5 8t-24 8t-28.5 7.5t-31 5t-36.5 4t-39.5 1.5 q-127 0 -178 -51.5t-51 -163.5v-142h430q10 -22 10 -55q0 -15 -2.5 -28t-4.5 -19l-3 -6h-430v-148q0 -113 57.5 -164t202.5 -51q91 0 173.5 18.5t119.5 35.5t37 20l1 -3q1 -3 3 -8t4 -11t3 -15t1 -18q0 -15 -3 -29t-6 -20l-3 -7q-5 -3 -14 -7.5t-40.5 -17t-66.5 -22t-92 -17 t-117 -7.5q-232 0 -334 81.5t-102 241.5z" />
<glyph unicode="&#x455;" horiz-adv-x="968" d="M113 68q0 64 4 125t8 89l4 29q18 6 49 6q13 0 25 -1.5t18 -3.5l6 -1l25 -166q97 -47 219 -47q117 0 164 41.5t47 132.5v41q0 38 -31 65t-80.5 43t-109 31t-119.5 34t-109.5 44.5t-80.5 71t-31 107.5v41q0 142 88 213t287 71q60 0 116.5 -8.5t94 -21t66.5 -25t43 -21.5 l13 -8q0 -64 -3.5 -124t-7.5 -88l-3 -29q-20 -9 -51 -9q-13 0 -25 2t-18 4l-6 3l-25 170q-84 47 -194 47q-111 0 -157 -42.5t-46 -133.5v-41q0 -35 31.5 -60t81.5 -41t111 -30.5t121.5 -34t110.5 -46.5t81.5 -74t31.5 -110v-41q0 -140 -91.5 -211t-299.5 -71q-65 0 -126 8 t-101.5 19.5t-71 23t-44.5 19.5z" />
<glyph unicode="&#x456;" horiz-adv-x="575" d="M47 45q0 9 2 17.5t4 13.5l2 4l146 22v820l-146 22q-8 15 -8 35q0 9 2 17.5t4 13.5l2 4q72 14 211 14q26 0 53.5 -2.5t41.5 -5.5l14 -2v-916l145 -22q8 -15 8 -35q0 -9 -2 -17.5t-4 -13.5l-2 -4q-77 -14 -233 -14q-68 0 -126 3.5t-82 6.5l-24 4q-8 15 -8 35zM201 1214v213 q41 11 86 11q20 0 42 -3t34 -5l12 -3v-213q-43 -10 -88 -10q-20 0 -41.5 2.5t-33.5 5.5z" />
<glyph unicode="&#x457;" horiz-adv-x="575" d="M47 45q0 9 2 17.5t4 13.5l2 4l146 22v820l-146 22q-8 15 -8 35q0 9 2 17.5t4 13.5l2 4q72 14 211 14q26 0 53.5 -2.5t41.5 -5.5l14 -2v-916l145 -22q8 -15 8 -35q0 -9 -2 -17.5t-4 -13.5l-2 -4q-77 -14 -233 -14q-68 0 -126 3.5t-82 6.5l-24 4q-8 15 -8 35zM57 1227v200 q31 11 70 11q18 0 36 -3t27 -5l9 -3v-200q-33 -10 -72 -10q-17 0 -34.5 2.5t-26.5 4.5zM377 1227v200q31 11 72 11q17 0 34.5 -3t26.5 -5l8 -3v-200q-30 -10 -69 -10q-18 0 -36 2.5t-27 4.5z" />
<glyph unicode="&#x458;" horiz-adv-x="542" d="M-37 -344q0 12 2 25t4 19l2 7q52 -18 111 -18q82 0 113.5 40t31.5 128v1065l-143 22q-8 15 -8 35q0 9 2 17.5t4 13.5l2 4q72 14 211 14q26 0 53 -2.5t41 -5.5l14 -2v-1161q0 -137 -62 -207t-202 -70q-72 0 -168 25q-8 22 -8 51zM227 1214v213q43 11 88 11q20 0 42 -3 t34 -5l12 -3v-213q-43 -10 -88 -10q-20 0 -42 2.5t-34 5.5z" />
<glyph unicode="&#x459;" horiz-adv-x="1619" d="M39 45q0 15 2.5 28t4.5 19l3 6q89 0 124 51.5t50 174.5l66 596l-146 22q-6 15 -6 35q0 9 1.5 17.5t3.5 13.5l1 4q221 16 480 16q109 0 226.5 -4t180.5 -8l62 -4q8 -15 8 -35q0 -9 -2 -17.5t-4 -13.5l-2 -4l-146 -22v-310q78 11 207 11q193 0 281 -72.5t88 -212.5v-60 q0 -141 -89 -211.5t-288 -70.5q-135 0 -264.5 4t-191.5 8l-62 4q-9 13 -9 33q0 10 2 19t4 12l3 4l143 24v813h-324l-61 -591q-9 -85 -28 -143t-56.5 -103t-99.5 -66.5t-152 -21.5q-10 22 -10 55zM946 102h199q110 0 155.5 41.5t45.5 132.5v60q0 91 -46 133.5t-155 42.5h-199 v-410z" />
<glyph unicode="&#x45a;" horiz-adv-x="1671" d="M47 45q0 9 2 17.5t4 13.5l2 4l146 22v820l-146 22q-8 15 -8 35q0 9 2 17.5t4 13.5l2 4q74 14 219 14q65 0 120.5 -3.5t78.5 -6.5l23 -4q6 -15 6 -35q0 -9 -1.5 -17.5t-2.5 -13.5l-2 -4l-121 -22v-338h448v338l-121 22q-8 15 -8 35q0 9 2 17.5t4 13.5l2 4q75 14 222 14 q64 0 119 -3.5t77 -6.5l23 -4q8 -15 8 -35q0 -9 -2 -17.5t-4 -13.5l-2 -4l-146 -22v-312q78 11 207 11q193 0 281 -72.5t88 -212.5v-60q0 -141 -89 -211.5t-288 -70.5q-134 0 -257.5 4t-180.5 8l-56 4q-8 15 -8 35q0 9 2 17.5t4 13.5l2 4l121 22v373h-448v-373l121 -22 q6 -15 6 -35q0 -9 -1.5 -17.5t-2.5 -13.5l-2 -4q-75 -14 -222 -14q-64 0 -119 3.5t-77 6.5l-23 4q-8 15 -8 35zM997 102h199q110 0 155.5 41.5t45.5 132.5v60q0 91 -46 133.5t-155 42.5h-199v-410z" />
<glyph unicode="&#x45b;" horiz-adv-x="1206" d="M47 45q0 9 2 17.5t4 13.5l2 4l146 22v1092l-146 16q-8 15 -8 35q0 9 2 17.5t4 13.5l2 4q56 12 154 12l16 135q35 11 76 11q16 0 34.5 -3t28.5 -5l11 -3v-133h356q8 -20 8 -49q0 -14 -2 -26.5t-4 -18.5l-2 -6h-356v-274q5 5 14 12.5t40.5 27t66.5 34.5t91 27.5t115 12.5 q162 0 234 -81.5t72 -241.5v-609l143 -22q8 -15 8 -35q0 -9 -2 -17.5t-4 -13.5l-2 -4q-70 -14 -211 -14q-26 0 -53.5 2.5t-41.5 5.5l-14 2v705q0 112 -41.5 163.5t-144.5 51.5q-55 0 -102.5 -12.5t-77 -30t-51 -34.5t-30.5 -29l-9 -13v-705l145 -22q8 -15 8 -35 q0 -9 -2 -17.5t-4 -13.5l-2 -4q-77 -14 -233 -14q-68 0 -126 3.5t-82 6.5l-24 4q-8 15 -8 35z" />
<glyph unicode="&#x45c;" horiz-adv-x="1138" d="M47 45q0 9 2 17.5t4 13.5l2 4l146 22v820l-146 22q-8 15 -8 35q0 9 2 17.5t4 13.5l2 4q74 14 221 14q64 0 119.5 -3.5t78.5 -6.5l24 -4q6 -15 6 -35q0 -9 -1.5 -17.5t-2.5 -13.5l-2 -4l-123 -22v-357l143 37l240 330l-107 12q-8 15 -8 35q0 9 2 17.5t4 13.5l2 4 q80 14 254 14q46 0 88.5 -3.5t62.5 -6.5l19 -4q6 -15 6 -35q0 -9 -1.5 -17.5t-3.5 -13.5l-1 -4l-145 -22l-268 -377l294 -443l144 -22q6 -15 6 -35q0 -9 -1.5 -17.5t-2.5 -13.5l-2 -4q-72 -14 -172 -14q-20 0 -43.5 2.5t-36.5 5.5l-14 2l-320 479l-139 -34v-349l145 -22 q8 -15 8 -35q0 -9 -2 -17.5t-4 -13.5l-2 -4q-77 -14 -233 -14q-68 0 -126 3.5t-82 6.5l-24 4q-8 15 -8 35zM418 1171l215 256q39 11 82 11q19 0 40 -3t33 -5l11 -3l-264 -256q-31 -10 -60 -10q-14 0 -28 2.5t-21 4.5z" />
<glyph unicode="&#x45d;" horiz-adv-x="1239" d="M47 45q0 9 2 17.5t4 13.5l2 4l146 22v820l-146 22q-8 15 -8 35q0 9 2 17.5t4 13.5l2 4q74 14 224 14q64 0 118.5 -3.5t76.5 -6.5l22 -4q8 -15 8 -35q0 -9 -2 -17.5t-4 -13.5l-2 -4l-121 -22v-629l487 608v21l-121 22q-8 15 -8 35q0 9 2 17.5t4 13.5l2 4q73 14 220 14 q65 0 120.5 -3.5t78.5 -6.5l22 -4q8 -15 8 -35q0 -9 -2 -17.5t-4 -13.5l-2 -4l-144 -22v-820l146 -22q6 -15 6 -35q0 -9 -1.5 -17.5t-2.5 -13.5l-2 -4q-73 -14 -223 -14q-64 0 -119 3.5t-78 6.5l-23 4q-6 15 -6 35q0 9 1.5 17.5t3.5 13.5l1 4l121 22v629l-487 -608v-21 l121 -22q8 -15 8 -35q0 -9 -2 -17.5t-4 -13.5l-2 -4q-72 -14 -217 -14q-67 0 -123 3.5t-78 6.5l-23 4q-8 15 -8 35zM383 1427q43 11 86 11q19 0 39.5 -3t31.5 -5l11 -3l213 -256q-24 -10 -57 -10q-12 0 -26.5 2.5t-22.5 4.5l-9 3z" />
<glyph unicode="&#x45e;" horiz-adv-x="1214" d="M25 979q0 9 2 17.5t4 13.5l2 4q77 14 190 14q67 0 124 -3.5t81 -6.5l23 -4q8 -15 8 -35q0 -9 -2 -17.5t-4 -13.5l-2 -4l-115 -18l270 -783l268 783l-110 18q-8 15 -8 35q0 9 2 17.5t4 13.5l2 4q78 14 225 14q51 0 99.5 -3.5t71.5 -6.5l22 -4q8 -15 8 -35q0 -9 -2 -17.5 t-4 -13.5l-2 -4l-140 -22l-383 -1065q-49 -142 -135.5 -209.5t-234.5 -67.5q-33 0 -63 4t-44 8l-14 5q-10 20 -10 51q0 14 2.5 27t5.5 19l2 7q47 -12 125 -12q154 0 209 164l53 145q-13 0 -26.5 2t-20.5 4l-8 2l-330 916l-137 22q-8 15 -8 35zM336 1407v20q28 11 59 11 q14 0 29.5 -3t23.5 -5l9 -3v-20q0 -69 32.5 -99t116.5 -30q85 0 118.5 30t33.5 99v20q28 11 59 11q15 0 30.5 -3t23.5 -5l8 -3v-20q0 -107 -60.5 -159t-212.5 -52q-150 0 -210 52t-60 159z" />
<glyph unicode="&#x45f;" horiz-adv-x="1218" d="M47 45q0 9 2 17.5t4 13.5l2 4l146 22v820l-146 22q-8 15 -8 35q0 9 2 17.5t4 13.5l2 4q74 14 219 14q65 0 120.5 -3.5t78.5 -6.5l23 -4q6 -15 6 -35q0 -9 -1.5 -17.5t-2.5 -13.5l-2 -4l-121 -22v-813h467v813l-119 22q-8 15 -8 35q0 9 2 17.5t4 13.5l2 4q74 14 219 14 q65 0 120.5 -3.5t77.5 -6.5l23 -4q8 -15 8 -35q0 -9 -2 -17.5t-4 -13.5l-2 -4l-145 -22v-820l145 -22q8 -15 8 -35q0 -9 -2 -17.5t-4 -13.5l-2 -4q-191 -12 -477 -12v-244q-37 -10 -76 -10q-17 0 -36 2.5t-29 5.5l-10 2v244q-128 0 -248 3t-176 6l-56 3q-8 15 -8 35z" />
<glyph unicode="&#x490;" horiz-adv-x="1001" d="M51 47q0 11 2 21t4 14l2 4l162 20v1221l-162 21q-8 13 -8 38q0 10 2 19.5t4 13.5l2 4q233 11 574 11h151l39 229q18 6 47 6q13 0 25.5 -1.5t18.5 -3.5l6 -1q14 -76 14 -256q0 -23 -2.5 -45.5t-5.5 -33.5l-2 -11h-521v-1211l162 -20q8 -14 8 -39q0 -10 -2 -19.5t-4 -13.5 l-2 -4q-84 -14 -254 -14q-75 0 -138 3.5t-89 6.5l-25 4q-8 14 -8 37z" />
<glyph unicode="&#x491;" horiz-adv-x="837" d="M47 45q0 9 2 17.5t4 13.5l2 4l146 22v820l-146 22q-8 15 -8 35q0 9 2 17.5t4 13.5l2 4q208 10 520 10h58l26 227q21 6 50 6q14 0 26.5 -1.5t18.5 -3.5l6 -1q12 -75 12 -247q0 -23 -2 -45t-4 -33l-2 -11h-389v-813l145 -22q8 -15 8 -35q0 -9 -2 -17.5t-4 -13.5l-2 -4 q-77 -14 -233 -14q-68 0 -126 3.5t-82 6.5l-24 4q-8 15 -8 35z" />
<glyph unicode="&#x4d8;" horiz-adv-x="1210" d="M123 332v424q139 18 375 18h407v328q0 119 -68 172t-237 53q-57 0 -110.5 -9.5t-89.5 -22.5t-63.5 -26t-40.5 -23l-13 -9l-27 -184q-22 -6 -53 -6q-14 0 -27 1.5t-20 3.5l-6 1q-15 107 -15 254q5 6 16 15t52 32.5t89.5 41.5t131.5 33t176 15q259 0 374.5 -86.5 t115.5 -255.5v-770q0 -169 -115.5 -255.5t-374.5 -86.5q-135 0 -228.5 22.5t-147.5 67.5t-77.5 106t-23.5 146zM299 332q0 -119 67 -172.5t234 -53.5q169 0 237 53.5t68 172.5v334h-606v-334z" />
<glyph unicode="&#x4d9;" horiz-adv-x="1062" d="M123 313v238q118 18 319 18h322v142q0 112 -56.5 163.5t-197.5 51.5q-27 0 -51.5 -2t-46 -6.5t-38.5 -8.5t-34.5 -10t-26.5 -10t-23 -10t-16 -7l-24 -167q-20 -7 -49 -7q-13 0 -25 2t-18 4l-6 1q-17 100 -17 243q5 3 15.5 9t46 21t75.5 26t104.5 20.5t133.5 9.5 q227 0 328.5 -81.5t101.5 -241.5v-398q0 -160 -97 -241.5t-317 -81.5q-221 0 -312 80.5t-91 242.5zM289 313q0 -112 53 -163.5t184 -51.5t184.5 51.5t53.5 163.5v148h-475v-148z" />
<glyph unicode="&#x2000;" horiz-adv-x="904" />
<glyph unicode="&#x2001;" horiz-adv-x="1808" />
<glyph unicode="&#x2002;" horiz-adv-x="904" />
<glyph unicode="&#x2003;" horiz-adv-x="1808" />
<glyph unicode="&#x2004;" horiz-adv-x="602" />
<glyph unicode="&#x2005;" horiz-adv-x="452" />
<glyph unicode="&#x2006;" horiz-adv-x="301" />
<glyph unicode="&#x2007;" horiz-adv-x="301" />
<glyph unicode="&#x2008;" horiz-adv-x="226" />
<glyph unicode="&#x2009;" horiz-adv-x="361" />
<glyph unicode="&#x200a;" horiz-adv-x="100" />
<glyph unicode="&#x2010;" d="M84 582q0 15 2.5 28.5t5.5 19.5l2 7h422q8 -22 8 -55q0 -14 -2 -27.5t-4 -20.5l-2 -6h-422q-10 21 -10 54z" />
<glyph unicode="&#x2011;" d="M84 582q0 15 2.5 28.5t5.5 19.5l2 7h422q8 -22 8 -55q0 -14 -2 -27.5t-4 -20.5l-2 -6h-422q-10 21 -10 54z" />
<glyph unicode="&#x2012;" d="M84 582q0 15 2.5 28.5t5.5 19.5l2 7h422q8 -22 8 -55q0 -14 -2 -27.5t-4 -20.5l-2 -6h-422q-10 21 -10 54z" />
<glyph unicode="&#x2013;" horiz-adv-x="1019" d="M84 582q0 15 2.5 28.5t5.5 19.5l2 7h832q8 -22 8 -55q0 -14 -2 -27.5t-4 -20.5l-2 -6h-832q-10 21 -10 54z" />
<glyph unicode="&#x2014;" horiz-adv-x="1327" d="M84 582q0 15 2.5 28.5t5.5 19.5l2 7h1139q8 -22 8 -55q0 -14 -2 -27.5t-4 -20.5l-2 -6h-1139q-10 21 -10 54z" />
<glyph unicode="&#x2018;" horiz-adv-x="407" d="M125 1016q0 84 14.5 157t34.5 117.5t40.5 77t35.5 46.5l14 13q22 11 47 11q10 0 21.5 -3t17.5 -5l6 -3q-4 -5 -10 -15.5t-21.5 -47.5t-27.5 -80.5t-21.5 -115.5t-9.5 -152q-32 -10 -69 -10q-16 0 -34 2.5t-28 5.5z" />
<glyph unicode="&#x2019;" horiz-adv-x="407" d="M53 1016q4 5 9.5 15.5t21 47.5t27 80.5t21 115.5t9.5 152q35 11 72 11q16 0 33.5 -3t27.5 -5l9 -3q0 -84 -14.5 -157t-35 -117.5t-41 -77t-34.5 -45.5l-15 -14q-22 -10 -45 -10q-11 0 -22.5 2.5t-17.5 5.5z" />
<glyph unicode="&#x201a;" horiz-adv-x="407" d="M53 -209q4 5 9.5 15.5t21 47.5t27 80.5t21 116t9.5 152.5q35 10 72 10q16 0 33.5 -2.5t27.5 -4.5l9 -3q0 -84 -14.5 -157t-35 -118t-41 -77.5t-34.5 -46.5l-15 -13q-22 -10 -45 -10q-11 0 -22.5 2.5t-17.5 4.5z" />
<glyph unicode="&#x201c;" horiz-adv-x="663" d="M125 1016q0 84 14.5 157t34.5 117.5t40.5 77t35.5 46.5l14 13q22 11 47 11q10 0 21.5 -3t17.5 -5l6 -3q-4 -5 -10 -15.5t-21.5 -47.5t-27.5 -80.5t-21.5 -115.5t-9.5 -152q-32 -10 -69 -10q-16 0 -34 2.5t-28 5.5zM381 1016q0 84 14.5 157t34.5 117.5t40.5 77t35.5 46.5 l14 13q22 11 45 11q11 0 22.5 -3t16.5 -5l6 -3q-4 -5 -9.5 -15.5t-21 -47.5t-27 -80.5t-21 -115.5t-9.5 -152q-34 -10 -71 -10q-16 0 -33.5 2.5t-27.5 5.5z" />
<glyph unicode="&#x201d;" horiz-adv-x="663" d="M53 1016q4 5 9.5 15.5t21 47.5t27 80.5t21 115.5t9.5 152q35 11 72 11q16 0 33.5 -3t27.5 -5l9 -3q0 -84 -14.5 -157t-35 -117.5t-41 -77t-34.5 -45.5l-15 -14q-22 -10 -45 -10q-11 0 -22.5 2.5t-17.5 5.5zM307 1016q4 5 10 15.5t21.5 47.5t27.5 80.5t21.5 115.5t9.5 152 q33 11 70 11q16 0 34 -3t28 -5l10 -3q0 -84 -14.5 -157t-35 -117.5t-41 -77t-34.5 -45.5l-15 -14q-22 -10 -47 -10q-10 0 -21.5 2.5t-17.5 5.5z" />
<glyph unicode="&#x201e;" horiz-adv-x="663" d="M53 -209q4 5 9.5 15.5t21 47.5t27 80.5t21 116t9.5 152.5q35 10 72 10q16 0 33.5 -2.5t27.5 -4.5l9 -3q0 -84 -14.5 -157t-35 -118t-41 -77.5t-34.5 -46.5l-15 -13q-22 -10 -45 -10q-11 0 -22.5 2.5t-17.5 4.5zM307 -209q4 5 10 15.5t21.5 47.5t27.5 80.5t21.5 116 t9.5 152.5q33 10 70 10q16 0 34 -2.5t28 -4.5l10 -3q0 -84 -15 -157t-36 -118t-42 -77.5t-36 -46.5l-15 -13q-23 -10 -43 -10q-11 0 -22.5 2.5t-17.5 4.5z" />
<glyph unicode="&#x2026;" horiz-adv-x="1206" d="M131 6v205q41 10 86 10q19 0 40.5 -2.5t33.5 -4.5l12 -3v-205q-45 -10 -86 -10q-20 0 -41.5 2.5t-33.5 5.5zM516 6v205q43 10 86 10q20 0 41.5 -2.5t32.5 -4.5l12 -3v-205q-43 -10 -86 -10q-19 0 -40.5 2.5t-33.5 5.5zM903 6v205q41 10 86 10q19 0 40.5 -2.5t33.5 -4.5 l12 -3v-205q-43 -10 -86 -10q-20 0 -41.5 2.5t-33.5 5.5z" />
<glyph unicode="&#x202f;" horiz-adv-x="361" />
<glyph unicode="&#x2039;" horiz-adv-x="626" d="M82 553l377 375q24 -8 49 -33q10 -10 19 -21.5t13 -17.5l3 -6l-295 -297l295 -297q-10 -22 -35 -45q-11 -10 -23 -18.5t-18 -11.5l-6 -3z" />
<glyph unicode="&#x203a;" horiz-adv-x="626" d="M82 850q10 22 35 45q11 10 23 18.5t18 11.5l6 3l379 -375l-377 -375q-22 10 -49 33q-10 10 -18.5 21.5t-11.5 17.5l-3 6l295 297z" />
<glyph unicode="&#x205f;" horiz-adv-x="452" />
<glyph unicode="&#x20ac;" horiz-adv-x="1228" d="M55 575q0 15 2.5 29t5.5 20l3 7h106v164h-106q-9 20 -9 53q0 15 2.5 28.5t4.5 19.5l2 7h106v199q0 169 114.5 255.5t372.5 86.5q93 0 174 -14t131 -34t86 -40.5t51 -34.5l15 -14q0 -65 -3.5 -128.5t-6.5 -94.5l-4 -31q-22 -6 -53 -6q-15 0 -28.5 1.5t-19.5 3.5l-6 1 l-26 184q-4 4 -12.5 10t-38 21.5t-62.5 27.5t-86.5 21.5t-110.5 9.5q-169 0 -237 -53t-68 -172v-199h504q8 -22 8 -55q0 -15 -2 -28t-4 -19l-2 -6h-504v-164h502q10 -23 10 -56q0 -15 -2.5 -28t-5.5 -19l-2 -6h-502v-190q0 -119 72.5 -172.5t253.5 -53.5q74 0 144.5 9.5 t118.5 22t85.5 26.5t55.5 23t18 10q12 -23 12 -60q0 -16 -3 -31t-6 -22l-3 -6q-6 -4 -17.5 -9.5t-51.5 -21t-85.5 -27t-118.5 -21t-151 -9.5q-182 0 -295.5 41t-162 115t-48.5 186v190h-106q-11 20 -11 53z" />
<glyph unicode="&#x2122;" horiz-adv-x="1402" d="M57 1399q0 9 1.5 17.5t3.5 13.5l1 4h498q6 -15 6 -35q0 -10 -1.5 -19t-3.5 -12l-1 -4h-190v-645q-29 -4 -58 -4l-57 4v645h-193q-6 12 -6 35zM647 719v711q0 6 76 6l74 -6l190 -463l193 465q34 6 73 6l76 -6v-711q-26 -6 -53 -6l-55 6v559l-185 -444q-20 -7 -47 -7 q-12 0 -24.5 1.5t-19.5 3.5l-7 2l-182 442v-559q-27 -4 -54 -4z" />
<glyph unicode="&#x25fc;" horiz-adv-x="1024" d="M0 0v1024h1024v-1024h-1024z" />
</font>
</defs>
</svg>
